<svg xmlns="http://www.w3.org/2000/svg" xmlns:xlink="http://www.w3.org/1999/xlink" contentStyleType="text/css" data-diagram-type="ACTIVITY" height="470px" preserveAspectRatio="none" style="width:276px;height:470px;background:#FFFFFF;" version="1.1" viewBox="0 0 276 470" width="276px" zoomAndPan="magnify"><defs/><g><ellipse cx="148.4832" cy="20" fill="#222222" rx="10" ry="10" style="stroke:#222222;stroke-width:1;"/><rect fill="#F1F1F1" height="33.9688" rx="12.5" ry="12.5" style="stroke:#181818;stroke-width:0.5;" width="165.5176" x="65.7244" y="50"/><text fill="#000000" font-family="sans-serif" font-size="12" lengthAdjust="spacing" textLength="145.5176" x="75.7244" y="71.1387">Charger donn&#233;es brutes</text><rect fill="#F1F1F1" height="33.9688" rx="12.5" ry="12.5" style="stroke:#181818;stroke-width:0.5;" width="135.916" x="80.5251" y="103.9688"/><text fill="#000000" font-family="sans-serif" font-size="12" lengthAdjust="spacing" textLength="115.916" x="90.5251" y="125.1074">Nettoyage &amp; fusion</text><rect fill="#F1F1F1" height="33.9688" rx="12.5" ry="12.5" style="stroke:#181818;stroke-width:0.5;" width="124.6895" x="86.1384" y="157.9375"/><text fill="#000000" font-family="sans-serif" font-size="12" lengthAdjust="spacing" textLength="104.6895" x="96.1384" y="179.0762">Cr&#233;ation features</text><polygon fill="#F1F1F1" points="100.8818,211.9063,196.0845,211.9063,208.0845,223.9063,196.0845,235.9063,100.8818,235.9063,88.8818,223.9063,100.8818,211.9063" style="stroke:#181818;stroke-width:0.5;"/><text fill="#000000" font-family="sans-serif" font-size="11" lengthAdjust="spacing" textLength="95.2026" x="100.8818" y="227.7144">Mod&#232;le baseline?</text><text fill="#000000" font-family="sans-serif" font-size="11" lengthAdjust="spacing" textLength="16.7578" x="72.124" y="221.312">oui</text><text fill="#000000" font-family="sans-serif" font-size="11" lengthAdjust="spacing" textLength="20.6733" x="208.0845" y="221.312">non</text><rect fill="#F1F1F1" height="33.9688" rx="12.5" ry="12.5" style="stroke:#181818;stroke-width:0.5;" width="135.7637" x="11" y="245.9063"/><text fill="#000000" font-family="sans-serif" font-size="12" lengthAdjust="spacing" textLength="115.7637" x="21" y="267.0449">Entra&#238;ner baselines</text><rect fill="#F1F1F1" height="33.9688" rx="12.5" ry="12.5" style="stroke:#181818;stroke-width:0.5;" width="95.1758" x="170.4966" y="245.9063"/><text fill="#000000" font-family="sans-serif" font-size="12" lengthAdjust="spacing" textLength="75.1758" x="180.4966" y="267.0449">Entra&#238;ner DL</text><polygon fill="#F1F1F1" points="148.4832,285.875,160.4832,297.875,148.4832,309.875,136.4832,297.875,148.4832,285.875" style="stroke:#181818;stroke-width:0.5;"/><rect fill="#F1F1F1" height="33.9688" rx="12.5" ry="12.5" style="stroke:#181818;stroke-width:0.5;" width="208.9473" x="44.0095" y="329.875"/><text fill="#000000" font-family="sans-serif" font-size="12" lengthAdjust="spacing" textLength="188.9473" x="54.0095" y="351.0137">&#201;valuer &amp; s&#233;lectionner meilleur</text><rect fill="#F1F1F1" height="33.9688" rx="12.5" ry="12.5" style="stroke:#181818;stroke-width:0.5;" width="151.3203" x="72.823" y="383.8438"/><text fill="#000000" font-family="sans-serif" font-size="12" lengthAdjust="spacing" textLength="131.3203" x="82.823" y="404.9824">D&#233;ployer / Dashboard</text><ellipse cx="148.4832" cy="448.8125" fill="none" rx="11" ry="11" style="stroke:#222222;stroke-width:1;"/><ellipse cx="148.4832" cy="448.8125" fill="#222222" rx="6" ry="6" style="stroke:#222222;stroke-width:1;"/><line style="stroke:#181818;stroke-width:1;" x1="148.4832" x2="148.4832" y1="30" y2="50"/><polygon fill="#181818" points="144.4832,40,148.4832,50,152.4832,40,148.4832,44" style="stroke:#181818;stroke-width:1;"/><line style="stroke:#181818;stroke-width:1;" x1="148.4832" x2="148.4832" y1="83.9688" y2="103.9688"/><polygon fill="#181818" points="144.4832,93.9688,148.4832,103.9688,152.4832,93.9688,148.4832,97.9688" style="stroke:#181818;stroke-width:1;"/><line style="stroke:#181818;stroke-width:1;" x1="148.4832" x2="148.4832" y1="137.9375" y2="157.9375"/><polygon fill="#181818" points="144.4832,147.9375,148.4832,157.9375,152.4832,147.9375,148.4832,151.9375" style="stroke:#181818;stroke-width:1;"/><line style="stroke:#181818;stroke-width:1;" x1="88.8818" x2="78.8818" y1="223.9063" y2="223.9063"/><line style="stroke:#181818;stroke-width:1;" x1="78.8818" x2="78.8818" y1="223.9063" y2="245.9063"/><polygon fill="#181818" points="74.8818,235.9063,78.8818,245.9063,82.8818,235.9063,78.8818,239.9063" style="stroke:#181818;stroke-width:1;"/><line style="stroke:#181818;stroke-width:1;" x1="208.0845" x2="218.0845" y1="223.9063" y2="223.9063"/><line style="stroke:#181818;stroke-width:1;" x1="218.0845" x2="218.0845" y1="223.9063" y2="245.9063"/><polygon fill="#181818" points="214.0845,235.9063,218.0845,245.9063,222.0845,235.9063,218.0845,239.9063" style="stroke:#181818;stroke-width:1;"/><line style="stroke:#181818;stroke-width:1;" x1="78.8818" x2="78.8818" y1="279.875" y2="297.875"/><line style="stroke:#181818;stroke-width:1;" x1="78.8818" x2="136.4832" y1="297.875" y2="297.875"/><polygon fill="#181818" points="126.4832,293.875,136.4832,297.875,126.4832,301.875,130.4832,297.875" style="stroke:#181818;stroke-width:1;"/><line style="stroke:#181818;stroke-width:1;" x1="218.0845" x2="218.0845" y1="279.875" y2="297.875"/><line style="stroke:#181818;stroke-width:1;" x1="218.0845" x2="160.4832" y1="297.875" y2="297.875"/><polygon fill="#181818" points="170.4832,293.875,160.4832,297.875,170.4832,301.875,166.4832,297.875" style="stroke:#181818;stroke-width:1;"/><line style="stroke:#181818;stroke-width:1;" x1="148.4832" x2="148.4832" y1="191.9063" y2="211.9063"/><polygon fill="#181818" points="144.4832,201.9063,148.4832,211.9063,152.4832,201.9063,148.4832,205.9063" style="stroke:#181818;stroke-width:1;"/><line style="stroke:#181818;stroke-width:1;" x1="148.4832" x2="148.4832" y1="309.875" y2="329.875"/><polygon fill="#181818" points="144.4832,319.875,148.4832,329.875,152.4832,319.875,148.4832,323.875" style="stroke:#181818;stroke-width:1;"/><line style="stroke:#181818;stroke-width:1;" x1="148.4832" x2="148.4832" y1="363.8438" y2="383.8438"/><polygon fill="#181818" points="144.4832,373.8438,148.4832,383.8438,152.4832,373.8438,148.4832,377.8438" style="stroke:#181818;stroke-width:1;"/><line style="stroke:#181818;stroke-width:1;" x1="148.4832" x2="148.4832" y1="417.8125" y2="437.8125"/><polygon fill="#181818" points="144.4832,427.8125,148.4832,437.8125,152.4832,427.8125,148.4832,431.8125" style="stroke:#181818;stroke-width:1;"/><!--SRC=[NOwn3S9034Nxcy8L2XLzA2W87R23Gnnoqc4ZsuV426n26fQunRWKD7HVpy_wtnpLGxkVKA-aC0XpcScWr-nasz2UoLsUU2LOmPWj2bUurpAZrmmZeMTTp3X2SvAXl1D1ZqOfCktMu1CnD9BZEW2q1tR5yk5QzNFgAoKZQ5Zut-cEzSX374DRNWzCkR8LM9aJNPRwnRbHJ8corbbTcUz9dXLke4ERUa4Tji5Sxby0]--></g></svg>