<svg xmlns="http://www.w3.org/2000/svg" xmlns:xlink="http://www.w3.org/1999/xlink" contentStyleType="text/css" data-diagram-type="ACTIVITY" height="756px" preserveAspectRatio="none" style="width:897px;height:756px;background:#FFFFFF;" version="1.1" viewBox="0 0 897 756" width="897px" zoomAndPan="magnify"><defs/><g><ellipse cx="525.2339" cy="20" fill="#222222" rx="10" ry="10" style="stroke:#222222;stroke-width:1;"/><rect fill="#F1F1F1" height="47.9375" rx="12.5" ry="12.5" style="stroke:#181818;stroke-width:0.5;" width="136.373" x="457.0474" y="50"/><text fill="#000000" font-family="sans-serif" font-size="12" lengthAdjust="spacing" textLength="94.1016" x="467.0474" y="71.1387">Capturer image</text><text fill="#000000" font-family="sans-serif" font-size="12" lengthAdjust="spacing" textLength="116.373" x="467.0474" y="85.1074">(cv2.VideoCapture)</text><rect fill="#F1F1F1" height="47.9375" rx="12.5" ry="12.5" style="stroke:#181818;stroke-width:0.5;" width="156.6348" x="446.9165" y="117.9375"/><text fill="#000000" font-family="sans-serif" font-size="12" lengthAdjust="spacing" textLength="81.1641" x="456.9165" y="139.0762">Traiter image</text><text fill="#000000" font-family="sans-serif" font-size="12" lengthAdjust="spacing" textLength="136.6348" x="456.9165" y="153.0449">(HandTracker.process)</text><polygon fill="#F1F1F1" points="463.3911,185.875,587.0767,185.875,599.0767,197.875,587.0767,209.875,463.3911,209.875,451.3911,197.875,463.3911,185.875" style="stroke:#181818;stroke-width:0.5;"/><text fill="#000000" font-family="sans-serif" font-size="11" lengthAdjust="spacing" textLength="123.6855" x="463.3911" y="201.6831">Main droite d&#233;tect&#233;e ?</text><text fill="#000000" font-family="sans-serif" font-size="11" lengthAdjust="spacing" textLength="16.7578" x="434.6333" y="195.2808">oui</text><text fill="#000000" font-family="sans-serif" font-size="11" lengthAdjust="spacing" textLength="20.6733" x="599.0767" y="195.2808">non</text><rect fill="#F1F1F1" height="47.9375" rx="12.5" ry="12.5" style="stroke:#181818;stroke-width:0.5;" width="269.498" x="165.2295" y="219.875"/><text fill="#000000" font-family="sans-serif" font-size="12" lengthAdjust="spacing" textLength="147.4805" x="175.2295" y="241.0137">Extraire caract&#233;ristiques</text><text fill="#000000" font-family="sans-serif" font-size="12" lengthAdjust="spacing" textLength="249.498" x="175.2295" y="254.9824">(FeatureExtractor.extract_hand_features)</text><rect fill="#F1F1F1" height="47.9375" rx="12.5" ry="12.5" style="stroke:#181818;stroke-width:0.5;" width="179.3867" x="210.2852" y="287.8125"/><text fill="#000000" font-family="sans-serif" font-size="12" lengthAdjust="spacing" textLength="152.3262" x="220.2852" y="308.9512">Analyser caract&#233;ristiques</text><text fill="#000000" font-family="sans-serif" font-size="12" lengthAdjust="spacing" textLength="159.3867" x="220.2852" y="322.9199">(GestureAnalyzer.analyze)</text><polygon fill="#F1F1F1" points="180.2756,355.75,419.6814,355.75,431.6814,368.5547,419.6814,381.3594,180.2756,381.3594,168.2756,368.5547,180.2756,355.75" style="stroke:#181818;stroke-width:0.5;"/><text fill="#000000" font-family="sans-serif" font-size="11" lengthAdjust="spacing" textLength="86.8936" x="180.2756" y="365.9604">Geste d&#233;tect&#233; ?</text><text fill="#000000" font-family="sans-serif" font-size="11" lengthAdjust="spacing" textLength="239.4058" x="180.2756" y="378.7651">Ex. pinky_raised, delta_y &gt; scroll_threshold</text><text fill="#000000" font-family="sans-serif" font-size="11" lengthAdjust="spacing" textLength="16.7578" x="151.5178" y="365.9604">oui</text><text fill="#000000" font-family="sans-serif" font-size="11" lengthAdjust="spacing" textLength="20.6733" x="431.6814" y="365.9604">non</text><rect fill="#F1F1F1" height="47.9375" rx="12.5" ry="12.5" style="stroke:#181818;stroke-width:0.5;" width="179.9668" x="61.6426" y="391.3594"/><text fill="#000000" font-family="sans-serif" font-size="12" lengthAdjust="spacing" textLength="91.9336" x="71.6426" y="412.498">Classifier geste</text><text fill="#000000" font-family="sans-serif" font-size="12" lengthAdjust="spacing" textLength="159.9668" x="71.6426" y="426.4668">(GestureClassifier.classify)</text><rect fill="#F1F1F1" height="47.9375" rx="12.5" ry="12.5" style="stroke:#181818;stroke-width:0.5;" width="281.252" x="11" y="459.2969"/><text fill="#000000" font-family="sans-serif" font-size="12" lengthAdjust="spacing" textLength="126.7852" x="21" y="480.4355">Mettre &#224; jour curseur</text><text fill="#000000" font-family="sans-serif" font-size="12" lengthAdjust="spacing" textLength="261.252" x="21" y="494.4043">(CursorController.update, PyAutoGUI.scroll)</text><rect fill="#F1F1F1" height="47.9375" rx="12.5" ry="12.5" style="stroke:#181818;stroke-width:0.5;" width="216.7754" x="43.2383" y="527.2344"/><text fill="#000000" font-family="sans-serif" font-size="12" lengthAdjust="spacing" textLength="196.7754" x="53.2383" y="548.373">&#201;mettre signal gesture_detected</text><text fill="#000000" font-family="sans-serif" font-size="12" lengthAdjust="spacing" textLength="85.4707" x="53.2383" y="562.3418">(VideoThread)</text><rect fill="#F1F1F1" height="47.9375" rx="12.5" ry="12.5" style="stroke:#181818;stroke-width:0.5;" width="246.4355" x="28.4082" y="595.1719"/><text fill="#000000" font-family="sans-serif" font-size="12" lengthAdjust="spacing" textLength="116.8008" x="38.4082" y="616.3105">Mettre &#224; jour statut</text><text fill="#000000" font-family="sans-serif" font-size="12" lengthAdjust="spacing" textLength="226.4355" x="38.4082" y="630.2793">(MainWindow.update_gesture_status)</text><rect fill="#F1F1F1" height="47.9375" rx="12.5" ry="12.5" style="stroke:#181818;stroke-width:0.5;" width="272.1582" x="312.252" y="391.3594"/><text fill="#000000" font-family="sans-serif" font-size="12" lengthAdjust="spacing" textLength="252.1582" x="322.252" y="412.498">&#201;mettre signal gesture_detected("NONE")</text><text fill="#000000" font-family="sans-serif" font-size="12" lengthAdjust="spacing" textLength="85.4707" x="322.252" y="426.4668">(VideoThread)</text><rect fill="#F1F1F1" height="47.9375" rx="12.5" ry="12.5" style="stroke:#181818;stroke-width:0.5;" width="136.8008" x="379.9307" y="459.2969"/><text fill="#000000" font-family="sans-serif" font-size="12" lengthAdjust="spacing" textLength="116.8008" x="389.9307" y="480.4355">Mettre &#224; jour statut</text><text fill="#000000" font-family="sans-serif" font-size="12" lengthAdjust="spacing" textLength="95.1797" x="389.9307" y="494.4043">("Aucun geste")</text><polygon fill="#F1F1F1" points="299.9785,649.1094,311.9785,661.1094,299.9785,673.1094,287.9785,661.1094,299.9785,649.1094" style="stroke:#181818;stroke-width:0.5;"/><rect fill="#F1F1F1" height="47.9375" rx="12.5" ry="12.5" style="stroke:#181818;stroke-width:0.5;" width="272.1582" x="614.4102" y="219.875"/><text fill="#000000" font-family="sans-serif" font-size="12" lengthAdjust="spacing" textLength="252.1582" x="624.4102" y="241.0137">&#201;mettre signal gesture_detected("NONE")</text><text fill="#000000" font-family="sans-serif" font-size="12" lengthAdjust="spacing" textLength="85.4707" x="624.4102" y="254.9824">(VideoThread)</text><rect fill="#F1F1F1" height="47.9375" rx="12.5" ry="12.5" style="stroke:#181818;stroke-width:0.5;" width="136.8008" x="682.0889" y="287.8125"/><text fill="#000000" font-family="sans-serif" font-size="12" lengthAdjust="spacing" textLength="116.8008" x="692.0889" y="308.9512">Mettre &#224; jour statut</text><text fill="#000000" font-family="sans-serif" font-size="12" lengthAdjust="spacing" textLength="95.1797" x="692.0889" y="322.9199">("Aucun geste")</text><polygon fill="#F1F1F1" points="525.2339,679.1094,537.2339,691.1094,525.2339,703.1094,513.2339,691.1094,525.2339,679.1094" style="stroke:#181818;stroke-width:0.5;"/><ellipse cx="525.2339" cy="734.1094" fill="none" rx="11" ry="11" style="stroke:#222222;stroke-width:1;"/><ellipse cx="525.2339" cy="734.1094" fill="#222222" rx="6" ry="6" style="stroke:#222222;stroke-width:1;"/><line style="stroke:#181818;stroke-width:1;" x1="525.2339" x2="525.2339" y1="30" y2="50"/><polygon fill="#181818" points="521.2339,40,525.2339,50,529.2339,40,525.2339,44" style="stroke:#181818;stroke-width:1;"/><line style="stroke:#181818;stroke-width:1;" x1="525.2339" x2="525.2339" y1="97.9375" y2="117.9375"/><polygon fill="#181818" points="521.2339,107.9375,525.2339,117.9375,529.2339,107.9375,525.2339,111.9375" style="stroke:#181818;stroke-width:1;"/><line style="stroke:#181818;stroke-width:1;" x1="299.9785" x2="299.9785" y1="267.8125" y2="287.8125"/><polygon fill="#181818" points="295.9785,277.8125,299.9785,287.8125,303.9785,277.8125,299.9785,281.8125" style="stroke:#181818;stroke-width:1;"/><line style="stroke:#181818;stroke-width:1;" x1="151.626" x2="151.626" y1="439.2969" y2="459.2969"/><polygon fill="#181818" points="147.626,449.2969,151.626,459.2969,155.626,449.2969,151.626,453.2969" style="stroke:#181818;stroke-width:1;"/><line style="stroke:#181818;stroke-width:1;" x1="151.626" x2="151.626" y1="507.2344" y2="527.2344"/><polygon fill="#181818" points="147.626,517.2344,151.626,527.2344,155.626,517.2344,151.626,521.2344" style="stroke:#181818;stroke-width:1;"/><line style="stroke:#181818;stroke-width:1;" x1="151.626" x2="151.626" y1="575.1719" y2="595.1719"/><polygon fill="#181818" points="147.626,585.1719,151.626,595.1719,155.626,585.1719,151.626,589.1719" style="stroke:#181818;stroke-width:1;"/><line style="stroke:#181818;stroke-width:1;" x1="448.3311" x2="448.3311" y1="439.2969" y2="459.2969"/><polygon fill="#181818" points="444.3311,449.2969,448.3311,459.2969,452.3311,449.2969,448.3311,453.2969" style="stroke:#181818;stroke-width:1;"/><line style="stroke:#181818;stroke-width:1;" x1="168.2756" x2="151.626" y1="368.5547" y2="368.5547"/><line style="stroke:#181818;stroke-width:1;" x1="151.626" x2="151.626" y1="368.5547" y2="391.3594"/><polygon fill="#181818" points="147.626,381.3594,151.626,391.3594,155.626,381.3594,151.626,385.3594" style="stroke:#181818;stroke-width:1;"/><line style="stroke:#181818;stroke-width:1;" x1="431.6814" x2="448.3311" y1="368.5547" y2="368.5547"/><line style="stroke:#181818;stroke-width:1;" x1="448.3311" x2="448.3311" y1="368.5547" y2="391.3594"/><polygon fill="#181818" points="444.3311,381.3594,448.3311,391.3594,452.3311,381.3594,448.3311,385.3594" style="stroke:#181818;stroke-width:1;"/><line style="stroke:#181818;stroke-width:1;" x1="151.626" x2="151.626" y1="643.1094" y2="661.1094"/><line style="stroke:#181818;stroke-width:1;" x1="151.626" x2="287.9785" y1="661.1094" y2="661.1094"/><polygon fill="#181818" points="277.9785,657.1094,287.9785,661.1094,277.9785,665.1094,281.9785,661.1094" style="stroke:#181818;stroke-width:1;"/><line style="stroke:#181818;stroke-width:1;" x1="448.3311" x2="448.3311" y1="507.2344" y2="661.1094"/><line style="stroke:#181818;stroke-width:1;" x1="448.3311" x2="311.9785" y1="661.1094" y2="661.1094"/><polygon fill="#181818" points="321.9785,657.1094,311.9785,661.1094,321.9785,665.1094,317.9785,661.1094" style="stroke:#181818;stroke-width:1;"/><line style="stroke:#181818;stroke-width:1;" x1="299.9785" x2="299.9785" y1="335.75" y2="355.75"/><polygon fill="#181818" points="295.9785,345.75,299.9785,355.75,303.9785,345.75,299.9785,349.75" style="stroke:#181818;stroke-width:1;"/><line style="stroke:#181818;stroke-width:1;" x1="750.4893" x2="750.4893" y1="267.8125" y2="287.8125"/><polygon fill="#181818" points="746.4893,277.8125,750.4893,287.8125,754.4893,277.8125,750.4893,281.8125" style="stroke:#181818;stroke-width:1;"/><line style="stroke:#181818;stroke-width:1;" x1="451.3911" x2="299.9785" y1="197.875" y2="197.875"/><line style="stroke:#181818;stroke-width:1;" x1="299.9785" x2="299.9785" y1="197.875" y2="219.875"/><polygon fill="#181818" points="295.9785,209.875,299.9785,219.875,303.9785,209.875,299.9785,213.875" style="stroke:#181818;stroke-width:1;"/><line style="stroke:#181818;stroke-width:1;" x1="599.0767" x2="750.4893" y1="197.875" y2="197.875"/><line style="stroke:#181818;stroke-width:1;" x1="750.4893" x2="750.4893" y1="197.875" y2="219.875"/><polygon fill="#181818" points="746.4893,209.875,750.4893,219.875,754.4893,209.875,750.4893,213.875" style="stroke:#181818;stroke-width:1;"/><line style="stroke:#181818;stroke-width:1;" x1="299.9785" x2="299.9785" y1="673.1094" y2="691.1094"/><line style="stroke:#181818;stroke-width:1;" x1="299.9785" x2="513.2339" y1="691.1094" y2="691.1094"/><polygon fill="#181818" points="503.2339,687.1094,513.2339,691.1094,503.2339,695.1094,507.2339,691.1094" style="stroke:#181818;stroke-width:1;"/><line style="stroke:#181818;stroke-width:1;" x1="750.4893" x2="750.4893" y1="335.75" y2="691.1094"/><line style="stroke:#181818;stroke-width:1;" x1="750.4893" x2="537.2339" y1="691.1094" y2="691.1094"/><polygon fill="#181818" points="547.2339,687.1094,537.2339,691.1094,547.2339,695.1094,543.2339,691.1094" style="stroke:#181818;stroke-width:1;"/><line style="stroke:#181818;stroke-width:1;" x1="525.2339" x2="525.2339" y1="165.875" y2="185.875"/><polygon fill="#181818" points="521.2339,175.875,525.2339,185.875,529.2339,175.875,525.2339,179.875" style="stroke:#181818;stroke-width:1;"/><line style="stroke:#181818;stroke-width:1;" x1="525.2339" x2="525.2339" y1="703.1094" y2="723.1094"/><polygon fill="#181818" points="521.2339,713.1094,525.2339,723.1094,529.2339,713.1094,525.2339,717.1094" style="stroke:#181818;stroke-width:1;"/><!--SRC=[fP71IWCn48Rl-nH3JxiWU_1OmL9AhHwi7gfUX2KaqpQw9cioqQvlu5juzJdwOausBLPHg0Xx67R- -Vzl9fw4eophZqH3mQ43_I0MU6jo-NHONck5TjCfZhB-p0bDEvfJOHJ_a_VeoiPPYTwpBDDpoC-5Dg2SPJsezJkXfFKxmg00MgA1t0PTP03zyOhOr258mKQiSTgJVWpesVy4HOpkD9AiAp5LrPA3gtdgnaWs6XfHjvxXVZAQe8_IJlF2i28LtIH_4JXATb1XS6l6gn8QRUxRYX4zgWDGM9EeMZW6BvsjwugM3B2qjVgs5mEDQk6zdcj6MaJlJupFJYbJsNOaF7IEH7oCzHlSsS2x1ESnE1uTSMNTo1gAkJmP6YK83-2o7GQoawkpCY5jdTQl3ydBwmLlsp5mTgKmBeYAFRlddV46GlsIxubFJ2oDptcZZRBFc-1gwzT9qXjWxH5oOqsn7qBUcrvCnxtYRoYzOP31f9lsKgvHUfvzIVzFzjx9AJVpP9iF]--></g></svg>