<svg xmlns="http://www.w3.org/2000/svg" xmlns:xlink="http://www.w3.org/1999/xlink" contentStyleType="text/css" data-diagram-type="CLASS" height="516px" preserveAspectRatio="none" style="width:331px;height:516px;background:#FFFFFF;" version="1.1" viewBox="0 0 331 516" width="331px" zoomAndPan="magnify"><defs/><g><!--class DataLoader--><g class="entity" data-entity="DataLoader" data-source-line="1" data-uid="ent0002" id="entity_DataLoader"><rect fill="#F1F1F1" height="80.5938" rx="2.5" ry="2.5" style="stroke:#181818;stroke-width:0.5;" width="317.9424" x="7" y="7"/><ellipse cx="120.9072" cy="23" fill="#ADD1B2" rx="11" ry="11" style="stroke:#181818;stroke-width:1;"/><path d="M123.876,28.6406 Q123.2979,28.9375 122.6572,29.0781 Q122.0166,29.2344 121.3135,29.2344 Q118.8135,29.2344 117.4854,27.5938 Q116.1729,25.9375 116.1729,22.8125 Q116.1729,19.6875 117.4854,18.0313 Q118.8135,16.375 121.3135,16.375 Q122.0166,16.375 122.6572,16.5313 Q123.3135,16.6875 123.876,16.9844 L123.876,19.7031 Q123.251,19.125 122.6572,18.8594 Q122.0635,18.5781 121.4385,18.5781 Q120.0947,18.5781 119.4072,19.6563 Q118.7197,20.7188 118.7197,22.8125 Q118.7197,24.9063 119.4072,25.9844 Q120.0947,27.0469 121.4385,27.0469 Q122.0635,27.0469 122.6572,26.7813 Q123.251,26.5 123.876,25.9219 L123.876,28.6406 Z " fill="#000000"/><text fill="#000000" font-family="sans-serif" font-size="14" lengthAdjust="spacing" textLength="81.6279" x="141.4072" y="27.8467">DataLoader</text><line style="stroke:#181818;stroke-width:0.5;" x1="8" x2="323.9424" y1="39" y2="39"/><line style="stroke:#181818;stroke-width:0.5;" x1="8" x2="323.9424" y1="47" y2="47"/><ellipse cx="18" cy="60.6484" fill="#84BE84" rx="3" ry="3" style="stroke:#038048;stroke-width:1;"/><text fill="#000000" font-family="sans-serif" font-size="14" lengthAdjust="spacing" textLength="291.9424" x="27" y="63.9951">fetch_indicator(id, start, end): DataFrame</text><ellipse cx="18" cy="76.9453" fill="#84BE84" rx="3" ry="3" style="stroke:#038048;stroke-width:1;"/><text fill="#000000" font-family="sans-serif" font-size="14" lengthAdjust="spacing" textLength="167.3096" x="27" y="80.292">save_csv(df, path): void</text></g><!--class Preprocessor--><g class="entity" data-entity="Preprocessor" data-source-line="5" data-uid="ent0003" id="entity_Preprocessor"><rect fill="#F1F1F1" height="80.5938" rx="2.5" ry="2.5" style="stroke:#181818;stroke-width:0.5;" width="203.2422" x="64.35" y="147.6"/><ellipse cx="116.1015" cy="163.6" fill="#ADD1B2" rx="11" ry="11" style="stroke:#181818;stroke-width:1;"/><path d="M119.0702,169.2406 Q118.4921,169.5375 117.8515,169.6781 Q117.2108,169.8344 116.5077,169.8344 Q114.0077,169.8344 112.6796,168.1938 Q111.3671,166.5375 111.3671,163.4125 Q111.3671,160.2875 112.6796,158.6313 Q114.0077,156.975 116.5077,156.975 Q117.2108,156.975 117.8515,157.1313 Q118.5077,157.2875 119.0702,157.5844 L119.0702,160.3031 Q118.4452,159.725 117.8515,159.4594 Q117.2577,159.1781 116.6327,159.1781 Q115.289,159.1781 114.6015,160.2563 Q113.914,161.3188 113.914,163.4125 Q113.914,165.5063 114.6015,166.5844 Q115.289,167.6469 116.6327,167.6469 Q117.2577,167.6469 117.8515,167.3813 Q118.4452,167.1 119.0702,166.5219 L119.0702,169.2406 Z " fill="#000000"/><text fill="#000000" font-family="sans-serif" font-size="14" lengthAdjust="spacing" textLength="91.2393" x="136.6015" y="168.4467">Preprocessor</text><line style="stroke:#181818;stroke-width:0.5;" x1="65.35" x2="266.5922" y1="179.6" y2="179.6"/><line style="stroke:#181818;stroke-width:0.5;" x1="65.35" x2="266.5922" y1="187.6" y2="187.6"/><ellipse cx="75.35" cy="201.2484" fill="#84BE84" rx="3" ry="3" style="stroke:#038048;stroke-width:1;"/><text fill="#000000" font-family="sans-serif" font-size="14" lengthAdjust="spacing" textLength="149.625" x="84.35" y="204.5951">clean(df): DataFrame</text><ellipse cx="75.35" cy="217.5453" fill="#84BE84" rx="3" ry="3" style="stroke:#038048;stroke-width:1;"/><text fill="#000000" font-family="sans-serif" font-size="14" lengthAdjust="spacing" textLength="177.2422" x="84.35" y="220.892">resample(df): DataFrame</text></g><!--class FeatureEngineer--><g class="entity" data-entity="FeatureEngineer" data-source-line="9" data-uid="ent0004" id="entity_FeatureEngineer"><rect fill="#F1F1F1" height="80.5938" rx="2.5" ry="2.5" style="stroke:#181818;stroke-width:0.5;" width="220.4688" x="55.74" y="288.19"/><ellipse cx="103.5608" cy="304.19" fill="#ADD1B2" rx="11" ry="11" style="stroke:#181818;stroke-width:1;"/><path d="M106.5296,309.8306 Q105.9514,310.1275 105.3108,310.2681 Q104.6702,310.4244 103.9671,310.4244 Q101.4671,310.4244 100.1389,308.7838 Q98.8264,307.1275 98.8264,304.0025 Q98.8264,300.8775 100.1389,299.2213 Q101.4671,297.565 103.9671,297.565 Q104.6702,297.565 105.3108,297.7213 Q105.9671,297.8775 106.5296,298.1744 L106.5296,300.8931 Q105.9046,300.315 105.3108,300.0494 Q104.7171,299.7681 104.0921,299.7681 Q102.7483,299.7681 102.0608,300.8463 Q101.3733,301.9088 101.3733,304.0025 Q101.3733,306.0963 102.0608,307.1744 Q102.7483,308.2369 104.0921,308.2369 Q104.7171,308.2369 105.3108,307.9713 Q105.9046,307.69 106.5296,307.1119 L106.5296,309.8306 Z " fill="#000000"/><text fill="#000000" font-family="sans-serif" font-size="14" lengthAdjust="spacing" textLength="116.3271" x="124.0608" y="309.0367">FeatureEngineer</text><line style="stroke:#181818;stroke-width:0.5;" x1="56.74" x2="275.2088" y1="320.19" y2="320.19"/><line style="stroke:#181818;stroke-width:0.5;" x1="56.74" x2="275.2088" y1="328.19" y2="328.19"/><ellipse cx="66.74" cy="341.8384" fill="#84BE84" rx="3" ry="3" style="stroke:#038048;stroke-width:1;"/><text fill="#000000" font-family="sans-serif" font-size="14" lengthAdjust="spacing" textLength="173.9746" x="75.74" y="345.1851">add_lags(df): DataFrame</text><ellipse cx="66.74" cy="358.1353" fill="#84BE84" rx="3" ry="3" style="stroke:#038048;stroke-width:1;"/><text fill="#000000" font-family="sans-serif" font-size="14" lengthAdjust="spacing" textLength="194.4688" x="75.74" y="361.482">add_indices(df): DataFrame</text></g><!--class ModelTrainer--><g class="entity" data-entity="ModelTrainer" data-source-line="13" data-uid="ent0005" id="entity_ModelTrainer"><rect fill="#F1F1F1" height="80.5938" rx="2.5" ry="2.5" style="stroke:#181818;stroke-width:0.5;" width="214.7813" x="58.58" y="428.79"/><ellipse cx="115.6943" cy="444.79" fill="#ADD1B2" rx="11" ry="11" style="stroke:#181818;stroke-width:1;"/><path d="M118.663,450.4306 Q118.0849,450.7275 117.4443,450.8681 Q116.8036,451.0244 116.1005,451.0244 Q113.6005,451.0244 112.2724,449.3837 Q110.9599,447.7275 110.9599,444.6025 Q110.9599,441.4775 112.2724,439.8212 Q113.6005,438.165 116.1005,438.165 Q116.8036,438.165 117.4443,438.3212 Q118.1005,438.4775 118.663,438.7744 L118.663,441.4931 Q118.038,440.915 117.4443,440.6494 Q116.8505,440.3681 116.2255,440.3681 Q114.8818,440.3681 114.1943,441.4462 Q113.5068,442.5087 113.5068,444.6025 Q113.5068,446.6962 114.1943,447.7744 Q114.8818,448.8369 116.2255,448.8369 Q116.8505,448.8369 117.4443,448.5712 Q118.038,448.29 118.663,447.7119 L118.663,450.4306 Z " fill="#000000"/><text fill="#000000" font-family="sans-serif" font-size="14" lengthAdjust="spacing" textLength="92.0527" x="136.1943" y="449.6367">ModelTrainer</text><line style="stroke:#181818;stroke-width:0.5;" x1="59.58" x2="272.3613" y1="460.79" y2="460.79"/><line style="stroke:#181818;stroke-width:0.5;" x1="59.58" x2="272.3613" y1="468.79" y2="468.79"/><ellipse cx="69.58" cy="482.4384" fill="#84BE84" rx="3" ry="3" style="stroke:#038048;stroke-width:1;"/><text fill="#000000" font-family="sans-serif" font-size="14" lengthAdjust="spacing" textLength="171.0557" x="78.58" y="485.7851">train_baseline(X, y): dict</text><ellipse cx="69.58" cy="498.7353" fill="#84BE84" rx="3" ry="3" style="stroke:#038048;stroke-width:1;"/><text fill="#000000" font-family="sans-serif" font-size="14" lengthAdjust="spacing" textLength="188.7813" x="78.58" y="502.082">train_dl(X_seq, y_seq): dict</text></g><!--link DataLoader to Preprocessor--><g class="link" data-entity-1="DataLoader" data-entity-2="Preprocessor" data-source-line="17" data-uid="lnk6" id="link_DataLoader_Preprocessor"><path codeLine="17" d="M165.97,88.02 C165.97,106.57 165.97,122.62 165.97,141.17" fill="none" id="DataLoader-to-Preprocessor" style="stroke:#181818;stroke-width:1;"/><polygon fill="#181818" points="165.97,147.17,169.97,138.17,165.97,142.17,161.97,138.17,165.97,147.17" style="stroke:#181818;stroke-width:1;"/></g><!--link Preprocessor to FeatureEngineer--><g class="link" data-entity-1="Preprocessor" data-entity-2="FeatureEngineer" data-source-line="18" data-uid="lnk7" id="link_Preprocessor_FeatureEngineer"><path codeLine="18" d="M165.97,228.61 C165.97,247.17 165.97,263.21 165.97,281.77" fill="none" id="Preprocessor-to-FeatureEngineer" style="stroke:#181818;stroke-width:1;"/><polygon fill="#181818" points="165.97,287.77,169.97,278.77,165.97,282.77,161.97,278.77,165.97,287.77" style="stroke:#181818;stroke-width:1;"/></g><!--link FeatureEngineer to ModelTrainer--><g class="link" data-entity-1="FeatureEngineer" data-entity-2="ModelTrainer" data-source-line="19" data-uid="lnk8" id="link_FeatureEngineer_ModelTrainer"><path codeLine="19" d="M165.97,369.2 C165.97,387.76 165.97,403.8 165.97,422.36" fill="none" id="FeatureEngineer-to-ModelTrainer" style="stroke:#181818;stroke-width:1;"/><polygon fill="#181818" points="165.97,428.36,169.97,419.36,165.97,423.36,161.97,419.36,165.97,428.36" style="stroke:#181818;stroke-width:1;"/></g><!--SRC=[TP2nRW8n38RtF4N6Gnmlq849c5gfGmUsoCG68eNaiCr92F7k92TEXLCxMV7_-uj_-mWYTWKAdncGsDwCjVCzgJ-wa31uqCnDmDQA0cjhAU7iOnZOC9oekWLwSbxw1lUjxK2FnT3dWEPk_83_PkeuUnB9pmzy94Z5FqKn2PowI5Df96q8zCAqJeUGQDmM45s4W_p1gz8GW-G_v5T6YZyC1VZaQNsu7GZ5qcoshRsMoGBHNnLZitL2vwBLCkftytBAnMBv5jsytQ6gapXc6gzwNlTx0000]--></g></svg>