<svg xmlns="http://www.w3.org/2000/svg" xmlns:xlink="http://www.w3.org/1999/xlink" contentStyleType="text/css" data-diagram-type="CLASS" height="58px" preserveAspectRatio="none" style="width:618px;height:58px;background:#FFFFFF;" version="1.1" viewBox="0 0 618 58" width="618px" zoomAndPan="magnify"><defs/><g><g class="entity" data-entity="Dashboard" data-source-line="1" data-uid="ent0002" id="entity_Dashboard"><rect fill="#F1F1F1" height="36.2969" rx="2.5" ry="2.5" style="stroke:#181818;stroke-width:0.5;" width="90.2002" x="7" y="8.4159"/><text fill="#000000" font-family="sans-serif" font-size="14" lengthAdjust="spacing" textLength="76.2002" x="14" y="23.411">Dashboard</text><line style="stroke:#181818;stroke-width:0.5;" x1="8" x2="96.2002" y1="28.7128" y2="28.7128"/></g><g class="entity" data-entity="BestModelUtils" data-source-line="2" data-uid="ent0003" id="entity_BestModelUtils"><rect fill="#F1F1F1" height="36.2969" rx="2.5" ry="2.5" style="stroke:#181818;stroke-width:0.5;" width="117.8447" x="335.18" y="8.4159"/><text fill="#000000" font-family="sans-serif" font-size="14" lengthAdjust="spacing" textLength="103.8447" x="342.18" y="23.411">BestModelUtils</text><line style="stroke:#181818;stroke-width:0.5;" x1="336.18" x2="452.0247" y1="28.7128" y2="28.7128"/></g><g class="entity" data-entity="Model" data-source-line="3" data-uid="ent0004" id="entity_Model"><rect fill="#F1F1F1" height="36.2969" rx="2.5" ry="2.5" style="stroke:#181818;stroke-width:0.5;" width="56.0342" x="556.08" y="8.4159"/><text fill="#000000" font-family="sans-serif" font-size="14" lengthAdjust="spacing" textLength="42.0342" x="563.08" y="23.411">Model</text><line style="stroke:#181818;stroke-width:0.5;" x1="557.08" x2="611.1142" y1="28.7128" y2="28.7128"/></g><!--link Dashboard to BestModelUtils--><g class="link" data-entity-1="Dashboard" data-entity-2="BestModelUtils" data-source-line="4" data-uid="lnk5" id="link_Dashboard_BestModelUtils"><path codeLine="4" d="M97.52,26.5659 C158.57,26.5659 261.22,26.5659 328.7,26.5659" fill="none" id="Dashboard-to-BestModelUtils" style="stroke:#181818;stroke-width:1;"/><polygon fill="#181818" points="334.7,26.5659,325.7,22.5659,329.7,26.5659,325.7,30.5659,334.7,26.5659" style="stroke:#181818;stroke-width:1;"/><text fill="#000000" font-family="sans-serif" font-size="13" lengthAdjust="spacing" textLength="201.9697" x="115.69" y="19.6328">get_model_path(zone, horizon)</text></g><!--reverse link Dashboard to BestModelUtils--><g class="link" data-entity-1="Dashboard" data-entity-2="BestModelUtils" data-source-line="7" data-uid="lnk8" id="link_Dashboard_BestModelUtils"><path codeLine="7" d="M103.6035,35.5411 C131.6335,40.0611 162.41,44.2859 195.19,46.5659 C242.28,49.8359 295.47,43.9959 335,37.7859" fill="none" id="Dashboard-backto-BestModelUtils" style="stroke:#181818;stroke-width:1;"/><polygon fill="#181818" points="97.68,34.5859,105.9284,39.9677,102.6162,35.3819,107.202,32.0697,97.68,34.5859" style="stroke:#181818;stroke-width:1;"/><text fill="#000000" font-family="sans-serif" font-size="13" lengthAdjust="spacing" textLength="40.479" x="196.19" y="42.6328">model</text></g><!--link BestModelUtils to Model--><g class="link" data-entity-1="BestModelUtils" data-entity-2="Model" data-source-line="5" data-uid="lnk6" id="link_BestModelUtils_Model"><path codeLine="5" d="M453.44,26.5659 C487.52,26.5659 522.76,26.5659 549.67,26.5659" fill="none" id="BestModelUtils-to-Model" style="stroke:#181818;stroke-width:1;"/><polygon fill="#181818" points="555.67,26.5659,546.67,22.5659,550.67,26.5659,546.67,30.5659,555.67,26.5659" style="stroke:#181818;stroke-width:1;"/><text fill="#000000" font-family="sans-serif" font-size="13" lengthAdjust="spacing" textLength="67.4819" x="471.05" y="19.6328">load(path)</text></g><!--reverse link BestModelUtils to Model--><g class="link" data-entity-1="BestModelUtils" data-entity-2="Model" data-source-line="6" data-uid="lnk7" id="link_BestModelUtils_Model"><path codeLine="6" d="M459.3353,44.8934 C484.0353,49.7934 507.07,51.4759 533.05,46.5659 C540.63,45.1359 548.52,42.6059 555.77,39.8159" fill="none" id="BestModelUtils-backto-Model" style="stroke:#181818;stroke-width:1;"/><polygon fill="#181818" points="453.45,43.7259,461.4996,49.4008,458.3544,44.6989,463.0563,41.5537,453.45,43.7259" style="stroke:#181818;stroke-width:1;"/><text fill="#000000" font-family="sans-serif" font-size="13" lengthAdjust="spacing" textLength="55.0723" x="477.05" y="42.6328">instance</text></g><!--SRC=[oq_AIaqkKN19BCv8oayiIk7AXmWufHQN-EQdfEQ4bcJc5CD4mI9SSCKAkdPe2gqKqbDBudD1_FY2n98CZQhyl5GTXOpyeamWIvCBLJL8FvXdfP2JdvYY0TA1eSP6LnUcA3Elk2GnBpaLoGKWMNGdWAq70000]--></g></svg>