<svg xmlns="http://www.w3.org/2000/svg" xmlns:xlink="http://www.w3.org/1999/xlink" contentStyleType="text/css" data-diagram-type="DESCRIPTION" height="458px" preserveAspectRatio="none" style="width:1339px;height:458px;background:#FFFFFF;" version="1.1" viewBox="0 0 1339 458" width="1339px" zoomAndPan="magnify"><defs/><g><!--cluster Gesture-Control Application--><g class="cluster" data-entity="Gesture-Control Application" data-source-line="1" data-uid="ent0002" id="cluster_Gesture-Control Application"><path d="M8.5,6 L229.7334,6 A3.75,3.75 0 0 1 232.2334,8.5 L239.2334,28.2969 L275.5,28.2969 A2.5,2.5 0 0 1 278,30.7969 L278,340.49 A2.5,2.5 0 0 1 275.5,342.99 L8.5,342.99 A2.5,2.5 0 0 1 6,340.49 L6,8.5 A2.5,2.5 0 0 1 8.5,6" fill="none" style="stroke:#000000;stroke-width:1.5;"/><line style="stroke:#000000;stroke-width:1.5;" x1="6" x2="239.2334" y1="28.2969" y2="28.2969"/><text fill="#000000" font-family="sans-serif" font-size="14" font-weight="bold" lengthAdjust="spacing" textLength="220.2334" x="10" y="20.9951">Gesture-Control Application</text></g><!--entity Interface--><g class="entity" data-entity="Interface" data-source-line="2" data-uid="ent0003" id="entity_Interface"><rect fill="#F1F1F1" height="46.2969" rx="2.5" ry="2.5" style="stroke:#181818;stroke-width:0.5;" width="102.6787" x="157.66" y="41"/><rect fill="#F1F1F1" height="10" style="stroke:#181818;stroke-width:0.5;" width="15" x="240.3387" y="46"/><rect fill="#F1F1F1" height="2" style="stroke:#181818;stroke-width:0.5;" width="4" x="238.3387" y="48"/><rect fill="#F1F1F1" height="2" style="stroke:#181818;stroke-width:0.5;" width="4" x="238.3387" y="52"/><text fill="#000000" font-family="sans-serif" font-size="14" lengthAdjust="spacing" textLength="62.6787" x="172.66" y="73.9951">Interface</text></g><!--entity Core--><g class="entity" data-entity="Core" data-source-line="2" data-uid="ent0004" id="entity_Core"><rect fill="#F1F1F1" height="46.2969" rx="2.5" ry="2.5" style="stroke:#181818;stroke-width:0.5;" width="72.71" x="58.65" y="152.85"/><rect fill="#F1F1F1" height="10" style="stroke:#181818;stroke-width:0.5;" width="15" x="111.36" y="157.85"/><rect fill="#F1F1F1" height="2" style="stroke:#181818;stroke-width:0.5;" width="4" x="109.36" y="159.85"/><rect fill="#F1F1F1" height="2" style="stroke:#181818;stroke-width:0.5;" width="4" x="109.36" y="163.85"/><text fill="#000000" font-family="sans-serif" font-size="14" lengthAdjust="spacing" textLength="32.71" x="73.65" y="185.8451">Core</text></g><!--entity Utils--><g class="entity" data-entity="Utils" data-source-line="3" data-uid="ent0006" id="entity_Utils"><rect fill="#F1F1F1" height="46.2969" rx="2.5" ry="2.5" style="stroke:#181818;stroke-width:0.5;" width="70.8096" x="124.6" y="280.7"/><rect fill="#F1F1F1" height="10" style="stroke:#181818;stroke-width:0.5;" width="15" x="175.4096" y="285.7"/><rect fill="#F1F1F1" height="2" style="stroke:#181818;stroke-width:0.5;" width="4" x="173.4096" y="287.7"/><rect fill="#F1F1F1" height="2" style="stroke:#181818;stroke-width:0.5;" width="4" x="173.4096" y="291.7"/><text fill="#000000" font-family="sans-serif" font-size="14" lengthAdjust="spacing" textLength="30.8096" x="139.6" y="313.6951">Utils</text></g><!--entity Chatbot--><g class="entity" data-entity="Chatbot" data-source-line="4" data-uid="ent0008" id="entity_Chatbot"><rect fill="#F1F1F1" height="46.2969" rx="2.5" ry="2.5" style="stroke:#181818;stroke-width:0.5;" width="95.6582" x="166.17" y="152.85"/><rect fill="#F1F1F1" height="10" style="stroke:#181818;stroke-width:0.5;" width="15" x="241.8282" y="157.85"/><rect fill="#F1F1F1" height="2" style="stroke:#181818;stroke-width:0.5;" width="4" x="239.8282" y="159.85"/><rect fill="#F1F1F1" height="2" style="stroke:#181818;stroke-width:0.5;" width="4" x="239.8282" y="163.85"/><text fill="#000000" font-family="sans-serif" font-size="14" lengthAdjust="spacing" textLength="55.6582" x="181.17" y="185.8451">Chatbot</text></g><!--entity PyQt5--><g class="entity" data-entity="PyQt5" data-source-line="8" data-uid="ent0011" id="entity_PyQt5"><rect fill="#F1F1F1" height="46.2969" rx="2.5" ry="2.5" style="stroke:#181818;stroke-width:0.5;" width="82.1436" x="699.93" y="280.7"/><rect fill="#F1F1F1" height="10" style="stroke:#181818;stroke-width:0.5;" width="15" x="762.0736" y="285.7"/><rect fill="#F1F1F1" height="2" style="stroke:#181818;stroke-width:0.5;" width="4" x="760.0736" y="287.7"/><rect fill="#F1F1F1" height="2" style="stroke:#181818;stroke-width:0.5;" width="4" x="760.0736" y="291.7"/><text fill="#000000" font-family="sans-serif" font-size="14" lengthAdjust="spacing" textLength="42.1436" x="714.93" y="313.6951">PyQt5</text></g><!--entity MediaPipe--><g class="entity" data-entity="MediaPipe" data-source-line="9" data-uid="ent0013" id="entity_MediaPipe"><rect fill="#F1F1F1" height="46.2969" rx="2.5" ry="2.5" style="stroke:#181818;stroke-width:0.5;" width="111.8799" x="294.06" y="280.7"/><rect fill="#F1F1F1" height="10" style="stroke:#181818;stroke-width:0.5;" width="15" x="385.9399" y="285.7"/><rect fill="#F1F1F1" height="2" style="stroke:#181818;stroke-width:0.5;" width="4" x="383.9399" y="287.7"/><rect fill="#F1F1F1" height="2" style="stroke:#181818;stroke-width:0.5;" width="4" x="383.9399" y="291.7"/><text fill="#000000" font-family="sans-serif" font-size="14" lengthAdjust="spacing" textLength="71.8799" x="309.06" y="313.6951">MediaPipe</text></g><!--entity OpenCV--><g class="entity" data-entity="OpenCV" data-source-line="10" data-uid="ent0015" id="entity_OpenCV"><rect fill="#F1F1F1" height="46.2969" rx="2.5" ry="2.5" style="stroke:#181818;stroke-width:0.5;" width="96.7451" x="301.63" y="405.99"/><rect fill="#F1F1F1" height="10" style="stroke:#181818;stroke-width:0.5;" width="15" x="378.3751" y="410.99"/><rect fill="#F1F1F1" height="2" style="stroke:#181818;stroke-width:0.5;" width="4" x="376.3751" y="412.99"/><rect fill="#F1F1F1" height="2" style="stroke:#181818;stroke-width:0.5;" width="4" x="376.3751" y="416.99"/><text fill="#000000" font-family="sans-serif" font-size="14" lengthAdjust="spacing" textLength="56.7451" x="316.63" y="438.9851">OpenCV</text></g><!--entity PyAutoGUI--><g class="entity" data-entity="PyAutoGUI" data-source-line="11" data-uid="ent0017" id="entity_PyAutoGUI"><rect fill="#F1F1F1" height="46.2969" rx="2.5" ry="2.5" style="stroke:#181818;stroke-width:0.5;" width="114.457" x="550.77" y="280.7"/><rect fill="#F1F1F1" height="10" style="stroke:#181818;stroke-width:0.5;" width="15" x="645.227" y="285.7"/><rect fill="#F1F1F1" height="2" style="stroke:#181818;stroke-width:0.5;" width="4" x="643.227" y="287.7"/><rect fill="#F1F1F1" height="2" style="stroke:#181818;stroke-width:0.5;" width="4" x="643.227" y="291.7"/><text fill="#000000" font-family="sans-serif" font-size="14" lengthAdjust="spacing" textLength="74.457" x="565.77" y="313.6951">PyAutoGUI</text></g><g class="entity" data-entity="GMN21" data-source-line="16" data-uid="ent0022" id="entity_GMN21"><path d="M295.07,44.02 L295.07,60.15 L260.65,64.15 L295.07,68.15 L295.07,84.2856 A0,0 0 0 0 295.07,84.2856 L552.9391,84.2856 A0,0 0 0 0 552.9391,84.2856 L552.9391,54.02 L542.9391,44.02 L295.07,44.02 A0,0 0 0 0 295.07,44.02" fill="#FEFFDD" style="stroke:#181818;stroke-width:0.5;"/><path d="M542.9391,44.02 L542.9391,54.02 L552.9391,54.02 L542.9391,44.02" fill="#FEFFDD" style="stroke:#181818;stroke-width:0.5;"/><text fill="#000000" font-family="sans-serif" font-size="13" lengthAdjust="spacing" textLength="236.8691" x="301.07" y="61.0869">Contient MainWindow, VideoThread,</text><text fill="#000000" font-family="sans-serif" font-size="13" lengthAdjust="spacing" textLength="105.6313" x="301.07" y="76.2197">CalibratorDialog</text></g><g class="entity" data-entity="GMN24" data-source-line="21" data-uid="ent0025" id="entity_GMN24"><path d="M751.9,148.3 L751.9,203.6984 L1008.1061,203.6984 L1008.1061,158.3 L998.1061,148.3 L751.9,148.3" fill="#FEFFDD" style="stroke:#181818;stroke-width:0.5;"/><path d="M998.1061,148.3 L998.1061,158.3 L1008.1061,158.3 L998.1061,148.3" fill="#FEFFDD" style="stroke:#181818;stroke-width:1;"/><text fill="#000000" font-family="sans-serif" font-size="13" lengthAdjust="spacing" textLength="235.2061" x="757.9" y="165.3669">Contient HandTracker, FaceTracker,</text><text fill="#000000" font-family="sans-serif" font-size="13" lengthAdjust="spacing" textLength="230.4707" x="757.9" y="180.4997">FeatureExtractor, GestureAnalyzer,</text><text fill="#000000" font-family="sans-serif" font-size="13" lengthAdjust="spacing" textLength="226.0972" x="757.9" y="195.6325">GestureClassifier, CursorController</text></g><g class="entity" data-entity="GMN27" data-source-line="27" data-uid="ent0028" id="entity_GMN27"><path d="M817.48,291.28 L817.48,316.4128 L1052.5293,316.4128 L1052.5293,301.28 L1042.5293,291.28 L817.48,291.28" fill="#FEFFDD" style="stroke:#181818;stroke-width:0.5;"/><path d="M1042.5293,291.28 L1042.5293,301.28 L1052.5293,301.28 L1042.5293,291.28" fill="#FEFFDD" style="stroke:#181818;stroke-width:1;"/><text fill="#000000" font-family="sans-serif" font-size="13" lengthAdjust="spacing" textLength="214.0493" x="823.48" y="308.3469">Contient Calibrator, KalmanFilter</text></g><g class="entity" data-entity="GMN30" data-source-line="31" data-uid="ent0031" id="entity_GMN30"><path d="M1043.55,163.43 L1043.55,188.5628 L1332.4528,188.5628 L1332.4528,173.43 L1322.4528,163.43 L1043.55,163.43" fill="#FEFFDD" style="stroke:#181818;stroke-width:0.5;"/><path d="M1322.4528,163.43 L1322.4528,173.43 L1332.4528,173.43 L1322.4528,163.43" fill="#FEFFDD" style="stroke:#181818;stroke-width:1;"/><text fill="#000000" font-family="sans-serif" font-size="13" lengthAdjust="spacing" textLength="267.9028" x="1049.55" y="180.4969">Contient FAQEngine, ResponseGenerator</text></g><!--link Interface to Core--><g class="link" data-entity-1="Interface" data-entity-2="Core" data-source-line="2" data-uid="lnk5" id="link_Interface_Core"><path d="M182.0592,91.1091 C162.3792,110.0691 142.3021,129.4283 122.6321,148.3683" fill="none" id="Interface-Core" style="stroke:#181818;stroke-width:1;"/><rect fill="#FFFFFF" height="10" style="stroke:#181818;stroke-width:1.5;" width="10" x="180.66" y="82.64"/><polygon fill="#181818" points="118.31,152.53,127.5676,149.1689,121.9117,149.0619,122.0187,143.4061,118.31,152.53" style="stroke:#181818;stroke-width:1;"/></g><!--link Interface to Utils--><g class="link" data-entity-1="Interface" data-entity-2="Utils" data-source-line="3" data-uid="lnk7" id="link_Interface_Utils"><path d="M152.469,76.756 C113.059,87.596 66.23,107.65 41,148.3 C9.3,199.36 73.6907,250.7162 119.2707,279.3762" fill="none" id="Interface-Utils" style="stroke:#181818;stroke-width:1;"/><rect fill="#FFFFFF" height="10" style="stroke:#181818;stroke-width:1.5;" width="10" x="152.29" y="70.43"/><polygon fill="#181818" points="124.35,282.57,118.8602,274.3931,120.1172,279.9085,114.6018,281.1655,124.35,282.57" style="stroke:#181818;stroke-width:1;"/></g><!--link Interface to Chatbot--><g class="link" data-entity-1="Interface" data-entity-2="Chatbot" data-source-line="4" data-uid="lnk9" id="link_Interface_Chatbot"><path d="M210.2492,92.6347 C211.1192,111.5947 211.8478,127.5962 212.7078,146.5362" fill="none" id="Interface-Chatbot" style="stroke:#181818;stroke-width:1;"/><rect fill="#FFFFFF" height="10" style="stroke:#181818;stroke-width:1.5;" width="10" x="205.02" y="82.64"/><polygon fill="#181818" points="212.98,152.53,216.5676,143.3578,212.7532,147.5351,208.5759,143.7207,212.98,152.53" style="stroke:#181818;stroke-width:1;"/></g><!--link Core to Utils--><g class="link" data-entity-1="Core" data-entity-2="Utils" data-source-line="5" data-uid="lnk10" id="link_Core_Utils"><path d="M108.9148,203.9423 C120.7448,226.8423 133.9378,252.3684 145.7278,275.2084" fill="none" id="Core-Utils" style="stroke:#181818;stroke-width:1;"/><rect fill="#FFFFFF" height="10" style="stroke:#181818;stroke-width:1.5;" width="10" x="101.62" y="194.5"/><polygon fill="#181818" points="148.48,280.54,147.9061,270.7079,146.1865,276.097,140.7974,274.3774,148.48,280.54" style="stroke:#181818;stroke-width:1;"/></g><!--link Interface to PyQt5--><g class="link" data-entity-1="Interface" data-entity-2="PyQt5" data-source-line="8" data-uid="lnk12" id="link_Interface_PyQt5"><path d="M265.308,83.9372 C366.998,118.2172 584.84,193.6 655,233.7 C677.79,246.72 696.3366,261.6114 712.8266,276.3514" fill="none" id="Interface-PyQt5" style="stroke:#181818;stroke-width:1;stroke-dasharray:7.0,7.0;"/><rect fill="#FFFFFF" height="10" style="stroke:#181818;stroke-width:1.5;" width="10" x="255.57" y="77.34"/><polygon fill="#181818" points="717.3,280.35,713.2557,271.3698,713.5722,277.0178,707.9242,277.3343,717.3,280.35" style="stroke:#181818;stroke-width:1;"/><text fill="#000000" font-family="sans-serif" font-size="13" lengthAdjust="spacing" textLength="38.9429" x="591" y="180.5669">utilise</text></g><!--link Core to MediaPipe--><g class="link" data-entity-1="Core" data-entity-2="MediaPipe" data-source-line="9" data-uid="lnk14" id="link_Core_MediaPipe"><path d="M136.0844,197.3114 C141.9044,200.1814 143.37,200.92 149,203.7 C202.2,229.97 257.9682,257.4774 298.7082,277.5574" fill="none" id="Core-MediaPipe" style="stroke:#181818;stroke-width:1;stroke-dasharray:7.0,7.0;"/><rect fill="#FFFFFF" height="10" style="stroke:#181818;stroke-width:1.5;" width="10" x="126.6" y="190.1"/><polygon fill="#181818" points="304.09,280.21,297.7857,272.6432,299.6052,277.9995,294.2489,279.819,304.09,280.21" style="stroke:#181818;stroke-width:1;"/><text fill="#000000" font-family="sans-serif" font-size="13" lengthAdjust="spacing" textLength="38.9429" x="243" y="246.7669">utilise</text></g><!--link Core to OpenCV--><g class="link" data-entity-1="Core" data-entity-2="OpenCV" data-source-line="10" data-uid="lnk16" id="link_Core_OpenCV"><path d="M136.2031,198.7182 C141.9031,201.3382 143.27,201.71 149,203.7 C268.49,245.21 349.96,177.42 423,280.7 C441.04,306.2 434.56,321.97 423,350.99 C414.34,372.75 400.8427,387.9903 384.8727,401.7703" fill="none" id="Core-OpenCV" style="stroke:#181818;stroke-width:1;stroke-dasharray:7.0,7.0;"/><rect fill="#FFFFFF" height="10" style="stroke:#181818;stroke-width:1.5;" width="10" x="126.66" y="191.63"/><polygon fill="#181818" points="380.33,405.69,389.7571,402.8389,384.1156,402.4236,384.5309,396.782,380.33,405.69" style="stroke:#181818;stroke-width:1;"/><text fill="#000000" font-family="sans-serif" font-size="13" lengthAdjust="spacing" textLength="38.9429" x="435" y="308.4069">utilise</text></g><!--link Core to PyAutoGUI--><g class="link" data-entity-1="Core" data-entity-2="PyAutoGUI" data-source-line="11" data-uid="lnk18" id="link_Core_PyAutoGUI"><path d="M136.3284,199.4096 C141.9784,201.8896 143.26,202.09 149,203.7 C297.65,245.29 348.38,185.46 495,233.7 C511.5,239.12 542.8571,258.8827 569.8971,276.9027" fill="none" id="Core-PyAutoGUI" style="stroke:#181818;stroke-width:1;stroke-dasharray:7.0,7.0;"/><rect fill="#FFFFFF" height="10" style="stroke:#181818;stroke-width:1.5;" width="10" x="126.75" y="192.4"/><polygon fill="#181818" points="574.89,280.23,569.6189,271.9104,570.7293,277.4572,565.1825,278.5676,574.89,280.23" style="stroke:#181818;stroke-width:1;"/><text fill="#000000" font-family="sans-serif" font-size="13" lengthAdjust="spacing" textLength="38.9429" x="526" y="246.7669">utilise</text></g><!--link Utils to OpenCV--><g class="link" data-entity-1="Utils" data-entity-2="OpenCV" data-source-line="12" data-uid="lnk19" id="link_Utils_OpenCV"><path d="M199.044,330.1822 C233.324,352.4322 276.1373,380.2032 310.3373,402.4032" fill="none" id="Utils-OpenCV" style="stroke:#181818;stroke-width:1;stroke-dasharray:7.0,7.0;"/><rect fill="#FFFFFF" height="10" style="stroke:#181818;stroke-width:1.5;" width="10" x="189.85" y="322.46"/><polygon fill="#181818" points="315.37,405.67,309.9989,397.4146,311.1761,402.9476,305.6431,404.1249,315.37,405.67" style="stroke:#181818;stroke-width:1;"/><text fill="#000000" font-family="sans-serif" font-size="13" lengthAdjust="spacing" textLength="38.9429" x="267" y="372.0569">utilise</text></g><!--link Chatbot to PyQt5--><g class="link" data-entity-1="Chatbot" data-entity-2="PyQt5" data-source-line="13" data-uid="lnk20" id="link_Chatbot_PyQt5"><path d="M267.2014,180.9813 C336.9614,187.0213 464.57,201.5 573,233.7 C590.74,238.96 593.97,243.47 611,250.7 C640.44,263.18 668.3584,274.3987 693.9684,284.4987" fill="none" id="Chatbot-PyQt5" style="stroke:#181818;stroke-width:1;stroke-dasharray:7.0,7.0;"/><rect fill="#FFFFFF" height="10" style="stroke:#181818;stroke-width:1.5;" width="10" x="257.22" y="175.55"/><polygon fill="#181818" points="699.55,286.7,692.6451,279.677,694.8987,284.8656,689.7101,287.1192,699.55,286.7" style="stroke:#181818;stroke-width:1;"/><text fill="#000000" font-family="sans-serif" font-size="13" lengthAdjust="spacing" textLength="38.9429" x="612" y="246.7669">utilise</text></g><!--link Core to GMN24--><g class="link" data-entity-1="Core" data-entity-2="GMN24" data-source-line="21" data-uid="lnk26" id="link_Core_GMN24"><path d="M115.66,152.65 C128.76,139.67 146.89,124.77 166.5,117.8 C279.78,77.52 588.87,98.32 707.5,117.8 C743.37,123.69 781.82,136.03 813.3,147.84" fill="none" id="Core-GMN24" style="stroke:#181818;stroke-width:1;stroke-dasharray:7.0,7.0;"/></g><!--link Utils to GMN27--><g class="link" data-entity-1="Utils" data-entity-2="GMN27" data-source-line="27" data-uid="lnk29" id="link_Utils_GMN27"><path d="M195.9,282.22 C222.17,267.71 259.24,249.89 294.5,242.2 C506.4,195.95 569.6,200.79 782.5,242.2 C830.15,251.46 881.77,275.61 911.07,290.79" fill="none" id="Utils-GMN27" style="stroke:#181818;stroke-width:1;stroke-dasharray:7.0,7.0;"/></g><!--link Chatbot to GMN30--><g class="link" data-entity-1="Chatbot" data-entity-2="GMN30" data-source-line="31" data-uid="lnk32" id="link_Chatbot_GMN30"><path d="M262.23,164.82 C386.61,137.64 728.11,73.48 1008.5,117.8 C1062.7,126.37 1122.82,148.64 1157.91,163.01" fill="none" id="Chatbot-GMN30" style="stroke:#181818;stroke-width:1;stroke-dasharray:7.0,7.0;"/></g><!--SRC=[VP91Jy9048Nl_HKJl1PkNZoOD9LMOeXW00-4mq27Cd6TRNQtKJJ-TxUbL8YKu-vxy-tCl2rmyuOvGIybwqf3_LYBCrf1L1IAD-XOIm- -0u3bI1oPBMve1JVz_ZqiOsreTL6PErRsiXJlqAsrgyKQS5xo4mHdDOE1roRxgRjTmHsKtiIMWcDbhOufOvnmGPsEvu8aNdJAatrKEftEHsUEGqDN2CqWNJq6eXs1uNpdG6zFD-57hxRC90x6oFBAakcF41QSaPxj364MLXvKl3Rej7bWL3eFI3AeeF_Gno1QwYDADZC-MZ8X9FxDuy6R4i8gwE6dytSU7a8JVIIezby7KtCLAxIMjrnXuj9ORPhleSXqjzEct_RpDqe8JwZUKH9MxXhZv9kqb2IQ3YLdeH1Uo1PQBAKaL7DRqYy0]--></g></svg>