<svg xmlns="http://www.w3.org/2000/svg" xmlns:xlink="http://www.w3.org/1999/xlink" contentStyleType="text/css" data-diagram-type="DESCRIPTION" height="231px" preserveAspectRatio="none" style="width:1712px;height:231px;background:#FFFFFF;" version="1.1" viewBox="0 0 1712 231" width="1712px" zoomAndPan="magnify"><defs/><g><!--cluster Notebooks--><g class="cluster" data-entity="Notebooks" data-source-line="1" data-uid="ent0002" id="cluster_Notebooks"><path d="M8.5,6 L93.9238,6 A3.75,3.75 0 0 1 96.4238,8.5 L103.4238,28.2969 L1702.5,28.2969 A2.5,2.5 0 0 1 1705,30.7969 L1705,100.79 A2.5,2.5 0 0 1 1702.5,103.29 L8.5,103.29 A2.5,2.5 0 0 1 6,100.79 L6,8.5 A2.5,2.5 0 0 1 8.5,6" fill="none" style="stroke:#000000;stroke-width:1.5;"/><line style="stroke:#000000;stroke-width:1.5;" x1="6" x2="103.4238" y1="28.2969" y2="28.2969"/><text fill="#000000" font-family="sans-serif" font-size="14" font-weight="bold" lengthAdjust="spacing" textLength="84.4238" x="10" y="20.9951">Notebooks</text></g><!--cluster Modules--><g class="cluster" data-entity="Modules" data-source-line="10" data-uid="ent0010" id="cluster_Modules"><path d="M196.5,127.29 L263.665,127.29 A3.75,3.75 0 0 1 266.165,129.79 L273.165,149.5869 L1643.5,149.5869 A2.5,2.5 0 0 1 1646,152.0869 L1646,222.09 A2.5,2.5 0 0 1 1643.5,224.59 L196.5,224.59 A2.5,2.5 0 0 1 194,222.09 L194,129.79 A2.5,2.5 0 0 1 196.5,127.29" fill="none" style="stroke:#000000;stroke-width:1.5;"/><line style="stroke:#000000;stroke-width:1.5;" x1="194" x2="273.165" y1="149.5869" y2="149.5869"/><text fill="#000000" font-family="sans-serif" font-size="14" font-weight="bold" lengthAdjust="spacing" textLength="66.165" x="198" y="142.2851">Modules</text></g><!--entity 01_data_retrieval.ipynb--><g class="entity" data-entity="01_data_retrieval.ipynb" data-source-line="2" data-uid="ent0003" id="entity_01_data_retrieval.ipynb"><rect fill="#F1F1F1" height="46.2969" rx="2.5" ry="2.5" style="stroke:#181818;stroke-width:0.5;" width="205.4912" x="22.25" y="41"/><rect fill="#F1F1F1" height="10" style="stroke:#181818;stroke-width:0.5;" width="15" x="207.7412" y="46"/><rect fill="#F1F1F1" height="2" style="stroke:#181818;stroke-width:0.5;" width="4" x="205.7412" y="48"/><rect fill="#F1F1F1" height="2" style="stroke:#181818;stroke-width:0.5;" width="4" x="205.7412" y="52"/><text fill="#000000" font-family="sans-serif" font-size="14" lengthAdjust="spacing" textLength="165.4912" x="37.25" y="73.9951">01_data_retrieval.ipynb</text></g><!--entity 02_preprocessing.ipynb--><g class="entity" data-entity="02_preprocessing.ipynb" data-source-line="3" data-uid="ent0004" id="entity_02_preprocessing.ipynb"><rect fill="#F1F1F1" height="46.2969" rx="2.5" ry="2.5" style="stroke:#181818;stroke-width:0.5;" width="207.0977" x="262.45" y="41"/><rect fill="#F1F1F1" height="10" style="stroke:#181818;stroke-width:0.5;" width="15" x="449.5477" y="46"/><rect fill="#F1F1F1" height="2" style="stroke:#181818;stroke-width:0.5;" width="4" x="447.5477" y="48"/><rect fill="#F1F1F1" height="2" style="stroke:#181818;stroke-width:0.5;" width="4" x="447.5477" y="52"/><text fill="#000000" font-family="sans-serif" font-size="14" lengthAdjust="spacing" textLength="167.0977" x="277.45" y="73.9951">02_preprocessing.ipynb</text></g><!--entity 03_feature_engineering.ipynb--><g class="entity" data-entity="03_feature_engineering.ipynb" data-source-line="4" data-uid="ent0005" id="entity_03_feature_engineering.ipynb"><rect fill="#F1F1F1" height="46.2969" rx="2.5" ry="2.5" style="stroke:#181818;stroke-width:0.5;" width="249.7061" x="504.15" y="41"/><rect fill="#F1F1F1" height="10" style="stroke:#181818;stroke-width:0.5;" width="15" x="733.8561" y="46"/><rect fill="#F1F1F1" height="2" style="stroke:#181818;stroke-width:0.5;" width="4" x="731.8561" y="48"/><rect fill="#F1F1F1" height="2" style="stroke:#181818;stroke-width:0.5;" width="4" x="731.8561" y="52"/><text fill="#000000" font-family="sans-serif" font-size="14" lengthAdjust="spacing" textLength="209.7061" x="519.15" y="73.9951">03_feature_engineering.ipynb</text></g><!--entity 05_modeling_baseline.ipynb--><g class="entity" data-entity="05_modeling_baseline.ipynb" data-source-line="5" data-uid="ent0006" id="entity_05_modeling_baseline.ipynb"><rect fill="#F1F1F1" height="46.2969" rx="2.5" ry="2.5" style="stroke:#181818;stroke-width:0.5;" width="238.9668" x="788.52" y="41"/><rect fill="#F1F1F1" height="10" style="stroke:#181818;stroke-width:0.5;" width="15" x="1007.4868" y="46"/><rect fill="#F1F1F1" height="2" style="stroke:#181818;stroke-width:0.5;" width="4" x="1005.4868" y="48"/><rect fill="#F1F1F1" height="2" style="stroke:#181818;stroke-width:0.5;" width="4" x="1005.4868" y="52"/><text fill="#000000" font-family="sans-serif" font-size="14" lengthAdjust="spacing" textLength="198.9668" x="803.52" y="73.9951">05_modeling_baseline.ipynb</text></g><!--entity 06_modeling_dl.ipynb--><g class="entity" data-entity="06_modeling_dl.ipynb" data-source-line="6" data-uid="ent0007" id="entity_06_modeling_dl.ipynb"><rect fill="#F1F1F1" height="46.2969" rx="2.5" ry="2.5" style="stroke:#181818;stroke-width:0.5;" width="193.1045" x="1062.45" y="41"/><rect fill="#F1F1F1" height="10" style="stroke:#181818;stroke-width:0.5;" width="15" x="1235.5545" y="46"/><rect fill="#F1F1F1" height="2" style="stroke:#181818;stroke-width:0.5;" width="4" x="1233.5545" y="48"/><rect fill="#F1F1F1" height="2" style="stroke:#181818;stroke-width:0.5;" width="4" x="1233.5545" y="52"/><text fill="#000000" font-family="sans-serif" font-size="14" lengthAdjust="spacing" textLength="153.1045" x="1077.45" y="73.9951">06_modeling_dl.ipynb</text></g><!--entity 07_evaluation.ipynb--><g class="entity" data-entity="07_evaluation.ipynb" data-source-line="7" data-uid="ent0008" id="entity_07_evaluation.ipynb"><rect fill="#F1F1F1" height="46.2969" rx="2.5" ry="2.5" style="stroke:#181818;stroke-width:0.5;" width="181.7227" x="1290.14" y="41"/><rect fill="#F1F1F1" height="10" style="stroke:#181818;stroke-width:0.5;" width="15" x="1451.8627" y="46"/><rect fill="#F1F1F1" height="2" style="stroke:#181818;stroke-width:0.5;" width="4" x="1449.8627" y="48"/><rect fill="#F1F1F1" height="2" style="stroke:#181818;stroke-width:0.5;" width="4" x="1449.8627" y="52"/><text fill="#000000" font-family="sans-serif" font-size="14" lengthAdjust="spacing" textLength="141.7227" x="1305.14" y="73.9951">07_evaluation.ipynb</text></g><!--entity 08_dashboard.ipynb--><g class="entity" data-entity="08_dashboard.ipynb" data-source-line="8" data-uid="ent0009" id="entity_08_dashboard.ipynb"><rect fill="#F1F1F1" height="46.2969" rx="2.5" ry="2.5" style="stroke:#181818;stroke-width:0.5;" width="182.3926" x="1506.8" y="41"/><rect fill="#F1F1F1" height="10" style="stroke:#181818;stroke-width:0.5;" width="15" x="1669.1926" y="46"/><rect fill="#F1F1F1" height="2" style="stroke:#181818;stroke-width:0.5;" width="4" x="1667.1926" y="48"/><rect fill="#F1F1F1" height="2" style="stroke:#181818;stroke-width:0.5;" width="4" x="1667.1926" y="52"/><text fill="#000000" font-family="sans-serif" font-size="14" lengthAdjust="spacing" textLength="142.3926" x="1521.8" y="73.9951">08_dashboard.ipynb</text></g><!--entity data_loading--><g class="entity" data-entity="data_loading" data-source-line="11" data-uid="ent0011" id="entity_data_loading"><rect fill="#F1F1F1" height="46.2969" rx="2.5" ry="2.5" style="stroke:#181818;stroke-width:0.5;" width="130.1045" x="209.95" y="162.29"/><rect fill="#F1F1F1" height="10" style="stroke:#181818;stroke-width:0.5;" width="15" x="320.0545" y="167.29"/><rect fill="#F1F1F1" height="2" style="stroke:#181818;stroke-width:0.5;" width="4" x="318.0545" y="169.29"/><rect fill="#F1F1F1" height="2" style="stroke:#181818;stroke-width:0.5;" width="4" x="318.0545" y="173.29"/><text fill="#000000" font-family="sans-serif" font-size="14" lengthAdjust="spacing" textLength="90.1045" x="224.95" y="195.2851">data_loading</text></g><!--entity preprocessing--><g class="entity" data-entity="preprocessing" data-source-line="12" data-uid="ent0012" id="entity_preprocessing"><rect fill="#F1F1F1" height="46.2969" rx="2.5" ry="2.5" style="stroke:#181818;stroke-width:0.5;" width="139.0117" x="375.49" y="162.29"/><rect fill="#F1F1F1" height="10" style="stroke:#181818;stroke-width:0.5;" width="15" x="494.5017" y="167.29"/><rect fill="#F1F1F1" height="2" style="stroke:#181818;stroke-width:0.5;" width="4" x="492.5017" y="169.29"/><rect fill="#F1F1F1" height="2" style="stroke:#181818;stroke-width:0.5;" width="4" x="492.5017" y="173.29"/><text fill="#000000" font-family="sans-serif" font-size="14" lengthAdjust="spacing" textLength="99.0117" x="390.49" y="195.2851">preprocessing</text></g><!--entity feature_engineering--><g class="entity" data-entity="feature_engineering" data-source-line="13" data-uid="ent0013" id="entity_feature_engineering"><rect fill="#F1F1F1" height="46.2969" rx="2.5" ry="2.5" style="stroke:#181818;stroke-width:0.5;" width="181.6201" x="549.19" y="162.29"/><rect fill="#F1F1F1" height="10" style="stroke:#181818;stroke-width:0.5;" width="15" x="710.8101" y="167.29"/><rect fill="#F1F1F1" height="2" style="stroke:#181818;stroke-width:0.5;" width="4" x="708.8101" y="169.29"/><rect fill="#F1F1F1" height="2" style="stroke:#181818;stroke-width:0.5;" width="4" x="708.8101" y="173.29"/><text fill="#000000" font-family="sans-serif" font-size="14" lengthAdjust="spacing" textLength="141.6201" x="564.19" y="195.2851">feature_engineering</text></g><!--entity modeling--><g class="entity" data-entity="modeling" data-source-line="14" data-uid="ent0014" id="entity_modeling"><rect fill="#F1F1F1" height="46.2969" rx="2.5" ry="2.5" style="stroke:#181818;stroke-width:0.5;" width="105.2422" x="765.38" y="162.29"/><rect fill="#F1F1F1" height="10" style="stroke:#181818;stroke-width:0.5;" width="15" x="850.6222" y="167.29"/><rect fill="#F1F1F1" height="2" style="stroke:#181818;stroke-width:0.5;" width="4" x="848.6222" y="169.29"/><rect fill="#F1F1F1" height="2" style="stroke:#181818;stroke-width:0.5;" width="4" x="848.6222" y="173.29"/><text fill="#000000" font-family="sans-serif" font-size="14" lengthAdjust="spacing" textLength="65.2422" x="780.38" y="195.2851">modeling</text></g><!--entity dl_utils--><g class="entity" data-entity="dl_utils" data-source-line="15" data-uid="ent0015" id="entity_dl_utils"><rect fill="#F1F1F1" height="46.2969" rx="2.5" ry="2.5" style="stroke:#181818;stroke-width:0.5;" width="89.2119" x="905.39" y="162.29"/><rect fill="#F1F1F1" height="10" style="stroke:#181818;stroke-width:0.5;" width="15" x="974.6019" y="167.29"/><rect fill="#F1F1F1" height="2" style="stroke:#181818;stroke-width:0.5;" width="4" x="972.6019" y="169.29"/><rect fill="#F1F1F1" height="2" style="stroke:#181818;stroke-width:0.5;" width="4" x="972.6019" y="173.29"/><text fill="#000000" font-family="sans-serif" font-size="14" lengthAdjust="spacing" textLength="49.2119" x="920.39" y="195.2851">dl_utils</text></g><!--entity dl_models--><g class="entity" data-entity="dl_models" data-source-line="16" data-uid="ent0016" id="entity_dl_models"><rect fill="#F1F1F1" height="46.2969" rx="2.5" ry="2.5" style="stroke:#181818;stroke-width:0.5;" width="110.6631" x="1029.67" y="162.29"/><rect fill="#F1F1F1" height="10" style="stroke:#181818;stroke-width:0.5;" width="15" x="1120.3331" y="167.29"/><rect fill="#F1F1F1" height="2" style="stroke:#181818;stroke-width:0.5;" width="4" x="1118.3331" y="169.29"/><rect fill="#F1F1F1" height="2" style="stroke:#181818;stroke-width:0.5;" width="4" x="1118.3331" y="173.29"/><text fill="#000000" font-family="sans-serif" font-size="14" lengthAdjust="spacing" textLength="70.6631" x="1044.67" y="195.2851">dl_models</text></g><!--entity dl_training--><g class="entity" data-entity="dl_training" data-source-line="17" data-uid="ent0017" id="entity_dl_training"><rect fill="#F1F1F1" height="46.2969" rx="2.5" ry="2.5" style="stroke:#181818;stroke-width:0.5;" width="114.0127" x="1174.99" y="162.29"/><rect fill="#F1F1F1" height="10" style="stroke:#181818;stroke-width:0.5;" width="15" x="1269.0027" y="167.29"/><rect fill="#F1F1F1" height="2" style="stroke:#181818;stroke-width:0.5;" width="4" x="1267.0027" y="169.29"/><rect fill="#F1F1F1" height="2" style="stroke:#181818;stroke-width:0.5;" width="4" x="1267.0027" y="173.29"/><text fill="#000000" font-family="sans-serif" font-size="14" lengthAdjust="spacing" textLength="74.0127" x="1189.99" y="195.2851">dl_training</text></g><!--entity evaluation--><g class="entity" data-entity="evaluation" data-source-line="18" data-uid="ent0018" id="entity_evaluation"><rect fill="#F1F1F1" height="46.2969" rx="2.5" ry="2.5" style="stroke:#181818;stroke-width:0.5;" width="113.6367" x="1324.18" y="162.29"/><rect fill="#F1F1F1" height="10" style="stroke:#181818;stroke-width:0.5;" width="15" x="1417.8167" y="167.29"/><rect fill="#F1F1F1" height="2" style="stroke:#181818;stroke-width:0.5;" width="4" x="1415.8167" y="169.29"/><rect fill="#F1F1F1" height="2" style="stroke:#181818;stroke-width:0.5;" width="4" x="1415.8167" y="173.29"/><text fill="#000000" font-family="sans-serif" font-size="14" lengthAdjust="spacing" textLength="73.6367" x="1339.18" y="195.2851">evaluation</text></g><!--entity best_model_utils--><g class="entity" data-entity="best_model_utils" data-source-line="19" data-uid="ent0019" id="entity_best_model_utils"><rect fill="#F1F1F1" height="46.2969" rx="2.5" ry="2.5" style="stroke:#181818;stroke-width:0.5;" width="157.3115" x="1472.34" y="162.29"/><rect fill="#F1F1F1" height="10" style="stroke:#181818;stroke-width:0.5;" width="15" x="1609.6515" y="167.29"/><rect fill="#F1F1F1" height="2" style="stroke:#181818;stroke-width:0.5;" width="4" x="1607.6515" y="169.29"/><rect fill="#F1F1F1" height="2" style="stroke:#181818;stroke-width:0.5;" width="4" x="1607.6515" y="173.29"/><text fill="#000000" font-family="sans-serif" font-size="14" lengthAdjust="spacing" textLength="117.3115" x="1487.34" y="195.2851">best_model_utils</text></g><!--link 01_data_retrieval.ipynb to data_loading--><g class="link" data-entity-1="01_data_retrieval.ipynb" data-entity-2="data_loading" data-source-line="21" data-uid="lnk20" id="link_01_data_retrieval.ipynb_data_loading"><path d="M153.21,87.58 C179.95,108.84 215.1833,136.8762 241.9633,158.1662" fill="none" id="01_data_retrieval.ipynb-to-data_loading" style="stroke:#181818;stroke-width:1;"/><polygon fill="#181818" points="246.66,161.9,242.1042,153.1682,242.7461,158.7885,237.1258,159.4304,246.66,161.9" style="stroke:#181818;stroke-width:1;"/></g><!--link 02_preprocessing.ipynb to preprocessing--><g class="link" data-entity-1="02_preprocessing.ipynb" data-entity-2="preprocessing" data-source-line="22" data-uid="lnk21" id="link_02_preprocessing.ipynb_preprocessing"><path d="M380.86,87.58 C394.98,108.91 412.797,135.8076 426.897,157.0976" fill="none" id="02_preprocessing.ipynb-to-preprocessing" style="stroke:#181818;stroke-width:1;"/><polygon fill="#181818" points="430.21,162.1,428.5754,152.3877,427.4492,157.9313,421.9056,156.8051,430.21,162.1" style="stroke:#181818;stroke-width:1;"/></g><!--link 03_feature_engineering.ipynb to feature_engineering--><g class="link" data-entity-1="03_feature_engineering.ipynb" data-entity-2="feature_engineering" data-source-line="23" data-uid="lnk22" id="link_03_feature_engineering.ipynb_feature_engineering"><path d="M631.07,87.58 C633.04,108.91 635.43,134.8353 637.39,156.1253" fill="none" id="03_feature_engineering.ipynb-to-feature_engineering" style="stroke:#181818;stroke-width:1;"/><polygon fill="#181818" points="637.94,162.1,641.0981,152.7712,637.4816,157.1211,633.1318,153.5046,637.94,162.1" style="stroke:#181818;stroke-width:1;"/></g><!--link 05_modeling_baseline.ipynb to modeling--><g class="link" data-entity-1="05_modeling_baseline.ipynb" data-entity-2="modeling" data-source-line="24" data-uid="lnk23" id="link_05_modeling_baseline.ipynb_modeling"><path d="M891.07,87.58 C874.98,108.91 854.5347,136.0211 838.4647,157.3111" fill="none" id="05_modeling_baseline.ipynb-to-modeling" style="stroke:#181818;stroke-width:1;"/><polygon fill="#181818" points="834.85,162.1,843.4647,157.3265,837.8623,158.1092,837.0795,152.5068,834.85,162.1" style="stroke:#181818;stroke-width:1;"/></g><!--link 06_modeling_dl.ipynb to dl_utils--><g class="link" data-entity-1="06_modeling_dl.ipynb" data-entity-2="dl_utils" data-source-line="25" data-uid="lnk24" id="link_06_modeling_dl.ipynb_dl_utils"><path d="M1107.95,87.68 C1088.48,95.77 1065.94,104.56 1045,111.29 C1030.63,115.91 1025.07,111.74 1012,119.29 C993.61,129.92 980.9912,142.9333 969.7012,157.2133" fill="none" id="06_modeling_dl.ipynb-to-dl_utils" style="stroke:#181818;stroke-width:1;"/><polygon fill="#181818" points="965.98,161.92,974.6996,157.3408,969.081,157.9978,968.424,152.3792,965.98,161.92" style="stroke:#181818;stroke-width:1;"/></g><!--link 06_modeling_dl.ipynb to dl_models--><g class="link" data-entity-1="06_modeling_dl.ipynb" data-entity-2="dl_models" data-source-line="26" data-uid="lnk25" id="link_06_modeling_dl.ipynb_dl_models"><path d="M1145.08,87.58 C1131.85,108.91 1115.2334,135.7117 1102.0234,157.0017" fill="none" id="06_modeling_dl.ipynb-to-dl_models" style="stroke:#181818;stroke-width:1;"/><polygon fill="#181818" points="1098.86,162.1,1107.004,156.5615,1101.4962,157.8514,1100.2062,152.3436,1098.86,162.1" style="stroke:#181818;stroke-width:1;"/></g><!--link 06_modeling_dl.ipynb to dl_training--><g class="link" data-entity-1="06_modeling_dl.ipynb" data-entity-2="dl_training" data-source-line="27" data-uid="lnk26" id="link_06_modeling_dl.ipynb_dl_training"><path d="M1172.73,87.58 C1185.78,108.91 1202.1679,135.6924 1215.1979,156.9824" fill="none" id="06_modeling_dl.ipynb-to-dl_training" style="stroke:#181818;stroke-width:1;"/><polygon fill="#181818" points="1218.33,162.1,1217.0436,152.3355,1215.7199,157.8353,1210.2201,156.5117,1218.33,162.1" style="stroke:#181818;stroke-width:1;"/></g><!--link 07_evaluation.ipynb to evaluation--><g class="link" data-entity-1="07_evaluation.ipynb" data-entity-2="evaluation" data-source-line="28" data-uid="lnk27" id="link_07_evaluation.ipynb_evaluation"><path d="M1381,87.58 C1381,108.91 1381,134.81 1381,156.1" fill="none" id="07_evaluation.ipynb-to-evaluation" style="stroke:#181818;stroke-width:1;"/><polygon fill="#181818" points="1381,162.1,1385,153.1,1381,157.1,1377,153.1,1381,162.1" style="stroke:#181818;stroke-width:1;"/></g><!--link 08_dashboard.ipynb to best_model_utils--><g class="link" data-entity-1="08_dashboard.ipynb" data-entity-2="best_model_utils" data-source-line="29" data-uid="lnk28" id="link_08_dashboard.ipynb_best_model_utils"><path d="M1589.16,87.58 C1580.76,108.91 1570.3898,135.2278 1561.9998,156.5178" fill="none" id="08_dashboard.ipynb-to-best_model_utils" style="stroke:#181818;stroke-width:1;"/><polygon fill="#181818" points="1559.8,162.1,1566.8212,155.1933,1561.6332,157.4482,1559.3783,152.2602,1559.8,162.1" style="stroke:#181818;stroke-width:1;"/></g><!--SRC=[VL91RiCW4Bpx5IZtH6sZf3tr1yq7gWejPkEY41R1kb9KvUzrY9qOb_Y6PWPsPmOFzG4Q58iTCIgYGro8tqg8pwTdgO511kHWy0ViolYJKr-9Uv4-e0zKOup6DMDgBVS8t0QKw1hZ4CD4i957qcWxL2g8bmEEwUsTrjdCLtdPeWKsvCRuMxTd_5O4GG_mkVA3hG_IhSNUL4r7JmuTYsJD4kXkJaPalZAcO2lZXxNpELQsR6oSWady3-K0nasVkBlEO8MHhy_q4yxLmyx4SlcUMtvKOLBc6SnNcYwKefahEbswvLNk_BhpO6vUqwSvBxg5M_nAIJMAklIlacQQ-ny0]--></g></svg>