<svg xmlns="http://www.w3.org/2000/svg" xmlns:xlink="http://www.w3.org/1999/xlink" contentStyleType="text/css" data-diagram-type="DESCRIPTION" height="346px" preserveAspectRatio="none" style="width:571px;height:346px;background:#FFFFFF;" version="1.1" viewBox="0 0 571 346" width="571px" zoomAndPan="magnify"><defs/><g><!--cluster PC Utilisateur--><g class="cluster" data-entity="PC Utilisateur" data-source-line="1" data-uid="ent0002" id="cluster_PC Utilisateur"><polygon fill="none" points="16,16,26,6,322,6,322,221.59,312,231.59,16,231.59,16,16" style="stroke:#181818;stroke-width:1;"/><line style="stroke:#181818;stroke-width:1;" x1="312" x2="322" y1="16" y2="6"/><line style="stroke:#181818;stroke-width:1;" x1="16" x2="312" y1="16" y2="16"/><line style="stroke:#181818;stroke-width:1;" x1="312" x2="312" y1="16" y2="231.59"/><text fill="#000000" font-family="sans-serif" font-size="14" font-weight="bold" lengthAdjust="spacing" textLength="108.7051" x="110.6475" y="31.9951">PC Utilisateur</text></g><!--entity Gesture-Control App--><g class="entity" data-entity="Gesture-Control App" data-source-line="2" data-uid="ent0003" id="entity_Gesture-Control App"><rect fill="#F1F1F1" height="46.2969" rx="2.5" ry="2.5" style="stroke:#181818;stroke-width:0.5;" width="183.2539" x="112.37" y="46"/><rect fill="#F1F1F1" height="10" style="stroke:#181818;stroke-width:0.5;" width="15" x="275.6239" y="51"/><rect fill="#F1F1F1" height="2" style="stroke:#181818;stroke-width:0.5;" width="4" x="273.6239" y="53"/><rect fill="#F1F1F1" height="2" style="stroke:#181818;stroke-width:0.5;" width="4" x="273.6239" y="57"/><text fill="#000000" font-family="sans-serif" font-size="14" lengthAdjust="spacing" textLength="143.2539" x="127.37" y="78.9951">Gesture-Control App</text></g><!--entity Webcam--><g class="entity" data-entity="Webcam" data-source-line="2" data-uid="ent0004" id="entity_Webcam"><rect fill="#F1F1F1" height="46.2969" rx="2.5" ry="2.5" style="stroke:#181818;stroke-width:0.5;" width="101.2568" x="32.37" y="169.3"/><rect fill="#F1F1F1" height="10" style="stroke:#181818;stroke-width:0.5;" width="15" x="113.6268" y="174.3"/><rect fill="#F1F1F1" height="2" style="stroke:#181818;stroke-width:0.5;" width="4" x="111.6268" y="176.3"/><rect fill="#F1F1F1" height="2" style="stroke:#181818;stroke-width:0.5;" width="4" x="111.6268" y="180.3"/><text fill="#000000" font-family="sans-serif" font-size="14" lengthAdjust="spacing" textLength="61.2568" x="47.37" y="202.2951">Webcam</text></g><!--entity ?cran--><g class="entity" data-entity="&#201;cran" data-source-line="3" data-uid="ent0006" id="entity_&#201;cran"><rect fill="#F1F1F1" height="46.2969" rx="2.5" ry="2.5" style="stroke:#181818;stroke-width:0.5;" width="79.751" x="169.12" y="169.3"/><rect fill="#F1F1F1" height="10" style="stroke:#181818;stroke-width:0.5;" width="15" x="228.871" y="174.3"/><rect fill="#F1F1F1" height="2" style="stroke:#181818;stroke-width:0.5;" width="4" x="226.871" y="176.3"/><rect fill="#F1F1F1" height="2" style="stroke:#181818;stroke-width:0.5;" width="4" x="226.871" y="180.3"/><text fill="#000000" font-family="sans-serif" font-size="14" lengthAdjust="spacing" textLength="39.751" x="184.12" y="202.2951">&#201;cran</text></g><!--entity Syst?me d'exploitation--><g class="entity" data-entity="Syst&#232;me d'exploitation" data-source-line="6" data-uid="ent0008" id="entity_Syst&#232;me d'exploitation"><rect fill="#F1F1F1" height="46.2969" rx="2.5" ry="2.5" style="stroke:#181818;stroke-width:0.5;" width="201.0205" x="338.49" y="169.3"/><rect fill="#F1F1F1" height="10" style="stroke:#181818;stroke-width:0.5;" width="15" x="519.5105" y="174.3"/><rect fill="#F1F1F1" height="2" style="stroke:#181818;stroke-width:0.5;" width="4" x="517.5105" y="176.3"/><rect fill="#F1F1F1" height="2" style="stroke:#181818;stroke-width:0.5;" width="4" x="517.5105" y="180.3"/><text fill="#000000" font-family="sans-serif" font-size="14" lengthAdjust="spacing" textLength="161.0205" x="353.49" y="202.2951">Syst&#232;me d'exploitation</text></g><!--entity Pilotes Webcam--><g class="entity" data-entity="Pilotes Webcam" data-source-line="7" data-uid="ent0010" id="entity_Pilotes Webcam"><rect fill="#F1F1F1" height="46.2969" rx="2.5" ry="2.5" style="stroke:#181818;stroke-width:0.5;" width="151.8906" x="363.05" y="294.59"/><rect fill="#F1F1F1" height="10" style="stroke:#181818;stroke-width:0.5;" width="15" x="494.9406" y="299.59"/><rect fill="#F1F1F1" height="2" style="stroke:#181818;stroke-width:0.5;" width="4" x="492.9406" y="301.59"/><rect fill="#F1F1F1" height="2" style="stroke:#181818;stroke-width:0.5;" width="4" x="492.9406" y="305.59"/><text fill="#000000" font-family="sans-serif" font-size="14" lengthAdjust="spacing" textLength="111.8906" x="378.05" y="327.5851">Pilotes Webcam</text></g><g class="entity" data-entity="GMN12" data-source-line="10" data-uid="ent0013" id="entity_GMN12"><path d="M337.95,49.02 L337.95,65.15 L295.66,69.15 L337.95,73.15 L337.95,89.2856 A0,0 0 0 0 337.95,89.2856 L564.0555,89.2856 A0,0 0 0 0 564.0555,89.2856 L564.0555,59.02 L554.0555,49.02 L337.95,49.02 A0,0 0 0 0 337.95,49.02" fill="#FEFFDD" style="stroke:#181818;stroke-width:0.5;"/><path d="M554.0555,49.02 L554.0555,59.02 L564.0555,59.02 L554.0555,49.02" fill="#FEFFDD" style="stroke:#181818;stroke-width:0.5;"/><text fill="#000000" font-family="sans-serif" font-size="13" lengthAdjust="spacing" textLength="203.417" x="343.95" y="66.0869">Ex&#233;cute app.exe, utilise PyQt5,</text><text fill="#000000" font-family="sans-serif" font-size="13" lengthAdjust="spacing" textLength="205.1055" x="343.95" y="81.2197">MediaPipe, OpenCV, PyAutoGUI</text></g><!--link Gesture-Control App to Webcam--><g class="link" data-entity-1="Gesture-Control App" data-entity-2="Webcam" data-source-line="2" data-uid="lnk5" id="link_Gesture-Control App_Webcam"><path d="M146.29,92.78 C132.29,100.45 118.39,110.21 108,122.3 C96.6,135.56 91.6127,148.5891 88.1627,163.2691" fill="none" id="Gesture-Control App-to-Webcam" style="stroke:#181818;stroke-width:1;"/><polygon fill="#181818" points="86.79,169.11,92.7429,161.2638,87.9339,164.2426,84.9551,159.4336,86.79,169.11" style="stroke:#181818;stroke-width:1;"/><text fill="#000000" font-family="sans-serif" font-size="13" lengthAdjust="spacing" textLength="89.686" x="109" y="135.3669">capture vid&#233;o</text></g><!--link Gesture-Control App to ?cran--><g class="link" data-entity-1="Gesture-Control App" data-entity-2="&#201;cran" data-source-line="3" data-uid="lnk7" id="link_Gesture-Control App_&#201;cran"><path d="M204.93,92.68 C205.83,114.47 206.9318,141.2951 207.8318,163.0351" fill="none" id="Gesture-Control App-to-&#201;cran" style="stroke:#181818;stroke-width:1;"/><polygon fill="#181818" points="208.08,169.03,211.7043,159.8723,207.8732,164.0343,203.7112,160.2032,208.08,169.03" style="stroke:#181818;stroke-width:1;"/><text fill="#000000" font-family="sans-serif" font-size="13" lengthAdjust="spacing" textLength="106.5645" x="208" y="135.3669">contr&#244;le curseur</text></g><!--link Gesture-Control App to Syst?me d'exploitation--><g class="link" data-entity-1="Gesture-Control App" data-entity-2="Syst&#232;me d'exploitation" data-source-line="6" data-uid="lnk9" id="link_Gesture-Control App_Syst&#232;me d'exploitation"><path d="M264.0648,94.7318 C284.3148,103.4218 302.64,111.82 323,122.3 C350.83,136.62 376.9368,152.1652 399.6068,166.2952" fill="none" id="Gesture-Control App-Syst&#232;me d'exploitation" style="stroke:#181818;stroke-width:1;stroke-dasharray:7.0,7.0;"/><rect fill="#FFFFFF" height="10" style="stroke:#181818;stroke-width:1.5;" width="10" x="254.47" y="87.76"/><rect fill="#FFFFFF" height="10" style="stroke:#181818;stroke-width:1.5;" width="10" x="398.85" y="163.94"/><text fill="#000000" font-family="sans-serif" font-size="13" lengthAdjust="spacing" textLength="63.978" x="354" y="135.3669">ex&#233;cution</text></g><!--link Syst?me d'exploitation to Pilotes Webcam--><g class="link" data-entity-1="Syst&#232;me d'exploitation" data-entity-2="Pilotes Webcam" data-source-line="7" data-uid="lnk11" id="link_Syst&#232;me d'exploitation_Pilotes Webcam"><path d="M439,221.06 C439,243.31 439,267.07 439,289.27" fill="none" id="Syst&#232;me d'exploitation-Pilotes Webcam" style="stroke:#181818;stroke-width:1;stroke-dasharray:7.0,7.0;"/><rect fill="#FFFFFF" height="10" style="stroke:#181818;stroke-width:1.5;" width="10" x="434" y="211.06"/><rect fill="#FFFFFF" height="10" style="stroke:#181818;stroke-width:1.5;" width="10" x="434" y="289.27"/><text fill="#000000" font-family="sans-serif" font-size="13" lengthAdjust="spacing" textLength="95.4561" x="440" y="260.6569">acc&#232;s mat&#233;riel</text></g><!--SRC=[VP2nJiCm54LtVyLLEx2asLWOaAe8LGo885GOeWx6UGLBZctPBoWLuWFuasRd3_nZEEd0KXYVxhdlllkiQmcBkiAMjT5HClLXWGy1D1kAt0TQLSvoS0PhxtTOhQxHFDEBajqELr3IJmpUTPj6zxyhVQaWxUoQjFHj2AeFCIUAJo7EEvTbkKJpU8YSZXsXlQ316wTPidRpBXhIgFff4dzZfosrDeufulTygLGwHdIIqnWq6I5i9X3qwnl3xS-toIrlJg44wNr90nNev_SHwiC3NnOPkQDMorhxhDrxijLJaRLrpswplHLaMqn9Fm00]--></g></svg>