<svg xmlns="http://www.w3.org/2000/svg" xmlns:xlink="http://www.w3.org/1999/xlink" contentStyleType="text/css" data-diagram-type="DESCRIPTION" height="299px" preserveAspectRatio="none" style="width:389px;height:299px;background:#FFFFFF;" version="1.1" viewBox="0 0 389 299" width="389px" zoomAndPan="magnify"><defs/><g><!--cluster Serveur--><g class="cluster" data-entity="Serveur" data-source-line="1" data-uid="ent0002" id="cluster_Serveur"><polygon fill="none" points="16,16,26,6,372,6,372,114.29,362,124.29,16,124.29,16,16" style="stroke:#181818;stroke-width:1;"/><line style="stroke:#181818;stroke-width:1;" x1="362" x2="372" y1="16" y2="6"/><line style="stroke:#181818;stroke-width:1;" x1="16" x2="362" y1="16" y2="16"/><line style="stroke:#181818;stroke-width:1;" x1="362" x2="362" y1="16" y2="124.29"/><text fill="#000000" font-family="sans-serif" font-size="14" font-weight="bold" lengthAdjust="spacing" textLength="61.9746" x="159.0127" y="31.9951">Serveur</text></g><!--cluster Stockage--><g class="cluster" data-entity="Stockage" data-source-line="5" data-uid="ent0005" id="cluster_Stockage"><polygon fill="none" points="98,174.29,108,164.29,372,164.29,372,272.59,362,282.59,98,282.59,98,174.29" style="stroke:#181818;stroke-width:1;"/><line style="stroke:#181818;stroke-width:1;" x1="362" x2="372" y1="174.29" y2="164.29"/><line style="stroke:#181818;stroke-width:1;" x1="98" x2="362" y1="174.29" y2="174.29"/><line style="stroke:#181818;stroke-width:1;" x1="362" x2="362" y1="174.29" y2="282.59"/><text fill="#000000" font-family="sans-serif" font-size="14" font-weight="bold" lengthAdjust="spacing" textLength="72.9668" x="194.5166" y="190.2851">Stockage</text></g><!--entity API FastAPI--><g class="entity" data-entity="API FastAPI" data-source-line="2" data-uid="ent0003" id="entity_API FastAPI"><rect fill="#F1F1F1" height="46.2969" rx="2.5" ry="2.5" style="stroke:#181818;stroke-width:0.5;" width="118.1621" x="39.92" y="54"/><rect fill="#F1F1F1" height="10" style="stroke:#181818;stroke-width:0.5;" width="15" x="138.0821" y="59"/><rect fill="#F1F1F1" height="2" style="stroke:#181818;stroke-width:0.5;" width="4" x="136.0821" y="61"/><rect fill="#F1F1F1" height="2" style="stroke:#181818;stroke-width:0.5;" width="4" x="136.0821" y="65"/><text fill="#000000" font-family="sans-serif" font-size="14" lengthAdjust="spacing" textLength="78.1621" x="54.92" y="86.9951">API FastAPI</text></g><!--entity Streamlit App--><g class="entity" data-entity="Streamlit App" data-source-line="3" data-uid="ent0004" id="entity_Streamlit App"><rect fill="#F1F1F1" height="46.2969" rx="2.5" ry="2.5" style="stroke:#181818;stroke-width:0.5;" width="136.0313" x="192.98" y="54"/><rect fill="#F1F1F1" height="10" style="stroke:#181818;stroke-width:0.5;" width="15" x="309.0113" y="59"/><rect fill="#F1F1F1" height="2" style="stroke:#181818;stroke-width:0.5;" width="4" x="307.0113" y="61"/><rect fill="#F1F1F1" height="2" style="stroke:#181818;stroke-width:0.5;" width="4" x="307.0113" y="65"/><text fill="#000000" font-family="sans-serif" font-size="14" lengthAdjust="spacing" textLength="96.0313" x="207.98" y="86.9951">Streamlit App</text></g><!--entity data/--><g class="entity" data-entity="data/" data-source-line="6" data-uid="ent0006" id="entity_data/"><rect fill="#F1F1F1" height="46.2969" rx="2.5" ry="2.5" style="stroke:#181818;stroke-width:0.5;" width="76.251" x="121.87" y="212.29"/><rect fill="#F1F1F1" height="10" style="stroke:#181818;stroke-width:0.5;" width="15" x="178.121" y="217.29"/><rect fill="#F1F1F1" height="2" style="stroke:#181818;stroke-width:0.5;" width="4" x="176.121" y="219.29"/><rect fill="#F1F1F1" height="2" style="stroke:#181818;stroke-width:0.5;" width="4" x="176.121" y="223.29"/><text fill="#000000" font-family="sans-serif" font-size="14" lengthAdjust="spacing" textLength="36.251" x="136.87" y="245.2851">data/</text></g><!--entity models/--><g class="entity" data-entity="models/" data-source-line="7" data-uid="ent0007" id="entity_models/"><rect fill="#F1F1F1" height="46.2969" rx="2.5" ry="2.5" style="stroke:#181818;stroke-width:0.5;" width="95.6035" x="233.2" y="212.29"/><rect fill="#F1F1F1" height="10" style="stroke:#181818;stroke-width:0.5;" width="15" x="308.8035" y="217.29"/><rect fill="#F1F1F1" height="2" style="stroke:#181818;stroke-width:0.5;" width="4" x="306.8035" y="219.29"/><rect fill="#F1F1F1" height="2" style="stroke:#181818;stroke-width:0.5;" width="4" x="306.8035" y="223.29"/><text fill="#000000" font-family="sans-serif" font-size="14" lengthAdjust="spacing" textLength="55.6035" x="248.2" y="245.2851">models/</text></g><!--link Serveur to Stockage--><g class="link" data-entity-1="Serveur" data-entity-2="Stockage" data-source-line="9" data-uid="lnk8" id="link_Serveur_Stockage"><path d="M364,124.3449 C364,124.6175 364,124.8907 364,125.1646 C364,126.2601 364,127.3653 364,128.4791 C364,137.3901 364,146.8559 364,156.3212 C364,158.6876 364,161.0539 364,163.4115 C364,163.5588 364,157.7061 364,157.8534" fill="none" id="Serveur-to-Stockage" style="stroke:#181818;stroke-width:1;"/><polygon fill="#181818" points="364,163.8534,368,154.8534,364,158.8534,360,154.8534,364,163.8534" style="stroke:#181818;stroke-width:1;"/></g><!--SRC=[oyjFILK8JYqgIoqjKgZcKb18piyjoCzBpIjHK78Cy5HmIomk0T9Ag3B19KMfYRavcIKAZWK5IborN7bWOqhoaxCJqrF1vaId99OawiU2MBb0oPnY8BkM2sQJhguTN3a0]--></g></svg>