<svg xmlns="http://www.w3.org/2000/svg" xmlns:xlink="http://www.w3.org/1999/xlink" contentStyleType="text/css" data-diagram-type="STATE" height="582px" preserveAspectRatio="none" style="width:1187px;height:582px;background:#FFFFFF;" version="1.1" viewBox="0 0 1187 582" width="1187px" zoomAndPan="magnify"><defs/><g><ellipse cx="602.24" cy="16" fill="#222222" rx="10" ry="10" style="stroke:#222222;stroke-width:1;"/><g id="Inactif"><rect fill="#F1F1F1" height="50" rx="12.5" ry="12.5" style="stroke:#181818;stroke-width:0.5;" width="63.5859" x="570.45" y="87"/><line style="stroke:#181818;stroke-width:0.5;" x1="570.45" x2="634.0359" y1="113.2969" y2="113.2969"/><text fill="#000000" font-family="sans-serif" font-size="14" lengthAdjust="spacing" textLength="43.5859" x="580.45" y="104.9951">Inactif</text></g><g id="Actif_Mode_Main"><rect fill="#F1F1F1" height="64.2344" rx="12.5" ry="12.5" style="stroke:#181818;stroke-width:0.5;" width="197.8262" x="334.33" y="214"/><line style="stroke:#181818;stroke-width:0.5;" x1="334.33" x2="532.1562" y1="240.2969" y2="240.2969"/><text fill="#000000" font-family="sans-serif" font-size="14" lengthAdjust="spacing" textLength="117.1475" x="374.6694" y="231.9951">Actif_Mode_Main</text><text fill="#000000" font-family="sans-serif" font-size="12" lengthAdjust="spacing" textLength="156.1641" x="339.33" y="256.4355">do / D&#233;tecter gestes main</text><text fill="#000000" font-family="sans-serif" font-size="12" lengthAdjust="spacing" textLength="177.8262" x="339.33" y="270.4043">(Ex. SCROLL_UP, LEFT_CLICK)</text></g><g id="En_calibrage_Main"><rect fill="#F1F1F1" height="50.2656" rx="12.5" ry="12.5" style="stroke:#181818;stroke-width:0.5;" width="174.4883" x="7" y="377.21"/><line style="stroke:#181818;stroke-width:0.5;" x1="7" x2="181.4883" y1="403.5069" y2="403.5069"/><text fill="#000000" font-family="sans-serif" font-size="14" lengthAdjust="spacing" textLength="129.917" x="29.2856" y="395.2051">En_calibrage_Main</text><text fill="#000000" font-family="sans-serif" font-size="12" lengthAdjust="spacing" textLength="154.4883" x="12" y="419.6455">do / Collecter points main</text></g><g id="En_calibrage_Nez"><rect fill="#F1F1F1" height="50.2656" rx="12.5" ry="12.5" style="stroke:#181818;stroke-width:0.5;" width="165.793" x="720.35" y="526.46"/><line style="stroke:#181818;stroke-width:0.5;" x1="720.35" x2="886.143" y1="552.7569" y2="552.7569"/><text fill="#000000" font-family="sans-serif" font-size="14" lengthAdjust="spacing" textLength="122.9307" x="741.7812" y="544.4551">En_calibrage_Nez</text><text fill="#000000" font-family="sans-serif" font-size="12" lengthAdjust="spacing" textLength="145.793" x="725.35" y="568.8955">do / Collecter points nez</text></g><g id="Actif_Mode_Nez"><rect fill="#F1F1F1" height="64.2344" rx="12.5" ry="12.5" style="stroke:#181818;stroke-width:0.5;" width="154.6426" x="560.92" y="370.23"/><line style="stroke:#181818;stroke-width:0.5;" x1="560.92" x2="715.5626" y1="396.5269" y2="396.5269"/><text fill="#000000" font-family="sans-serif" font-size="14" lengthAdjust="spacing" textLength="110.1611" x="583.1607" y="388.2251">Actif_Mode_Nez</text><text fill="#000000" font-family="sans-serif" font-size="12" lengthAdjust="spacing" textLength="89.707" x="565.92" y="412.6655">do / Suivre nez</text><text fill="#000000" font-family="sans-serif" font-size="12" lengthAdjust="spacing" textLength="134.6426" x="565.92" y="426.6343">(Ex. D&#233;placer curseur)</text></g><!--link *start* to Inactif--><g class="link" data-entity-1="*start*" data-entity-2="Inactif" data-source-line="1" data-uid="lnk4" id="link_*start*_Inactif"><path d="M602.24,26.35 C602.24,40.28 602.24,60.95 602.24,80.64" fill="none" id="*start*-to-Inactif" style="stroke:#181818;stroke-width:1;"/><polygon fill="#181818" points="602.24,86.64,606.24,77.64,602.24,81.64,598.24,77.64,602.24,86.64" style="stroke:#181818;stroke-width:1;"/></g><!--link Inactif to Actif_Mode_Main--><g class="link" data-entity-1="Inactif" data-entity-2="Actif_Mode_Main" data-source-line="3" data-uid="lnk6" id="link_Inactif_Actif_Mode_Main"><path d="M593.47,137.21 C587.02,152.25 576.98,171.1 563.24,184 C550.79,195.69 541.0025,202.7112 525.5725,210.8112" fill="none" id="Inactif-to-Actif_Mode_Main" style="stroke:#181818;stroke-width:1;"/><polygon fill="#181818" points="520.26,213.6,530.0879,212.9585,524.6871,211.276,526.3695,205.8751,520.26,213.6" style="stroke:#181818;stroke-width:1;"/><text fill="#000000" font-family="sans-serif" font-size="13" lengthAdjust="spacing" textLength="144.041" x="578.24" y="180.0669">Clique sur "D&#233;marrer"</text></g><!--link Actif_Mode_Main to Inactif--><g class="link" data-entity-1="Actif_Mode_Main" data-entity-2="Inactif" data-source-line="9" data-uid="lnk14" id="link_Actif_Mode_Main_Inactif"><path d="M421.19,213.52 C417.46,198.12 416.53,180.14 426.24,167 C459.4,122.15 523.132,113.5049 564.172,112.4449" fill="none" id="Actif_Mode_Main-to-Inactif" style="stroke:#181818;stroke-width:1;"/><polygon fill="#181818" points="570.17,112.29,561.0697,108.5237,565.1717,112.4191,561.2763,116.521,570.17,112.29" style="stroke:#181818;stroke-width:1;"/><text fill="#000000" font-family="sans-serif" font-size="13" lengthAdjust="spacing" textLength="127.3911" x="427.24" y="180.0669">Clique sur "Arr&#234;ter"</text></g><!--link Inactif to En_calibrage_Main--><g class="link" data-entity-1="Inactif" data-entity-2="En_calibrage_Main" data-source-line="4" data-uid="lnk8" id="link_Inactif_En_calibrage_Main"><path d="M570.25,115.11 C470.52,122.32 167.8,149.23 98.24,214 C56.32,253.03 62.4,283.8 72.24,340.23 C74.42,352.67 76.6883,360.3525 81.0383,371.3225" fill="none" id="Inactif-to-En_calibrage_Main" style="stroke:#181818;stroke-width:1;"/><polygon fill="#181818" points="83.25,376.9,83.6508,367.0593,81.4069,372.2521,76.2142,370.0082,83.25,376.9" style="stroke:#181818;stroke-width:1;"/><text fill="#000000" font-family="sans-serif" font-size="13" lengthAdjust="spacing" textLength="217.439" x="99.24" y="250.6769">Clique sur "Calibrer" (Mode Main)</text></g><!--link Inactif to En_calibrage_Nez--><g class="link" data-entity-1="Inactif" data-entity-2="En_calibrage_Nez" data-source-line="5" data-uid="lnk10" id="link_Inactif_En_calibrage_Nez"><path d="M634.34,113.2 C697.09,115.51 835.69,130.35 902.24,214 C980.72,312.62 996.27,391.01 927.24,496.46 C917.47,511.4 907.9631,519.6104 891.8431,527.4704" fill="none" id="Inactif-to-En_calibrage_Nez" style="stroke:#181818;stroke-width:1;"/><polygon fill="#181818" points="886.45,530.1,896.2927,529.7509,890.9442,527.9087,892.7865,522.5602,886.45,530.1" style="stroke:#181818;stroke-width:1;"/><text fill="#000000" font-family="sans-serif" font-size="13" lengthAdjust="spacing" textLength="210.9517" x="968.24" y="328.7969">Clique sur "Calibrer" (Mode Nez)</text></g><!--link Actif_Mode_Main to Actif_Mode_Nez--><g class="link" data-entity-1="Actif_Mode_Main" data-entity-2="Actif_Mode_Nez" data-source-line="7" data-uid="lnk12" id="link_Actif_Mode_Main_Actif_Mode_Nez"><path d="M423,278.58 C418.69,298.18 417.26,322.88 430.24,340.23 C446.23,361.59 502.396,376.8557 554.606,387.2757" fill="none" id="Actif_Mode_Main-to-Actif_Mode_Nez" style="stroke:#181818;stroke-width:1;"/><polygon fill="#181818" points="560.49,388.45,552.4469,382.7659,555.5867,387.4714,550.8812,390.6112,560.49,388.45" style="stroke:#181818;stroke-width:1;"/><text fill="#000000" font-family="sans-serif" font-size="13" lengthAdjust="spacing" textLength="145.4692" x="431.24" y="328.7969">Clique sur "Mode Nez"</text></g><!--link Actif_Mode_Nez to Actif_Mode_Main--><g class="link" data-entity-1="Actif_Mode_Nez" data-entity-2="Actif_Mode_Main" data-source-line="12" data-uid="lnk15" id="link_Actif_Mode_Nez_Actif_Mode_Main"><path d="M625.12,369.74 C615.49,349.83 600.71,324.84 581.24,308.23 C566.97,296.05 555.3731,288.5859 538.0231,280.4559" fill="none" id="Actif_Mode_Nez-to-Actif_Mode_Main" style="stroke:#181818;stroke-width:1;"/><polygon fill="#181818" points="532.59,277.91,539.0424,285.3509,537.1176,280.0316,542.4369,278.1068,532.59,277.91" style="stroke:#181818;stroke-width:1;"/><text fill="#000000" font-family="sans-serif" font-size="13" lengthAdjust="spacing" textLength="151.9565" x="608.24" y="328.7969">Clique sur "Mode Main"</text></g><!--link Actif_Mode_Main to En_calibrage_Main--><g class="link" data-entity-1="Actif_Mode_Main" data-entity-2="En_calibrage_Main" data-source-line="8" data-uid="lnk13" id="link_Actif_Mode_Main_En_calibrage_Main"><path d="M333.94,265.43 C310.75,269.67 286.13,274.14 263.24,278.23 C225.05,285.06 116.21,278.53 91.24,308.23 C75.42,327.05 77.8105,350.5783 83.6905,371.2783" fill="none" id="Actif_Mode_Main-to-En_calibrage_Main" style="stroke:#181818;stroke-width:1;"/><polygon fill="#181818" points="85.33,377.05,86.7185,367.2995,83.9638,372.2403,79.023,369.4855,85.33,377.05" style="stroke:#181818;stroke-width:1;"/><text fill="#000000" font-family="sans-serif" font-size="13" lengthAdjust="spacing" textLength="132.5771" x="92.24" y="328.7969">Clique sur "Calibrer"</text></g><!--link En_calibrage_Main to Actif_Mode_Main--><g class="link" data-entity-1="En_calibrage_Main" data-entity-2="Actif_Mode_Main" data-source-line="17" data-uid="lnk18" id="link_En_calibrage_Main_Actif_Mode_Main"><path d="M151.2,376.76 C175.46,365.98 203.94,352.91 229.24,340.23 C255.56,327.04 260.74,321.04 287.24,308.23 C308.4,298 326.1652,290.1066 347.8352,281.0366" fill="none" id="En_calibrage_Main-to-Actif_Mode_Main" style="stroke:#181818;stroke-width:1;"/><polygon fill="#181818" points="353.37,278.72,343.5235,278.505,348.7577,280.6505,346.6123,285.8847,353.37,278.72" style="stroke:#181818;stroke-width:1;"/><text fill="#000000" font-family="sans-serif" font-size="13" lengthAdjust="spacing" textLength="117.165" x="291.6296" y="321.2969">Calibrage termin&#233;</text><text fill="#000000" font-family="sans-serif" font-size="13" lengthAdjust="spacing" textLength="123.9443" x="288.24" y="336.4297">(4 points collect&#233;s)</text></g><!--link Actif_Mode_Nez to En_calibrage_Nez--><g class="link" data-entity-1="Actif_Mode_Nez" data-entity-2="En_calibrage_Nez" data-source-line="13" data-uid="lnk16" id="link_Actif_Mode_Nez_En_calibrage_Nez"><path d="M715.78,430.53 C733.28,439.34 750.67,450.53 764.24,464.46 C780.97,481.63 789.5374,501.4947 795.3274,520.3347" fill="none" id="Actif_Mode_Nez-to-En_calibrage_Nez" style="stroke:#181818;stroke-width:1;"/><polygon fill="#181818" points="797.09,526.07,798.2696,516.292,795.6212,521.2906,790.6226,518.6422,797.09,526.07" style="stroke:#181818;stroke-width:1;"/><text fill="#000000" font-family="sans-serif" font-size="13" lengthAdjust="spacing" textLength="132.5771" x="786.24" y="485.0269">Clique sur "Calibrer"</text></g><!--link En_calibrage_Nez to Actif_Mode_Nez--><g class="link" data-entity-1="En_calibrage_Nez" data-entity-2="Actif_Mode_Nez" data-source-line="20" data-uid="lnk19" id="link_En_calibrage_Nez_Actif_Mode_Nez"><path d="M719.99,545.14 C686.87,538.38 651.8,524.48 631.24,496.46 C618.39,478.95 619.3353,460.0497 624.6553,440.4897" fill="none" id="En_calibrage_Nez-to-Actif_Mode_Nez" style="stroke:#181818;stroke-width:1;"/><polygon fill="#181818" points="626.23,434.7,620.0082,442.3347,624.9178,439.5247,627.7277,444.4343,626.23,434.7" style="stroke:#181818;stroke-width:1;"/><text fill="#000000" font-family="sans-serif" font-size="13" lengthAdjust="spacing" textLength="117.165" x="635.6296" y="477.5269">Calibrage termin&#233;</text><text fill="#000000" font-family="sans-serif" font-size="13" lengthAdjust="spacing" textLength="123.9443" x="632.24" y="492.6597">(4 points collect&#233;s)</text></g><!--link Actif_Mode_Nez to Inactif--><g class="link" data-entity-1="Actif_Mode_Nez" data-entity-2="Inactif" data-source-line="14" data-uid="lnk17" id="link_Actif_Mode_Nez_Inactif"><path d="M715.82,381.63 C736.36,372.5 756.15,359.28 768.24,340.23 C775.87,328.22 770.06,322.34 768.24,308.23 C759.95,243.87 773.8,215.98 731.24,167 C706.32,138.31 669.5231,125.7943 640.1231,119.4043" fill="none" id="Actif_Mode_Nez-to-Inactif" style="stroke:#181818;stroke-width:1;"/><polygon fill="#181818" points="634.26,118.13,642.2051,123.9502,639.1459,119.1919,643.9042,116.1328,634.26,118.13" style="stroke:#181818;stroke-width:1;"/><text fill="#000000" font-family="sans-serif" font-size="13" lengthAdjust="spacing" textLength="127.3911" x="766.24" y="250.6769">Clique sur "Arr&#234;ter"</text></g><!--SRC=[dP51JiCm44NtFiKegmPHsB3g0gaoGQf80L5OGHKPrrIM4gVOCKAzKRX6BiOuJH19NBMm6zdp_ip_ytooXF7u4cQAyKA-4T8KzUFKLSayNubapgI22T1Klbi1nce8hgeoOreB7NIWI2MSfV9LixKNe_KdKZ1ook1QmlqAjs9xG00xGaBwk_Rs7ygqRE15ZtRXfLitNMQgTVLL-9W9h78u1qoq41mxO2rC8Gna-FcYHj7d6IpemrqS9q_tfn17ruy9ZMVqfklRUJnyjf_G0nzxRFO-zW-kTygrwOML7rg04jl6AQQmIHd75BZLHbYDBeVds6EqRGASc4bLbIXw0PjSgi80pzCKywrA4nBVWUjzwAu9npUKEq9l0q_IJLR_c_yhZi5u3EOR]--></g></svg>