<svg xmlns="http://www.w3.org/2000/svg" xmlns:xlink="http://www.w3.org/1999/xlink" contentStyleType="text/css" data-diagram-type="DESCRIPTION" height="581px" preserveAspectRatio="none" style="width:2214px;height:581px;background:#FFFFFF;" version="1.1" viewBox="0 0 2214 581" width="2214px" zoomAndPan="magnify"><defs/><g><!--cluster interface--><g class="cluster" data-entity="interface" data-source-line="1" data-uid="ent0002" id="cluster_interface"><path d="M8.5,6 L80.6895,6 A3.75,3.75 0 0 1 83.1895,8.5 L90.1895,28.2969 L363.5,28.2969 A2.5,2.5 0 0 1 366,30.7969 L366,277.1 A2.5,2.5 0 0 1 363.5,279.6 L8.5,279.6 A2.5,2.5 0 0 1 6,277.1 L6,8.5 A2.5,2.5 0 0 1 8.5,6" fill="none" style="stroke:#000000;stroke-width:1.5;"/><line style="stroke:#000000;stroke-width:1.5;" x1="6" x2="90.1895" y1="28.2969" y2="28.2969"/><text fill="#000000" font-family="sans-serif" font-size="14" font-weight="bold" lengthAdjust="spacing" textLength="71.1895" x="10" y="20.9951">interface</text></g><!--cluster core--><g class="cluster" data-entity="core" data-source-line="7" data-uid="ent0006" id="cluster_core"><path d="M927.5,166.3 L962.8164,166.3 A3.75,3.75 0 0 1 965.3164,168.8 L972.3164,188.5969 L1519.5,188.5969 A2.5,2.5 0 0 1 1522,191.0969 L1522,455.39 A2.5,2.5 0 0 1 1519.5,457.89 L927.5,457.89 A2.5,2.5 0 0 1 925,455.39 L925,168.8 A2.5,2.5 0 0 1 927.5,166.3" fill="none" style="stroke:#000000;stroke-width:1.5;"/><line style="stroke:#000000;stroke-width:1.5;" x1="925" x2="972.3164" y1="188.5969" y2="188.5969"/><text fill="#000000" font-family="sans-serif" font-size="14" font-weight="bold" lengthAdjust="spacing" textLength="34.3164" x="929" y="181.2951">core</text></g><!--cluster utils--><g class="cluster" data-entity="utils" data-source-line="16" data-uid="ent0013" id="cluster_utils"><path d="M1833.5,344.6 L1869.0898,344.6 A3.75,3.75 0 0 1 1871.5898,347.1 L1878.5898,366.8969 L2169.5,366.8969 A2.5,2.5 0 0 1 2172,369.3969 L2172,455.39 A2.5,2.5 0 0 1 2169.5,457.89 L1833.5,457.89 A2.5,2.5 0 0 1 1831,455.39 L1831,347.1 A2.5,2.5 0 0 1 1833.5,344.6" fill="none" style="stroke:#000000;stroke-width:1.5;"/><line style="stroke:#000000;stroke-width:1.5;" x1="1831" x2="1878.5898" y1="366.8969" y2="366.8969"/><text fill="#000000" font-family="sans-serif" font-size="14" font-weight="bold" lengthAdjust="spacing" textLength="34.5898" x="1835" y="359.5951">utils</text></g><!--cluster chatbot--><g class="cluster" data-entity="chatbot" data-source-line="21" data-uid="ent0016" id="cluster_chatbot"><path d="M489.5,166.3 L551.2373,166.3 A3.75,3.75 0 0 1 553.7373,168.8 L560.7373,188.5969 L882.5,188.5969 A2.5,2.5 0 0 1 885,191.0969 L885,277.1 A2.5,2.5 0 0 1 882.5,279.6 L489.5,279.6 A2.5,2.5 0 0 1 487,277.1 L487,168.8 A2.5,2.5 0 0 1 489.5,166.3" fill="none" style="stroke:#000000;stroke-width:1.5;"/><line style="stroke:#000000;stroke-width:1.5;" x1="487" x2="560.7373" y1="188.5969" y2="188.5969"/><text fill="#000000" font-family="sans-serif" font-size="14" font-weight="bold" lengthAdjust="spacing" textLength="60.7373" x="491" y="181.2951">chatbot</text></g><!--entity MainWindow--><g class="entity" data-entity="MainWindow" data-source-line="2" data-uid="ent0003" id="entity_MainWindow"><rect fill="#F1F1F1" height="46.2969" rx="2.5" ry="2.5" style="stroke:#181818;stroke-width:0.5;" width="128.9287" x="29.54" y="49"/><rect fill="#F1F1F1" height="10" style="stroke:#181818;stroke-width:0.5;" width="15" x="138.4687" y="54"/><rect fill="#F1F1F1" height="2" style="stroke:#181818;stroke-width:0.5;" width="4" x="136.4687" y="56"/><rect fill="#F1F1F1" height="2" style="stroke:#181818;stroke-width:0.5;" width="4" x="136.4687" y="60"/><text fill="#000000" font-family="sans-serif" font-size="14" lengthAdjust="spacing" textLength="88.9287" x="44.54" y="81.9951">MainWindow</text></g><!--entity VideoThread--><g class="entity" data-entity="VideoThread" data-source-line="3" data-uid="ent0004" id="entity_VideoThread"><rect fill="#F1F1F1" height="46.2969" rx="2.5" ry="2.5" style="stroke:#181818;stroke-width:0.5;" width="128.792" x="193.6" y="49"/><rect fill="#F1F1F1" height="10" style="stroke:#181818;stroke-width:0.5;" width="15" x="302.392" y="54"/><rect fill="#F1F1F1" height="2" style="stroke:#181818;stroke-width:0.5;" width="4" x="300.392" y="56"/><rect fill="#F1F1F1" height="2" style="stroke:#181818;stroke-width:0.5;" width="4" x="300.392" y="60"/><text fill="#000000" font-family="sans-serif" font-size="14" lengthAdjust="spacing" textLength="88.792" x="208.6" y="81.9951">VideoThread</text></g><!--entity CalibratorDialog--><g class="entity" data-entity="CalibratorDialog" data-source-line="4" data-uid="ent0005" id="entity_CalibratorDialog"><rect fill="#F1F1F1" height="46.2969" rx="2.5" ry="2.5" style="stroke:#181818;stroke-width:0.5;" width="153.7568" x="30.12" y="209.3"/><rect fill="#F1F1F1" height="10" style="stroke:#181818;stroke-width:0.5;" width="15" x="163.8768" y="214.3"/><rect fill="#F1F1F1" height="2" style="stroke:#181818;stroke-width:0.5;" width="4" x="161.8768" y="216.3"/><rect fill="#F1F1F1" height="2" style="stroke:#181818;stroke-width:0.5;" width="4" x="161.8768" y="220.3"/><text fill="#000000" font-family="sans-serif" font-size="14" lengthAdjust="spacing" textLength="113.7568" x="45.12" y="242.2951">CalibratorDialog</text></g><!--entity HandTracker--><g class="entity" data-entity="HandTracker" data-source-line="8" data-uid="ent0007" id="entity_HandTracker"><rect fill="#F1F1F1" height="46.2969" rx="2.5" ry="2.5" style="stroke:#181818;stroke-width:0.5;" width="129.9268" x="962.04" y="209.3"/><rect fill="#F1F1F1" height="10" style="stroke:#181818;stroke-width:0.5;" width="15" x="1071.9668" y="214.3"/><rect fill="#F1F1F1" height="2" style="stroke:#181818;stroke-width:0.5;" width="4" x="1069.9668" y="216.3"/><rect fill="#F1F1F1" height="2" style="stroke:#181818;stroke-width:0.5;" width="4" x="1069.9668" y="220.3"/><text fill="#000000" font-family="sans-serif" font-size="14" lengthAdjust="spacing" textLength="89.9268" x="977.04" y="242.2951">HandTracker</text></g><!--entity FaceTracker--><g class="entity" data-entity="FaceTracker" data-source-line="9" data-uid="ent0008" id="entity_FaceTracker"><rect fill="#F1F1F1" height="46.2969" rx="2.5" ry="2.5" style="stroke:#181818;stroke-width:0.5;" width="126.0029" x="1127" y="209.3"/><rect fill="#F1F1F1" height="10" style="stroke:#181818;stroke-width:0.5;" width="15" x="1233.0029" y="214.3"/><rect fill="#F1F1F1" height="2" style="stroke:#181818;stroke-width:0.5;" width="4" x="1231.0029" y="216.3"/><rect fill="#F1F1F1" height="2" style="stroke:#181818;stroke-width:0.5;" width="4" x="1231.0029" y="220.3"/><text fill="#000000" font-family="sans-serif" font-size="14" lengthAdjust="spacing" textLength="86.0029" x="1142" y="242.2951">FaceTracker</text></g><!--entity FeatureExtractor--><g class="entity" data-entity="FeatureExtractor" data-source-line="10" data-uid="ent0009" id="entity_FeatureExtractor"><rect fill="#F1F1F1" height="46.2969" rx="2.5" ry="2.5" style="stroke:#181818;stroke-width:0.5;" width="158.4395" x="1287.78" y="209.3"/><rect fill="#F1F1F1" height="10" style="stroke:#181818;stroke-width:0.5;" width="15" x="1426.2195" y="214.3"/><rect fill="#F1F1F1" height="2" style="stroke:#181818;stroke-width:0.5;" width="4" x="1424.2195" y="216.3"/><rect fill="#F1F1F1" height="2" style="stroke:#181818;stroke-width:0.5;" width="4" x="1424.2195" y="220.3"/><text fill="#000000" font-family="sans-serif" font-size="14" lengthAdjust="spacing" textLength="118.4395" x="1302.78" y="242.2951">FeatureExtractor</text></g><!--entity GestureAnalyzer--><g class="entity" data-entity="GestureAnalyzer" data-source-line="11" data-uid="ent0010" id="entity_GestureAnalyzer"><rect fill="#F1F1F1" height="46.2969" rx="2.5" ry="2.5" style="stroke:#181818;stroke-width:0.5;" width="156.4092" x="948.8" y="387.6"/><rect fill="#F1F1F1" height="10" style="stroke:#181818;stroke-width:0.5;" width="15" x="1085.2092" y="392.6"/><rect fill="#F1F1F1" height="2" style="stroke:#181818;stroke-width:0.5;" width="4" x="1083.2092" y="394.6"/><rect fill="#F1F1F1" height="2" style="stroke:#181818;stroke-width:0.5;" width="4" x="1083.2092" y="398.6"/><text fill="#000000" font-family="sans-serif" font-size="14" lengthAdjust="spacing" textLength="116.4092" x="963.8" y="420.5951">GestureAnalyzer</text></g><!--entity GestureClassifier--><g class="entity" data-entity="GestureClassifier" data-source-line="12" data-uid="ent0011" id="entity_GestureClassifier"><rect fill="#F1F1F1" height="46.2969" rx="2.5" ry="2.5" style="stroke:#181818;stroke-width:0.5;" width="159.3965" x="1140.3" y="387.6"/><rect fill="#F1F1F1" height="10" style="stroke:#181818;stroke-width:0.5;" width="15" x="1279.6965" y="392.6"/><rect fill="#F1F1F1" height="2" style="stroke:#181818;stroke-width:0.5;" width="4" x="1277.6965" y="394.6"/><rect fill="#F1F1F1" height="2" style="stroke:#181818;stroke-width:0.5;" width="4" x="1277.6965" y="398.6"/><text fill="#000000" font-family="sans-serif" font-size="14" lengthAdjust="spacing" textLength="119.3965" x="1155.3" y="420.5951">GestureClassifier</text></g><!--entity CursorController--><g class="entity" data-entity="CursorController" data-source-line="13" data-uid="ent0012" id="entity_CursorController"><rect fill="#F1F1F1" height="46.2969" rx="2.5" ry="2.5" style="stroke:#181818;stroke-width:0.5;" width="155.1924" x="1334.4" y="387.6"/><rect fill="#F1F1F1" height="10" style="stroke:#181818;stroke-width:0.5;" width="15" x="1469.5924" y="392.6"/><rect fill="#F1F1F1" height="2" style="stroke:#181818;stroke-width:0.5;" width="4" x="1467.5924" y="394.6"/><rect fill="#F1F1F1" height="2" style="stroke:#181818;stroke-width:0.5;" width="4" x="1467.5924" y="398.6"/><text fill="#000000" font-family="sans-serif" font-size="14" lengthAdjust="spacing" textLength="115.1924" x="1349.4" y="420.5951">CursorController</text></g><!--entity Calibrator--><g class="entity" data-entity="Calibrator" data-source-line="17" data-uid="ent0014" id="entity_Calibrator"><rect fill="#F1F1F1" height="46.2969" rx="2.5" ry="2.5" style="stroke:#181818;stroke-width:0.5;" width="109.166" x="1855.42" y="387.6"/><rect fill="#F1F1F1" height="10" style="stroke:#181818;stroke-width:0.5;" width="15" x="1944.586" y="392.6"/><rect fill="#F1F1F1" height="2" style="stroke:#181818;stroke-width:0.5;" width="4" x="1942.586" y="394.6"/><rect fill="#F1F1F1" height="2" style="stroke:#181818;stroke-width:0.5;" width="4" x="1942.586" y="398.6"/><text fill="#000000" font-family="sans-serif" font-size="14" lengthAdjust="spacing" textLength="69.166" x="1870.42" y="420.5951">Calibrator</text></g><!--entity KalmanFilter--><g class="entity" data-entity="KalmanFilter" data-source-line="18" data-uid="ent0015" id="entity_KalmanFilter"><rect fill="#F1F1F1" height="46.2969" rx="2.5" ry="2.5" style="stroke:#181818;stroke-width:0.5;" width="128.4297" x="1999.79" y="387.6"/><rect fill="#F1F1F1" height="10" style="stroke:#181818;stroke-width:0.5;" width="15" x="2108.2197" y="392.6"/><rect fill="#F1F1F1" height="2" style="stroke:#181818;stroke-width:0.5;" width="4" x="2106.2197" y="394.6"/><rect fill="#F1F1F1" height="2" style="stroke:#181818;stroke-width:0.5;" width="4" x="2106.2197" y="398.6"/><text fill="#000000" font-family="sans-serif" font-size="14" lengthAdjust="spacing" textLength="88.4297" x="2014.79" y="420.5951">KalmanFilter</text></g><!--entity FAQEngine--><g class="entity" data-entity="FAQEngine" data-source-line="22" data-uid="ent0017" id="entity_FAQEngine"><rect fill="#F1F1F1" height="46.2969" rx="2.5" ry="2.5" style="stroke:#181818;stroke-width:0.5;" width="116.6309" x="510.68" y="209.3"/><rect fill="#F1F1F1" height="10" style="stroke:#181818;stroke-width:0.5;" width="15" x="607.3109" y="214.3"/><rect fill="#F1F1F1" height="2" style="stroke:#181818;stroke-width:0.5;" width="4" x="605.3109" y="216.3"/><rect fill="#F1F1F1" height="2" style="stroke:#181818;stroke-width:0.5;" width="4" x="605.3109" y="220.3"/><text fill="#000000" font-family="sans-serif" font-size="14" lengthAdjust="spacing" textLength="76.6309" x="525.68" y="242.2951">FAQEngine</text></g><!--entity ResponseGenerator--><g class="entity" data-entity="ResponseGenerator" data-source-line="23" data-uid="ent0018" id="entity_ResponseGenerator"><rect fill="#F1F1F1" height="46.2969" rx="2.5" ry="2.5" style="stroke:#181818;stroke-width:0.5;" width="178.9609" x="662.52" y="209.3"/><rect fill="#F1F1F1" height="10" style="stroke:#181818;stroke-width:0.5;" width="15" x="821.4809" y="214.3"/><rect fill="#F1F1F1" height="2" style="stroke:#181818;stroke-width:0.5;" width="4" x="819.4809" y="216.3"/><rect fill="#F1F1F1" height="2" style="stroke:#181818;stroke-width:0.5;" width="4" x="819.4809" y="220.3"/><text fill="#000000" font-family="sans-serif" font-size="14" lengthAdjust="spacing" textLength="138.9609" x="677.52" y="242.2951">ResponseGenerator</text></g><!--entity PyQt5--><g class="entity" data-entity="PyQt5" data-source-line="31" data-uid="ent0023" id="entity_PyQt5"><rect fill="#F1F1F1" height="46.2969" rx="2.5" ry="2.5" style="stroke:#181818;stroke-width:0.5;" width="82.1436" x="509.93" y="387.6"/><rect fill="#F1F1F1" height="10" style="stroke:#181818;stroke-width:0.5;" width="15" x="572.0736" y="392.6"/><rect fill="#F1F1F1" height="2" style="stroke:#181818;stroke-width:0.5;" width="4" x="570.0736" y="394.6"/><rect fill="#F1F1F1" height="2" style="stroke:#181818;stroke-width:0.5;" width="4" x="570.0736" y="398.6"/><text fill="#000000" font-family="sans-serif" font-size="14" lengthAdjust="spacing" textLength="42.1436" x="524.93" y="420.5951">PyQt5</text></g><!--entity MediaPipe--><g class="entity" data-entity="MediaPipe" data-source-line="32" data-uid="ent0025" id="entity_MediaPipe"><rect fill="#F1F1F1" height="46.2969" rx="2.5" ry="2.5" style="stroke:#181818;stroke-width:0.5;" width="111.8799" x="1695.06" y="387.6"/><rect fill="#F1F1F1" height="10" style="stroke:#181818;stroke-width:0.5;" width="15" x="1786.9399" y="392.6"/><rect fill="#F1F1F1" height="2" style="stroke:#181818;stroke-width:0.5;" width="4" x="1784.9399" y="394.6"/><rect fill="#F1F1F1" height="2" style="stroke:#181818;stroke-width:0.5;" width="4" x="1784.9399" y="398.6"/><text fill="#000000" font-family="sans-serif" font-size="14" lengthAdjust="spacing" textLength="71.8799" x="1710.06" y="420.5951">MediaPipe</text></g><!--entity OpenCV--><g class="entity" data-entity="OpenCV" data-source-line="33" data-uid="ent0027" id="entity_OpenCV"><rect fill="#F1F1F1" height="46.2969" rx="2.5" ry="2.5" style="stroke:#181818;stroke-width:0.5;" width="96.7451" x="812.63" y="528.89"/><rect fill="#F1F1F1" height="10" style="stroke:#181818;stroke-width:0.5;" width="15" x="889.3751" y="533.89"/><rect fill="#F1F1F1" height="2" style="stroke:#181818;stroke-width:0.5;" width="4" x="887.3751" y="535.89"/><rect fill="#F1F1F1" height="2" style="stroke:#181818;stroke-width:0.5;" width="4" x="887.3751" y="539.89"/><text fill="#000000" font-family="sans-serif" font-size="14" lengthAdjust="spacing" textLength="56.7451" x="827.63" y="561.8851">OpenCV</text></g><!--entity PyAutoGUI--><g class="entity" data-entity="PyAutoGUI" data-source-line="34" data-uid="ent0029" id="entity_PyAutoGUI"><rect fill="#F1F1F1" height="46.2969" rx="2.5" ry="2.5" style="stroke:#181818;stroke-width:0.5;" width="114.457" x="1545.77" y="387.6"/><rect fill="#F1F1F1" height="10" style="stroke:#181818;stroke-width:0.5;" width="15" x="1640.227" y="392.6"/><rect fill="#F1F1F1" height="2" style="stroke:#181818;stroke-width:0.5;" width="4" x="1638.227" y="394.6"/><rect fill="#F1F1F1" height="2" style="stroke:#181818;stroke-width:0.5;" width="4" x="1638.227" y="398.6"/><text fill="#000000" font-family="sans-serif" font-size="14" lengthAdjust="spacing" textLength="74.457" x="1560.77" y="420.5951">PyAutoGUI</text></g><!--link interface to core--><g class="link" data-entity-1="interface" data-entity-2="core" data-source-line="26" data-uid="lnk19" id="link_interface_core"><path d="M367.0828,73.0634 C367.5074,73.0597 367.9462,73.0559 368.3993,73.0521 C369.3054,73.0443 370.2683,73.0362 371.2871,73.0279 C379.4374,72.9612 391.1632,72.8775 405.9769,72.804 C435.6043,72.657 477.5834,72.5509 528.0136,72.7031 C628.8741,73.0075 763.5394,74.345 900.8063,78.455 C1175.34,86.675 1460.28,105.985 1506,150.3 C1509.1513,153.3538 1511.6566,156.8578 1513.6262,160.6584 C1514.1186,161.6085 1514.5775,162.5772 1515.0047,163.562 C1515.2182,164.0544 1515.4239,164.5508 1515.6218,165.0509 C1515.7208,165.301 1515.8178,165.552 1515.9129,165.8039 C1515.9605,165.9299 1513.9315,182.7235 1513.9781,182.8499" fill="none" id="interface-to-core" style="stroke:#181818;stroke-width:1;"/><polygon fill="#181818" points="1516.0542,188.4793,1516.6931,178.6512,1514.3242,183.7882,1509.1872,181.4193,1516.0542,188.4793" style="stroke:#181818;stroke-width:1;"/><text fill="#000000" font-family="sans-serif" font-size="13" lengthAdjust="spacing" textLength="38.9429" x="1492" y="138.3669">utilise</text></g><!--link interface to utils--><g class="link" data-entity-1="interface" data-entity-2="utils" data-source-line="27" data-uid="lnk20" id="link_interface_utils"><path d="M367.1156,73.2096 C367.9118,73.2152 368.7583,73.2213 369.6542,73.2279 C376.8219,73.2803 387.1583,73.362 400.2806,73.482 C426.5251,73.7219 463.913,74.1147 509.3817,74.7313 C600.3191,75.9644 723.5794,78.0925 854.6613,81.6825 C1116.825,88.8625 1410.275,101.89 1539,125.3 C1790.16,170.97 1845.93,214.1 2085,303.6 C2111.67,313.58 2125.53,306.92 2144,328.6 C2146.9175,332.0225 2149.4217,335.8059 2151.57,339.8127 C2152.107,340.8144 2152.6218,341.8301 2153.1153,342.8575 C2153.362,343.3713 2151.1198,360.723 2151.356,361.2423" fill="none" id="interface-to-utils" style="stroke:#181818;stroke-width:1;"/><polygon fill="#181818" points="2153.8396,366.7042,2153.7554,356.8557,2151.7699,362.1526,2146.473,360.1671,2153.8396,366.7042" style="stroke:#181818;stroke-width:1;"/><text fill="#000000" font-family="sans-serif" font-size="13" lengthAdjust="spacing" textLength="38.9429" x="2062" y="237.0169">utilise</text></g><!--link interface to chatbot--><g class="link" data-entity-1="interface" data-entity-2="chatbot" data-source-line="28" data-uid="lnk21" id="link_interface_chatbot"><path d="M366.6283,73.2262 C367.6448,73.2381 368.7459,73.2519 369.929,73.2678 C372.295,73.2996 374.9886,73.3398 377.9873,73.3905 C389.982,73.5935 406.8591,73.9658 427.1881,74.6466 C467.8463,76.0081 522.3125,78.6038 579.145,83.5475 C692.81,93.435 815.94,112.715 857,150.3 C860.3175,153.3375 863.1248,156.8292 865.4969,160.6206 C866.09,161.5685 866.6558,162.5351 867.1956,163.518 C867.4655,164.0094 867.7288,164.5049 867.9859,165.0042 C868.1144,165.2539 868.2413,165.5045 868.3666,165.756 C868.4293,165.8817 865.8497,182.9175 865.9116,183.0437" fill="none" id="interface-to-chatbot" style="stroke:#181818;stroke-width:1;"/><polygon fill="#181818" points="868.5535,188.4308,868.182,178.5889,866.3519,183.9416,860.9993,182.1115,868.5535,188.4308" style="stroke:#181818;stroke-width:1;"/><text fill="#000000" font-family="sans-serif" font-size="13" lengthAdjust="spacing" textLength="38.9429" x="847" y="138.3669">utilise</text></g><!--link core to utils--><g class="link" data-entity-1="core" data-entity-2="utils" data-source-line="29" data-uid="lnk22" id="link_core_utils"><path d="M1522.5278,235.144 C1524.2401,235.4822 1526.1989,235.8681 1528.3937,236.2991 C1537.173,238.023 1549.7298,240.4682 1565.402,243.4658 C1596.7466,249.4609 1640.5531,257.6656 1691.5263,266.7288 C1793.4725,284.855 1924.085,306.415 2041,320.6 C2052.4,321.98 2135.25,321.17 2144,328.6 C2147.4313,331.5088 2150.3247,334.903 2152.7603,338.6224 C2153.978,340.4821 2152.403,359.351 2153.4019,361.3533" fill="none" id="core-to-utils" style="stroke:#181818;stroke-width:1;"/><polygon fill="#181818" points="2156.0802,366.7224,2155.6421,356.8833,2153.8483,362.2482,2148.4834,360.4543,2156.0802,366.7224" style="stroke:#181818;stroke-width:1;"/><text fill="#000000" font-family="sans-serif" font-size="13" lengthAdjust="spacing" textLength="38.9429" x="2042" y="316.6669">utilise</text></g><!--link interface to PyQt5--><g class="link" data-entity-1="interface" data-entity-2="PyQt5" data-source-line="31" data-uid="lnk24" id="link_interface_PyQt5"><path d="M366.0212,157.2898 C366.079,157.6407 366.1371,157.9922 366.1957,158.3443 C366.4301,159.7526 366.6712,161.1701 366.9191,162.5961 C367.4151,165.4482 367.9385,168.3342 368.4911,171.2488 C369.5962,177.078 370.8177,183.0216 372.1678,189.0361 C374.8679,201.0652 378.0823,213.3783 381.9091,225.6284 C389.5625,250.1288 399.665,274.3775 413,295.6 C437.65,334.82 475.2959,363.8264 506.6959,383.9164" fill="none" id="interface-to-PyQt5" style="stroke:#181818;stroke-width:1;stroke-dasharray:7.0,7.0;"/><polygon fill="#181818" points="511.75,387.15,506.3247,378.9302,507.5383,384.4553,502.0131,385.6689,511.75,387.15" style="stroke:#181818;stroke-width:1;"/><text fill="#000000" font-family="sans-serif" font-size="13" lengthAdjust="spacing" textLength="80.3423" x="414" y="237.0169">d&#233;pendance</text></g><!--link core to MediaPipe--><g class="link" data-entity-1="core" data-entity-2="MediaPipe" data-source-line="32" data-uid="lnk26" id="link_core_MediaPipe"><path d="M1522.0897,236.6388 C1523.0274,237.0191 1524.0389,237.4324 1525.1199,237.8781 C1527.2819,238.7695 1529.7223,239.7907 1532.4081,240.9372 C1543.1513,245.5231 1557.82,252.1138 1574.3,260.4225 C1607.26,277.04 1647.465,300.53 1678,328.6 C1698.09,347.06 1714.8279,365.8298 1728.9879,382.7398" fill="none" id="core-to-MediaPipe" style="stroke:#181818;stroke-width:1;stroke-dasharray:7.0,7.0;"/><polygon fill="#181818" points="1732.84,387.34,1730.1287,377.8717,1729.6299,383.5065,1723.9951,383.0078,1732.84,387.34" style="stroke:#181818;stroke-width:1;"/><text fill="#000000" font-family="sans-serif" font-size="13" lengthAdjust="spacing" textLength="80.3423" x="1667" y="316.6669">d&#233;pendance</text></g><!--link core to OpenCV--><g class="link" data-entity-1="core" data-entity-2="OpenCV" data-source-line="33" data-uid="lnk28" id="link_core_OpenCV"><path d="M923.1434,310.3694 C922.3601,310.4323 921.5816,310.4963 920.808,310.5616 C919.2608,310.6921 917.7333,310.8275 916.2259,310.9677 C913.211,311.2483 910.2766,311.5485 907.4264,311.8693 C901.7259,312.511 896.3625,313.2352 891.3664,314.0492 C871.382,317.3053 857.2763,321.9988 851,328.6 C799.05,383.22 829.7411,478.1621 848.4111,522.9421" fill="none" id="core-to-OpenCV" style="stroke:#181818;stroke-width:1;stroke-dasharray:7.0,7.0;"/><polygon fill="#181818" points="850.72,528.48,850.9486,518.6338,848.7959,523.865,843.5647,521.7124,850.72,528.48" style="stroke:#181818;stroke-width:1;"/><text fill="#000000" font-family="sans-serif" font-size="13" lengthAdjust="spacing" textLength="80.3423" x="852" y="415.3069">d&#233;pendance</text></g><!--link core to PyAutoGUI--><g class="link" data-entity-1="core" data-entity-2="PyAutoGUI" data-source-line="34" data-uid="lnk30" id="link_core_PyAutoGUI"><path d="M1522.0209,249.3397 C1522.1008,249.4979 1522.1811,249.6571 1522.262,249.8172 C1522.4237,250.1375 1522.5874,250.4617 1522.753,250.7897 C1523.0843,251.4457 1523.4232,252.1169 1523.7695,252.8028 C1529.3109,263.7775 1536.7481,278.5088 1544.8538,294.565 C1561.065,326.6775 1577.2465,358.7336 1588.9865,381.9936" fill="none" id="core-to-PyAutoGUI" style="stroke:#181818;stroke-width:1;stroke-dasharray:7.0,7.0;"/><polygon fill="#181818" points="1591.69,387.35,1591.2056,377.5131,1589.4371,382.8863,1584.0638,381.1178,1591.69,387.35" style="stroke:#181818;stroke-width:1;"/><text fill="#000000" font-family="sans-serif" font-size="13" lengthAdjust="spacing" textLength="80.3423" x="1556" y="316.6669">d&#233;pendance</text></g><!--link utils to OpenCV--><g class="link" data-entity-1="utils" data-entity-2="OpenCV" data-source-line="35" data-uid="lnk31" id="link_utils_OpenCV"><path d="M2156.2397,457.8989 C2156.146,458.0983 2156.0512,458.2972 2155.9553,458.4955 C2155.7635,458.892 2155.5673,459.2861 2155.3665,459.6776 C2154.965,460.4606 2154.5454,461.233 2154.1069,461.9928 C2153.2299,463.5125 2152.2773,464.9821 2151.2427,466.3856 C2149.1734,469.1928 2146.7763,471.7363 2144,473.89 C2044.99,550.7 1137.94,552.1419 915.63,551.3319" fill="none" id="utils-to-OpenCV" style="stroke:#181818;stroke-width:1;stroke-dasharray:7.0,7.0;"/><polygon fill="#181818" points="909.63,551.31,918.6154,555.3428,914.63,551.3282,918.6445,547.3428,909.63,551.31" style="stroke:#181818;stroke-width:1;"/><text fill="#000000" font-family="sans-serif" font-size="13" lengthAdjust="spacing" textLength="80.3423" x="2126" y="494.9569">d&#233;pendance</text></g><!--link chatbot to PyQt5--><g class="link" data-entity-1="chatbot" data-entity-2="PyQt5" data-source-line="36" data-uid="lnk32" id="link_chatbot_PyQt5"><path d="M869.2397,279.6076 C869.146,279.807 869.0512,280.0059 868.9553,280.2042 C868.7635,280.6008 868.5673,280.995 868.3665,281.3865 C867.965,282.1696 867.5454,282.942 867.1069,283.702 C866.2299,285.2219 865.2773,286.6915 864.2427,288.0952 C862.1734,290.9027 859.7763,293.4463 857,295.6 C845.3,304.67 738.12,299.15 724,303.6 C667.37,321.44 615.0539,358.068 582.6839,383.558" fill="none" id="chatbot-to-PyQt5" style="stroke:#181818;stroke-width:1;stroke-dasharray:7.0,7.0;"/><polygon fill="#181818" points="577.97,387.27,587.5155,384.8446,581.8983,384.1767,582.5662,378.5594,577.97,387.27" style="stroke:#181818;stroke-width:1;"/><text fill="#000000" font-family="sans-serif" font-size="13" lengthAdjust="spacing" textLength="80.3423" x="725" y="316.6669">d&#233;pendance</text></g><!--SRC=[VP11JiCm44NtEONLVRjZmm8f2cr0gA95fIogBARnj1rXnf7j20hYG9o3Y-4OfpGKifplz__ySGNb8snH38WTcWsKE11lYH2hAH0_44lzN3JZaYJgnSuWo31de6Xjm6bpIQ3qjaZUawHgmqfjsfmhOBam_W5DC4xyYiwCu6g3unVdHHyNn1nj8wOCQl-A7IrJO2rjAAfPRQmscMPdj5ADUDoZTgHiBFBJE1XlG3q1JqYvtwPo1swjNRHDqlcOjyGON7TeAyqMSsICMTwwEdnU8OR32x5gxY_4kMZsayLJ81Jh9MAB3lCT-tT09s4qyiXiFtTd3I8_Fofa2LmUCW8mHKamemhxe5klPii-OhPFQwVp- -iJA9RipMdF_BVo5m00]--></g></svg>