<svg xmlns="http://www.w3.org/2000/svg" xmlns:xlink="http://www.w3.org/1999/xlink" contentStyleType="text/css" data-diagram-type="DESCRIPTION" height="579px" preserveAspectRatio="none" style="width:1270px;height:579px;background:#FFFFFF;" version="1.1" viewBox="0 0 1270 579" width="1270px" zoomAndPan="magnify"><defs/><g><!--cluster energy_demand_forecasting--><g class="cluster" data-entity="energy_demand_forecasting" data-source-line="2" data-uid="ent0002" id="cluster_energy_demand_forecasting"><rect fill="none" height="566.19" rx="2.5" ry="2.5" style="stroke:#181818;stroke-width:1;" width="1257" x="7" y="7"/><text fill="#000000" font-family="sans-serif" font-size="14" font-weight="bold" lengthAdjust="spacing" textLength="222.2158" x="524.3921" y="21.9951">energy_demand_forecasting</text></g><!--cluster data--><g class="cluster" data-entity="data" data-source-line="3" data-uid="ent0003" id="cluster_data"><rect fill="none" height="226.6" rx="2.5" ry="2.5" style="stroke:#181818;stroke-width:1;" width="395" x="31" y="68.5"/><text fill="#000000" font-family="sans-serif" font-size="14" font-weight="bold" lengthAdjust="spacing" textLength="35.6084" x="210.6958" y="83.4951">data</text></g><!--cluster notebooks--><g class="cluster" data-entity="notebooks" data-source-line="10" data-uid="ent0009" id="cluster_notebooks"><rect fill="none" height="399.89" rx="2.5" ry="2.5" style="stroke:#181818;stroke-width:1;" width="514" x="450" y="50"/><text fill="#000000" font-family="sans-serif" font-size="14" font-weight="bold" lengthAdjust="spacing" textLength="82.6738" x="665.6631" y="64.9951">notebooks</text></g><!--cluster src--><g class="cluster" data-entity="src" data-source-line="20" data-uid="ent0018" id="cluster_src"><rect fill="none" height="208.09" rx="2.5" ry="2.5" style="stroke:#181818;stroke-width:1;" width="263" x="41" y="341.1"/><text fill="#000000" font-family="sans-serif" font-size="14" font-weight="bold" lengthAdjust="spacing" textLength="23.5361" x="160.7319" y="356.0951">src</text></g><!--entity outputs--><g class="entity" data-entity="outputs" data-source-line="27" data-uid="ent0023" id="entity_outputs"><path d="M985.85,103.5 L1060.141,103.5 A3.75,3.75 0 0 1 1062.641,106 L1069.641,125.7969 L1084.141,125.7969 A2.5,2.5 0 0 1 1086.641,128.2969 L1086.641,140.2969 A2.5,2.5 0 0 1 1084.141,142.7969 L985.85,142.7969 A2.5,2.5 0 0 1 983.35,140.2969 L983.35,106 A2.5,2.5 0 0 1 985.85,103.5" fill="#F1F1F1" style="stroke:#181818;stroke-width:0.5;"/><line style="stroke:#181818;stroke-width:0.5;" x1="983.35" x2="1069.641" y1="125.7969" y2="125.7969"/><text fill="#000000" font-family="sans-serif" font-size="14" font-weight="bold" lengthAdjust="spacing" textLength="61.291" x="993.35" y="119.4951">outputs</text></g><!--entity dashboard--><g class="entity" data-entity="dashboard" data-source-line="28" data-uid="ent0024" id="entity_dashboard"><path d="M1124.61,103.5 L1221.3913,103.5 A3.75,3.75 0 0 1 1223.8913,106 L1230.8913,125.7969 L1245.3913,125.7969 A2.5,2.5 0 0 1 1247.8913,128.2969 L1247.8913,140.2969 A2.5,2.5 0 0 1 1245.3913,142.7969 L1124.61,142.7969 A2.5,2.5 0 0 1 1122.11,140.2969 L1122.11,106 A2.5,2.5 0 0 1 1124.61,103.5" fill="#F1F1F1" style="stroke:#181818;stroke-width:0.5;"/><line style="stroke:#181818;stroke-width:0.5;" x1="1122.11" x2="1230.8913" y1="125.7969" y2="125.7969"/><text fill="#000000" font-family="sans-serif" font-size="14" font-weight="bold" lengthAdjust="spacing" textLength="83.7813" x="1132.11" y="119.4951">dashboard</text></g><!--entity raw--><g class="entity" data-entity="raw" data-source-line="4" data-uid="ent0004" id="entity_raw"><path d="M49.86,103.5 L92.1452,103.5 A3.75,3.75 0 0 1 94.6452,106 L101.6452,125.7969 L116.1452,125.7969 A2.5,2.5 0 0 1 118.6452,128.2969 L118.6452,140.2969 A2.5,2.5 0 0 1 116.1452,142.7969 L49.86,142.7969 A2.5,2.5 0 0 1 47.36,140.2969 L47.36,106 A2.5,2.5 0 0 1 49.86,103.5" fill="#F1F1F1" style="stroke:#181818;stroke-width:0.5;"/><line style="stroke:#181818;stroke-width:0.5;" x1="47.36" x2="101.6452" y1="125.7969" y2="125.7969"/><text fill="#000000" font-family="sans-serif" font-size="14" font-weight="bold" lengthAdjust="spacing" textLength="29.2852" x="57.36" y="119.4951">raw</text></g><!--entity interim--><g class="entity" data-entity="interim" data-source-line="5" data-uid="ent0005" id="entity_interim"><path d="M155.88,103.5 L226.1241,103.5 A3.75,3.75 0 0 1 228.6241,106 L235.6241,125.7969 L250.1241,125.7969 A2.5,2.5 0 0 1 252.6241,128.2969 L252.6241,140.2969 A2.5,2.5 0 0 1 250.1241,142.7969 L155.88,142.7969 A2.5,2.5 0 0 1 153.38,140.2969 L153.38,106 A2.5,2.5 0 0 1 155.88,103.5" fill="#F1F1F1" style="stroke:#181818;stroke-width:0.5;"/><line style="stroke:#181818;stroke-width:0.5;" x1="153.38" x2="235.6241" y1="125.7969" y2="125.7969"/><text fill="#000000" font-family="sans-serif" font-size="14" font-weight="bold" lengthAdjust="spacing" textLength="57.2441" x="163.38" y="119.4951">interim</text></g><!--entity processed--><g class="entity" data-entity="processed" data-source-line="6" data-uid="ent0006" id="entity_processed"><path d="M290.24,103.5 L383.7605,103.5 A3.75,3.75 0 0 1 386.2605,106 L393.2605,125.7969 L407.7605,125.7969 A2.5,2.5 0 0 1 410.2605,128.2969 L410.2605,140.2969 A2.5,2.5 0 0 1 407.7605,142.7969 L290.24,142.7969 A2.5,2.5 0 0 1 287.74,140.2969 L287.74,106 A2.5,2.5 0 0 1 290.24,103.5" fill="#F1F1F1" style="stroke:#181818;stroke-width:0.5;"/><line style="stroke:#181818;stroke-width:0.5;" x1="287.74" x2="393.2605" y1="125.7969" y2="125.7969"/><text fill="#000000" font-family="sans-serif" font-size="14" font-weight="bold" lengthAdjust="spacing" textLength="80.5205" x="297.74" y="119.4951">processed</text></g><!--entity external--><g class="entity" data-entity="external" data-source-line="7" data-uid="ent0007" id="entity_external"><path d="M49.58,239.8 L128.4101,239.8 A3.75,3.75 0 0 1 130.9101,242.3 L137.9101,262.0969 L152.4101,262.0969 A2.5,2.5 0 0 1 154.9101,264.5969 L154.9101,276.5969 A2.5,2.5 0 0 1 152.4101,279.0969 L49.58,279.0969 A2.5,2.5 0 0 1 47.08,276.5969 L47.08,242.3 A2.5,2.5 0 0 1 49.58,239.8" fill="#F1F1F1" style="stroke:#181818;stroke-width:0.5;"/><line style="stroke:#181818;stroke-width:0.5;" x1="47.08" x2="137.9101" y1="262.0969" y2="262.0969"/><text fill="#000000" font-family="sans-serif" font-size="14" font-weight="bold" lengthAdjust="spacing" textLength="65.8301" x="57.08" y="255.7951">external</text></g><!--entity submission--><g class="entity" data-entity="submission" data-source-line="8" data-uid="ent0008" id="entity_submission"><path d="M192.12,239.8 L293.8778,239.8 A3.75,3.75 0 0 1 296.3778,242.3 L303.3778,262.0969 L317.8778,262.0969 A2.5,2.5 0 0 1 320.3778,264.5969 L320.3778,276.5969 A2.5,2.5 0 0 1 317.8778,279.0969 L192.12,279.0969 A2.5,2.5 0 0 1 189.62,276.5969 L189.62,242.3 A2.5,2.5 0 0 1 192.12,239.8" fill="#F1F1F1" style="stroke:#181818;stroke-width:0.5;"/><line style="stroke:#181818;stroke-width:0.5;" x1="189.62" x2="303.3778" y1="262.0969" y2="262.0969"/><text fill="#000000" font-family="sans-serif" font-size="14" font-weight="bold" lengthAdjust="spacing" textLength="88.7578" x="199.62" y="255.7951">submission</text></g><!--entity 01_data_retrieval--><g class="entity" data-entity="01_data_retrieval" data-source-line="11" data-uid="ent0010" id="entity_01_data_retrieval"><ellipse cx="526.9999" cy="93.5" fill="#F1F1F1" rx="8" ry="8" style="stroke:#181818;stroke-width:0.5;"/><path d="M526.9999,101.5 L526.9999,128.5 M513.9999,109.5 L539.9999,109.5 M526.9999,128.5 L513.9999,143.5 M526.9999,128.5 L539.9999,143.5" fill="none" style="stroke:#181818;stroke-width:0.5;"/><text fill="#000000" font-family="sans-serif" font-size="14" lengthAdjust="spacing" textLength="122.2197" x="465.89" y="157.9951">01_data_retrieval</text></g><!--entity 02_preprocessing--><g class="entity" data-entity="02_preprocessing" data-source-line="12" data-uid="ent0011" id="entity_02_preprocessing"><ellipse cx="685.0031" cy="93.5" fill="#F1F1F1" rx="8" ry="8" style="stroke:#181818;stroke-width:0.5;"/><path d="M685.0031,101.5 L685.0031,128.5 M672.0031,109.5 L698.0031,109.5 M685.0031,128.5 L672.0031,143.5 M685.0031,128.5 L698.0031,143.5" fill="none" style="stroke:#181818;stroke-width:0.5;"/><text fill="#000000" font-family="sans-serif" font-size="14" lengthAdjust="spacing" textLength="123.8262" x="623.09" y="157.9951">02_preprocessing</text></g><!--entity 03_feature_engineering--><g class="entity" data-entity="03_feature_engineering" data-source-line="13" data-uid="ent0012" id="entity_03_feature_engineering"><ellipse cx="864.9973" cy="93.5" fill="#F1F1F1" rx="8" ry="8" style="stroke:#181818;stroke-width:0.5;"/><path d="M864.9973,101.5 L864.9973,128.5 M851.9973,109.5 L877.9973,109.5 M864.9973,128.5 L851.9973,143.5 M864.9973,128.5 L877.9973,143.5" fill="none" style="stroke:#181818;stroke-width:0.5;"/><text fill="#000000" font-family="sans-serif" font-size="14" lengthAdjust="spacing" textLength="166.4346" x="781.78" y="157.9951">03_feature_engineering</text></g><!--entity 04_eda--><g class="entity" data-entity="04_eda" data-source-line="14" data-uid="ent0013" id="entity_04_eda"><ellipse cx="526.9968" cy="229.8" fill="#F1F1F1" rx="8" ry="8" style="stroke:#181818;stroke-width:0.5;"/><path d="M526.9968,237.8 L526.9968,264.8 M513.9968,245.8 L539.9968,245.8 M526.9968,264.8 L513.9968,279.8 M526.9968,264.8 L539.9968,279.8" fill="none" style="stroke:#181818;stroke-width:0.5;"/><text fill="#000000" font-family="sans-serif" font-size="14" lengthAdjust="spacing" textLength="50.8936" x="501.55" y="294.2951">04_eda</text></g><!--entity 05_modeling_baseline--><g class="entity" data-entity="05_modeling_baseline" data-source-line="15" data-uid="ent0014" id="entity_05_modeling_baseline"><ellipse cx="664.9977" cy="229.8" fill="#F1F1F1" rx="8" ry="8" style="stroke:#181818;stroke-width:0.5;"/><path d="M664.9977,237.8 L664.9977,264.8 M651.9977,245.8 L677.9977,245.8 M664.9977,264.8 L651.9977,279.8 M664.9977,264.8 L677.9977,279.8" fill="none" style="stroke:#181818;stroke-width:0.5;"/><text fill="#000000" font-family="sans-serif" font-size="14" lengthAdjust="spacing" textLength="155.6953" x="587.15" y="294.2951">05_modeling_baseline</text></g><!--entity 06_modeling_dl--><g class="entity" data-entity="06_modeling_dl" data-source-line="16" data-uid="ent0015" id="entity_06_modeling_dl"><ellipse cx="832.9965" cy="229.8" fill="#F1F1F1" rx="8" ry="8" style="stroke:#181818;stroke-width:0.5;"/><path d="M832.9965,237.8 L832.9965,264.8 M819.9965,245.8 L845.9965,245.8 M832.9965,264.8 L819.9965,279.8 M832.9965,264.8 L845.9965,279.8" fill="none" style="stroke:#181818;stroke-width:0.5;"/><text fill="#000000" font-family="sans-serif" font-size="14" lengthAdjust="spacing" textLength="109.833" x="778.08" y="294.2951">06_modeling_dl</text></g><!--entity 07_evaluation--><g class="entity" data-entity="07_evaluation" data-source-line="17" data-uid="ent0016" id="entity_07_evaluation"><ellipse cx="526.9956" cy="366.1" fill="#F1F1F1" rx="8" ry="8" style="stroke:#181818;stroke-width:0.5;"/><path d="M526.9956,374.1 L526.9956,401.1 M513.9956,382.1 L539.9956,382.1 M526.9956,401.1 L513.9956,416.1 M526.9956,401.1 L539.9956,416.1" fill="none" style="stroke:#181818;stroke-width:0.5;"/><text fill="#000000" font-family="sans-serif" font-size="14" lengthAdjust="spacing" textLength="98.4512" x="477.77" y="430.5951">07_evaluation</text></g><!--entity 08_dashboard--><g class="entity" data-entity="08_dashboard" data-source-line="18" data-uid="ent0017" id="entity_08_dashboard"><ellipse cx="661.0005" cy="366.1" fill="#F1F1F1" rx="8" ry="8" style="stroke:#181818;stroke-width:0.5;"/><path d="M661.0005,374.1 L661.0005,401.1 M648.0005,382.1 L674.0005,382.1 M661.0005,401.1 L648.0005,416.1 M661.0005,401.1 L674.0005,416.1" fill="none" style="stroke:#181818;stroke-width:0.5;"/><text fill="#000000" font-family="sans-serif" font-size="14" lengthAdjust="spacing" textLength="99.1211" x="611.44" y="430.5951">08_dashboard</text></g><!--entity dataS--><g class="entity" data-entity="dataS" data-source-line="21" data-uid="ent0019" id="entity_dataS"><path d="M59.65,376.1 L118.3414,376.1 A3.75,3.75 0 0 1 120.8414,378.6 L127.8414,398.3969 L142.3414,398.3969 A2.5,2.5 0 0 1 144.8414,400.8969 L144.8414,412.8969 A2.5,2.5 0 0 1 142.3414,415.3969 L59.65,415.3969 A2.5,2.5 0 0 1 57.15,412.8969 L57.15,378.6 A2.5,2.5 0 0 1 59.65,376.1" fill="#F1F1F1" style="stroke:#181818;stroke-width:0.5;"/><line style="stroke:#181818;stroke-width:0.5;" x1="57.15" x2="127.8414" y1="398.3969" y2="398.3969"/><text fill="#000000" font-family="sans-serif" font-size="14" font-weight="bold" lengthAdjust="spacing" textLength="45.6914" x="67.15" y="392.0951">dataS</text></g><!--entity features--><g class="entity" data-entity="features" data-source-line="22" data-uid="ent0020" id="entity_features"><path d="M182.29,376.1 L261.7148,376.1 A3.75,3.75 0 0 1 264.2148,378.6 L271.2148,398.3969 L285.7148,398.3969 A2.5,2.5 0 0 1 288.2148,400.8969 L288.2148,412.8969 A2.5,2.5 0 0 1 285.7148,415.3969 L182.29,415.3969 A2.5,2.5 0 0 1 179.79,412.8969 L179.79,378.6 A2.5,2.5 0 0 1 182.29,376.1" fill="#F1F1F1" style="stroke:#181818;stroke-width:0.5;"/><line style="stroke:#181818;stroke-width:0.5;" x1="179.79" x2="271.2148" y1="398.3969" y2="398.3969"/><text fill="#000000" font-family="sans-serif" font-size="14" font-weight="bold" lengthAdjust="spacing" textLength="66.4248" x="189.79" y="392.0951">features</text></g><!--entity models--><g class="entity" data-entity="models" data-source-line="23" data-uid="ent0021" id="entity_models"><path d="M59.07,493.89 L128.9245,493.89 A3.75,3.75 0 0 1 131.4245,496.39 L138.4245,516.1869 L152.9245,516.1869 A2.5,2.5 0 0 1 155.4245,518.6869 L155.4245,530.6869 A2.5,2.5 0 0 1 152.9245,533.1869 L59.07,533.1869 A2.5,2.5 0 0 1 56.57,530.6869 L56.57,496.39 A2.5,2.5 0 0 1 59.07,493.89" fill="#F1F1F1" style="stroke:#181818;stroke-width:0.5;"/><line style="stroke:#181818;stroke-width:0.5;" x1="56.57" x2="138.4245" y1="516.1869" y2="516.1869"/><text fill="#000000" font-family="sans-serif" font-size="14" font-weight="bold" lengthAdjust="spacing" textLength="56.8545" x="66.57" y="509.8851">models</text></g><!--entity utils--><g class="entity" data-entity="utils" data-source-line="24" data-uid="ent0022" id="entity_utils"><path d="M193.21,493.89 L240.7998,493.89 A3.75,3.75 0 0 1 243.2998,496.39 L250.2998,516.1869 L264.7998,516.1869 A2.5,2.5 0 0 1 267.2998,518.6869 L267.2998,530.6869 A2.5,2.5 0 0 1 264.7998,533.1869 L193.21,533.1869 A2.5,2.5 0 0 1 190.71,530.6869 L190.71,496.39 A2.5,2.5 0 0 1 193.21,493.89" fill="#F1F1F1" style="stroke:#181818;stroke-width:0.5;"/><line style="stroke:#181818;stroke-width:0.5;" x1="190.71" x2="250.2998" y1="516.1869" y2="516.1869"/><text fill="#000000" font-family="sans-serif" font-size="14" font-weight="bold" lengthAdjust="spacing" textLength="34.5898" x="200.71" y="509.8851">utils</text></g><!--SRC=[NP5TSiCW38JVVGh69qX_qlOUEG0Z6yLbR0kF9D9cEhbxiGVYa3VqhM1NGaPF2p3CPe5-X05FUftGCFOAD4pOP6oGa8UhTJW3ENiEgGD4FGtchp7bid6Wi84TCVnKjIT5zdF55WuzYg2hAFwcJeAfWXAxsOluG0dV7gmfA7OXZ9BzsyEBNUDOHcMF5vZQp5_jmfWjqm05lzapWaP6YpHumfHo5zyjEYZ5qSx1uPHasu6i1opInowvk-6dNUqZQ4fTs5SA9zzT07RjqoJ2_TCErpbE5SbHfOARTOsY-eqyldzlAo14NQ9AzOyvMtFx1m00]--></g></svg>