<svg xmlns="http://www.w3.org/2000/svg" xmlns:xlink="http://www.w3.org/1999/xlink" contentStyleType="text/css" data-diagram-type="SEQUENCE" height="298px" preserveAspectRatio="none" style="width:536px;height:298px;background:#FFFFFF;" version="1.1" viewBox="0 0 536 298" width="536px" zoomAndPan="magnify"><defs/><g><g><title>Utilisateur</title><rect fill="#000000" fill-opacity="0.00000" height="136.5313" width="8" x="40.0049" y="81.2969"/><line style="stroke:#181818;stroke-width:0.5;stroke-dasharray:5.0,5.0;" x1="44" x2="44" y1="81.2969" y2="217.8281"/></g><g><title>Dashboard</title><rect fill="#000000" fill-opacity="0.00000" height="136.5313" width="8" x="267.0537" y="81.2969"/><line style="stroke:#181818;stroke-width:0.5;stroke-dasharray:5.0,5.0;" x1="270.9536" x2="270.9536" y1="81.2969" y2="217.8281"/></g><g><title>Model</title><rect fill="#000000" fill-opacity="0.00000" height="136.5313" width="8" x="498.0254" y="81.2969"/><line style="stroke:#181818;stroke-width:0.5;stroke-dasharray:5.0,5.0;" x1="502.0083" x2="502.0083" y1="81.2969" y2="217.8281"/></g><g class="participant participant-head" data-participant="Utilisateur"><text fill="#000000" font-family="sans-serif" font-size="14" lengthAdjust="spacing" textLength="72.0098" x="5" y="77.9951">Utilisateur</text><ellipse cx="44.0049" cy="13.5" fill="#E2E2F0" rx="8" ry="8" style="stroke:#181818;stroke-width:0.5;"/><path d="M44.0049,21.5 L44.0049,48.5 M31.0049,29.5 L57.0049,29.5 M44.0049,48.5 L31.0049,63.5 M44.0049,48.5 L57.0049,63.5" fill="none" style="stroke:#181818;stroke-width:0.5;"/></g><g class="participant participant-tail" data-participant="Utilisateur"><text fill="#000000" font-family="sans-serif" font-size="14" lengthAdjust="spacing" textLength="72.0098" x="5" y="229.8232">Utilisateur</text><ellipse cx="44.0049" cy="241.625" fill="#E2E2F0" rx="8" ry="8" style="stroke:#181818;stroke-width:0.5;"/><path d="M44.0049,249.625 L44.0049,276.625 M31.0049,257.625 L57.0049,257.625 M44.0049,276.625 L31.0049,291.625 M44.0049,276.625 L57.0049,291.625" fill="none" style="stroke:#181818;stroke-width:0.5;"/></g><g class="participant participant-head" data-participant="Dashboard"><rect fill="#E2E2F0" height="30.2969" rx="2.5" ry="2.5" style="stroke:#181818;stroke-width:0.5;" width="90.2002" x="225.9536" y="50"/><text fill="#000000" font-family="sans-serif" font-size="14" lengthAdjust="spacing" textLength="76.2002" x="232.9536" y="69.9951">Dashboard</text></g><g class="participant participant-tail" data-participant="Dashboard"><rect fill="#E2E2F0" height="30.2969" rx="2.5" ry="2.5" style="stroke:#181818;stroke-width:0.5;" width="90.2002" x="225.9536" y="216.8281"/><text fill="#000000" font-family="sans-serif" font-size="14" lengthAdjust="spacing" textLength="76.2002" x="232.9536" y="236.8232">Dashboard</text></g><g class="participant participant-head" data-participant="Model"><rect fill="#E2E2F0" height="30.2969" rx="2.5" ry="2.5" style="stroke:#181818;stroke-width:0.5;" width="56.0342" x="474.0083" y="50"/><text fill="#000000" font-family="sans-serif" font-size="14" lengthAdjust="spacing" textLength="42.0342" x="481.0083" y="69.9951">Model</text></g><g class="participant participant-tail" data-participant="Model"><rect fill="#E2E2F0" height="30.2969" rx="2.5" ry="2.5" style="stroke:#181818;stroke-width:0.5;" width="56.0342" x="474.0083" y="216.8281"/><text fill="#000000" font-family="sans-serif" font-size="14" lengthAdjust="spacing" textLength="42.0342" x="481.0083" y="236.8232">Model</text></g><g class="message" data-participant-1="Utilisateur" data-participant-2="Dashboard"><polygon fill="#181818" points="259.0537,108.4297,269.0537,112.4297,259.0537,116.4297,263.0537,112.4297" style="stroke:#181818;stroke-width:1;"/><line style="stroke:#181818;stroke-width:1;" x1="44.0049" x2="265.0537" y1="112.4297" y2="112.4297"/><text fill="#000000" font-family="sans-serif" font-size="13" lengthAdjust="spacing" textLength="203.0488" x="51.0049" y="107.3638">requestForecast(zone, horizon)</text></g><g class="message" data-participant-1="Dashboard" data-participant-2="Model"><polygon fill="#181818" points="490.0254,137.5625,500.0254,141.5625,490.0254,145.5625,494.0254,141.5625" style="stroke:#181818;stroke-width:1;"/><line style="stroke:#181818;stroke-width:1;" x1="271.0537" x2="496.0254" y1="141.5625" y2="141.5625"/><text fill="#000000" font-family="sans-serif" font-size="13" lengthAdjust="spacing" textLength="206.9717" x="278.0537" y="136.4966">load_best_model(zone, horizon)</text></g><g class="message" data-participant-1="Model" data-participant-2="Dashboard"><polygon fill="#181818" points="282.0537,166.6953,272.0537,170.6953,282.0537,174.6953,278.0537,170.6953" style="stroke:#181818;stroke-width:1;"/><line style="stroke:#181818;stroke-width:1;stroke-dasharray:2.0,2.0;" x1="276.0537" x2="501.0254" y1="170.6953" y2="170.6953"/><text fill="#000000" font-family="sans-serif" font-size="13" lengthAdjust="spacing" textLength="107.396" x="288.0537" y="165.6294">return forecast[]</text></g><g class="message" data-participant-1="Dashboard" data-participant-2="Utilisateur"><polygon fill="#181818" points="55.0049,195.8281,45.0049,199.8281,55.0049,203.8281,51.0049,199.8281" style="stroke:#181818;stroke-width:1;"/><line style="stroke:#181818;stroke-width:1;stroke-dasharray:2.0,2.0;" x1="49.0049" x2="270.0537" y1="199.8281" y2="199.8281"/><text fill="#000000" font-family="sans-serif" font-size="13" lengthAdjust="spacing" textLength="84.0874" x="61.0049" y="194.7622">display chart</text></g><!--SRC=[NO-n3W8X38PtdgAZ9juBC3WPDqSdOouzm42254iPzEdbBaRnjkRFz_rjqGWnd2N4K51SPPMH9PYGCGaSiFY9aErVUYBhekeS6FO_L0ExHtL5ZiJEO97DYvBRWISERTggBpbhIvU6I6Z7gKdZVGxMoaB1i5uZbHFSFcikrxwveTs16cmeEU8JZ6-Fl040]--></g></svg>