<svg xmlns="http://www.w3.org/2000/svg" xmlns:xlink="http://www.w3.org/1999/xlink" contentStyleType="text/css" data-diagram-type="STATE" height="774px" preserveAspectRatio="none" style="width:171px;height:774px;background:#FFFFFF;" version="1.1" viewBox="0 0 171 774" width="171px" zoomAndPan="magnify"><defs/><g><ellipse cx="85.99" cy="16" fill="#222222" rx="10" ry="10" style="stroke:#222222;stroke-width:1;"/><g id="Extraction"><rect fill="#F1F1F1" height="50" rx="12.5" ry="12.5" style="stroke:#181818;stroke-width:0.5;" width="91.4697" x="40.25" y="86"/><line style="stroke:#181818;stroke-width:0.5;" x1="40.25" x2="131.7197" y1="112.2969" y2="112.2969"/><text fill="#000000" font-family="sans-serif" font-size="14" lengthAdjust="spacing" textLength="71.4697" x="50.25" y="103.9951">Extraction</text></g><g id="Preprocessing"><rect fill="#F1F1F1" height="50" rx="12.5" ry="12.5" style="stroke:#181818;stroke-width:0.5;" width="118.5674" x="26.7" y="196"/><line style="stroke:#181818;stroke-width:0.5;" x1="26.7" x2="145.2674" y1="222.2969" y2="222.2969"/><text fill="#000000" font-family="sans-serif" font-size="14" lengthAdjust="spacing" textLength="98.5674" x="36.7" y="213.9951">Preprocessing</text></g><g id="FeatureEngineering"><rect fill="#F1F1F1" height="50" rx="12.5" ry="12.5" style="stroke:#181818;stroke-width:0.5;" width="157.9766" x="7" y="306"/><line style="stroke:#181818;stroke-width:0.5;" x1="7" x2="164.9766" y1="332.2969" y2="332.2969"/><text fill="#000000" font-family="sans-serif" font-size="14" lengthAdjust="spacing" textLength="137.9766" x="17" y="323.9951">FeatureEngineering</text></g><g id="Modeling"><rect fill="#F1F1F1" height="50" rx="12.5" ry="12.5" style="stroke:#181818;stroke-width:0.5;" width="83.6836" x="44.15" y="416"/><line style="stroke:#181818;stroke-width:0.5;" x1="44.15" x2="127.8336" y1="442.2969" y2="442.2969"/><text fill="#000000" font-family="sans-serif" font-size="14" lengthAdjust="spacing" textLength="63.6836" x="54.15" y="433.9951">Modeling</text></g><g id="Evaluation"><rect fill="#F1F1F1" height="50" rx="12.5" ry="12.5" style="stroke:#181818;stroke-width:0.5;" width="93.8691" x="39.05" y="526"/><line style="stroke:#181818;stroke-width:0.5;" x1="39.05" x2="132.9191" y1="552.2969" y2="552.2969"/><text fill="#000000" font-family="sans-serif" font-size="14" lengthAdjust="spacing" textLength="73.8691" x="49.05" y="543.9951">Evaluation</text></g><g id="Dashboard"><rect fill="#F1F1F1" height="50" rx="12.5" ry="12.5" style="stroke:#181818;stroke-width:0.5;" width="96.2002" x="37.89" y="636"/><line style="stroke:#181818;stroke-width:0.5;" x1="37.89" x2="134.0902" y1="662.2969" y2="662.2969"/><text fill="#000000" font-family="sans-serif" font-size="14" lengthAdjust="spacing" textLength="76.2002" x="47.89" y="653.9951">Dashboard</text></g><ellipse cx="85.99" cy="757" fill="none" rx="11" ry="11" style="stroke:#222222;stroke-width:1;"/><ellipse cx="85.99" cy="757" fill="#222222" rx="6" ry="6" style="stroke:#222222;stroke-width:1;"/><!--link *start* to Extraction--><g class="link" data-entity-1="*start*" data-entity-2="Extraction" data-source-line="1" data-uid="lnk4" id="link_*start*_Extraction"><path d="M85.99,26.26 C85.99,39.95 85.99,60.07 85.99,79.52" fill="none" id="*start*-to-Extraction" style="stroke:#181818;stroke-width:1;"/><polygon fill="#181818" points="85.99,85.52,89.99,76.52,85.99,80.52,81.99,76.52,85.99,85.52" style="stroke:#181818;stroke-width:1;"/></g><!--link Extraction to Preprocessing--><g class="link" data-entity-1="Extraction" data-entity-2="Preprocessing" data-source-line="2" data-uid="lnk6" id="link_Extraction_Preprocessing"><path d="M85.99,136.24 C85.99,154.02 85.99,172.08 85.99,189.84" fill="none" id="Extraction-to-Preprocessing" style="stroke:#181818;stroke-width:1;"/><polygon fill="#181818" points="85.99,195.84,89.99,186.84,85.99,190.84,81.99,186.84,85.99,195.84" style="stroke:#181818;stroke-width:1;"/></g><!--link Preprocessing to FeatureEngineering--><g class="link" data-entity-1="Preprocessing" data-entity-2="FeatureEngineering" data-source-line="3" data-uid="lnk8" id="link_Preprocessing_FeatureEngineering"><path d="M85.99,246.24 C85.99,264.02 85.99,282.08 85.99,299.84" fill="none" id="Preprocessing-to-FeatureEngineering" style="stroke:#181818;stroke-width:1;"/><polygon fill="#181818" points="85.99,305.84,89.99,296.84,85.99,300.84,81.99,296.84,85.99,305.84" style="stroke:#181818;stroke-width:1;"/></g><!--link FeatureEngineering to Modeling--><g class="link" data-entity-1="FeatureEngineering" data-entity-2="Modeling" data-source-line="4" data-uid="lnk10" id="link_FeatureEngineering_Modeling"><path d="M85.99,356.24 C85.99,374.02 85.99,392.08 85.99,409.84" fill="none" id="FeatureEngineering-to-Modeling" style="stroke:#181818;stroke-width:1;"/><polygon fill="#181818" points="85.99,415.84,89.99,406.84,85.99,410.84,81.99,406.84,85.99,415.84" style="stroke:#181818;stroke-width:1;"/></g><!--link Modeling to Evaluation--><g class="link" data-entity-1="Modeling" data-entity-2="Evaluation" data-source-line="5" data-uid="lnk12" id="link_Modeling_Evaluation"><path d="M85.99,466.24 C85.99,484.02 85.99,502.08 85.99,519.84" fill="none" id="Modeling-to-Evaluation" style="stroke:#181818;stroke-width:1;"/><polygon fill="#181818" points="85.99,525.84,89.99,516.84,85.99,520.84,81.99,516.84,85.99,525.84" style="stroke:#181818;stroke-width:1;"/></g><!--link Evaluation to Dashboard--><g class="link" data-entity-1="Evaluation" data-entity-2="Dashboard" data-source-line="6" data-uid="lnk14" id="link_Evaluation_Dashboard"><path d="M85.99,576.24 C85.99,594.02 85.99,612.08 85.99,629.84" fill="none" id="Evaluation-to-Dashboard" style="stroke:#181818;stroke-width:1;"/><polygon fill="#181818" points="85.99,635.84,89.99,626.84,85.99,630.84,81.99,626.84,85.99,635.84" style="stroke:#181818;stroke-width:1;"/></g><!--link Dashboard to *end*--><g class="link" data-entity-1="Dashboard" data-entity-2="*end*" data-source-line="7" data-uid="lnk16" id="link_Dashboard_*end*"><path d="M85.99,686.21 C85.99,705.57 85.99,725.75 85.99,739.9" fill="none" id="Dashboard-to-*end*" style="stroke:#181818;stroke-width:1;"/><polygon fill="#181818" points="85.99,745.9,89.99,736.9,85.99,740.9,81.99,736.9,85.99,745.9" style="stroke:#181818;stroke-width:1;"/></g><!--SRC=[YzQALT3LjLDmhIWfIamkoSpFuq8mmJ81HQa5HVd9gSN5cNdfN2WyiBnRQc99QL6gQrvwPbvgQX584QOGMALlVafg3aWUne3ON9QOKve8iHdE1Cku91Pd9EKd5gLmmLbWyMYjM000]--></g></svg>