<svg xmlns="http://www.w3.org/2000/svg" xmlns:xlink="http://www.w3.org/1999/xlink" contentStyleType="text/css" data-diagram-type="DESCRIPTION" height="214px" preserveAspectRatio="none" style="width:2421px;height:214px;background:#FFFFFF;" version="1.1" viewBox="0 0 2421 214" width="2421px" zoomAndPan="magnify"><defs/><g><!--entity Utilisateur--><g class="entity" data-entity="Utilisateur" data-source-line="1" data-uid="ent0002" id="entity_Utilisateur"><ellipse cx="1149.1749" cy="14" fill="#F1F1F1" rx="8" ry="8" style="stroke:#181818;stroke-width:0.5;"/><path d="M1149.1749,22 L1149.1749,49 M1136.1749,30 L1162.1749,30 M1149.1749,49 L1136.1749,64 M1149.1749,49 L1162.1749,64" fill="none" style="stroke:#181818;stroke-width:0.5;"/><text fill="#000000" font-family="sans-serif" font-size="14" lengthAdjust="spacing" textLength="72.0098" x="1113.17" y="78.4951">Utilisateur</text></g><!--entity D?marrer/Arr?ter le contr?le--><g class="entity" data-entity="D&#233;marrer/Arr&#234;ter le contr&#244;le" data-source-line="3" data-uid="ent0003" id="entity_D&#233;marrer/Arr&#234;ter le contr&#244;le"><ellipse cx="1870.1688" cy="183.4538" fill="#F1F1F1" rx="111.2688" ry="24.6538" style="stroke:#181818;stroke-width:0.5;"/><text fill="#000000" font-family="sans-serif" font-size="14" lengthAdjust="spacing" textLength="200.6211" x="1769.8582" y="188.1022">D&#233;marrer/Arr&#234;ter le contr&#244;le</text></g><!--entity Basculer entre modes--><g class="entity" data-entity="Basculer entre modes" data-source-line="4" data-uid="ent0005" id="entity_Basculer entre modes"><ellipse cx="2106.1651" cy="183.453" fill="#F1F1F1" rx="89.9151" ry="20.383" style="stroke:#181818;stroke-width:0.5;"/><text fill="#000000" font-family="sans-serif" font-size="14" lengthAdjust="spacing" textLength="153.5488" x="2029.3907" y="188.1015">Basculer entre modes</text></g><!--entity Calibrer le syst?me--><g class="entity" data-entity="Calibrer le syst&#232;me" data-source-line="5" data-uid="ent0007" id="entity_Calibrer le syst&#232;me"><ellipse cx="88.1749" cy="183.455" fill="#F1F1F1" rx="82.1749" ry="18.835" style="stroke:#181818;stroke-width:0.5;"/><text fill="#000000" font-family="sans-serif" font-size="14" lengthAdjust="spacing" textLength="135.7754" x="20.2872" y="188.1034">Calibrer le syst&#232;me</text></g><!--entity Contr?ler le curseur--><g class="entity" data-entity="Contr&#244;ler le curseur" data-source-line="6" data-uid="ent0009" id="entity_Contr&#244;ler le curseur"><ellipse cx="335.1685" cy="183.4497" fill="#F1F1F1" rx="83.7985" ry="19.1597" style="stroke:#181818;stroke-width:0.5;"/><text fill="#000000" font-family="sans-serif" font-size="14" lengthAdjust="spacing" textLength="139.5488" x="265.3941" y="188.0981">Contr&#244;ler le curseur</text></g><!--entity Ajuster les param?tres--><g class="entity" data-entity="Ajuster les param&#232;tres" data-source-line="7" data-uid="ent0011" id="entity_Ajuster les param&#232;tres"><ellipse cx="2323.167" cy="183.4514" fill="#F1F1F1" rx="92.507" ry="20.9014" style="stroke:#181818;stroke-width:0.5;"/><text fill="#000000" font-family="sans-serif" font-size="14" lengthAdjust="spacing" textLength="159.3936" x="2243.4702" y="188.0998">Ajuster les param&#232;tres</text></g><!--entity Utiliser le chatbot--><g class="entity" data-entity="Utiliser le chatbot" data-source-line="8" data-uid="ent0013" id="entity_Utiliser le chatbot"><ellipse cx="1294.1701" cy="183.452" fill="#F1F1F1" rx="77.2101" ry="17.842" style="stroke:#181818;stroke-width:0.5;"/><text fill="#000000" font-family="sans-serif" font-size="14" lengthAdjust="spacing" textLength="124.0518" x="1232.1442" y="188.1005">Utiliser le chatbot</text></g><!--entity D?placer le curseur--><g class="entity" data-entity="D&#233;placer le curseur" data-source-line="10" data-uid="ent0015" id="entity_D&#233;placer le curseur"><ellipse cx="803.1654" cy="183.4471" fill="#F1F1F1" rx="82.7354" ry="18.9471" style="stroke:#181818;stroke-width:0.5;"/><text fill="#000000" font-family="sans-serif" font-size="14" lengthAdjust="spacing" textLength="137.0811" x="734.6248" y="188.0955">D&#233;placer le curseur</text></g><!--entity Cliquer--><g class="entity" data-entity="Cliquer" data-source-line="11" data-uid="ent0017" id="entity_Cliquer"><ellipse cx="647.1716" cy="183.4536" fill="#F1F1F1" rx="38.1316" ry="14.5236" style="stroke:#181818;stroke-width:0.5;"/><text fill="#000000" font-family="sans-serif" font-size="14" lengthAdjust="spacing" textLength="49.6836" x="622.3298" y="188.1021">Cliquer</text></g><!--entity D?filer--><g class="entity" data-entity="D&#233;filer" data-source-line="12" data-uid="ent0019" id="entity_D&#233;filer"><ellipse cx="538.1697" cy="183.4536" fill="#F1F1F1" rx="35.8597" ry="14.5236" style="stroke:#181818;stroke-width:0.5;"/><text fill="#000000" font-family="sans-serif" font-size="14" lengthAdjust="spacing" textLength="46.4707" x="514.9344" y="188.1021">D&#233;filer</text></g><!--entity Zoomer--><g class="entity" data-entity="Zoomer" data-source-line="13" data-uid="ent0021" id="entity_Zoomer"><ellipse cx="1140.1689" cy="183.4536" fill="#F1F1F1" rx="41.6989" ry="14.5236" style="stroke:#181818;stroke-width:0.5;"/><text fill="#000000" font-family="sans-serif" font-size="14" lengthAdjust="spacing" textLength="54.7285" x="1112.8046" y="188.1021">Zoomer</text></g><!--entity Glisser-d?poser--><g class="entity" data-entity="Glisser-d&#233;poser" data-source-line="14" data-uid="ent0023" id="entity_Glisser-d&#233;poser"><ellipse cx="992.1663" cy="183.4493" fill="#F1F1F1" rx="71.1463" ry="16.6293" style="stroke:#181818;stroke-width:0.5;"/><text fill="#000000" font-family="sans-serif" font-size="14" lengthAdjust="spacing" textLength="109.252" x="937.5404" y="188.0977">Glisser-d&#233;poser</text></g><g class="entity" data-entity="GMN26" data-source-line="19" data-uid="ent0027" id="entity_GMN26"><path d="M1406.3,163.31 L1406.3,179.45 L1371.72,183.45 L1406.3,187.45 L1406.3,203.5756 A0,0 0 0 0 1406.3,203.5756 L1724.0593,203.5756 A0,0 0 0 0 1724.0593,203.5756 L1724.0593,173.31 L1714.0593,163.31 L1406.3,163.31 A0,0 0 0 0 1406.3,163.31" fill="#FEFFDD" style="stroke:#181818;stroke-width:0.5;"/><path d="M1714.0593,163.31 L1714.0593,173.31 L1724.0593,173.31 L1714.0593,163.31" fill="#FEFFDD" style="stroke:#181818;stroke-width:0.5;"/><text fill="#000000" font-family="sans-serif" font-size="13" lengthAdjust="spacing" textLength="254.5601" x="1412.3" y="180.3769">Permet de poser des questions comme</text><text fill="#000000" font-family="sans-serif" font-size="13" lengthAdjust="spacing" textLength="296.7593" x="1412.3" y="195.5097">"Comment d&#233;filer ?" ou "Comment calibrer ?"</text></g><!--link Utilisateur to D?marrer/Arr?ter le contr?le--><g class="link" data-entity-1="Utilisateur" data-entity-2="D&#233;marrer/Arr&#234;ter le contr&#244;le" data-source-line="3" data-uid="lnk4" id="link_Utilisateur_D&#233;marrer/Arr&#234;ter le contr&#244;le"><path d="M1185.42,51.57 C1295.94,72.69 1624.7067,135.5337 1781.5267,165.5037" fill="none" id="Utilisateur-to-D&#233;marrer/Arr&#234;ter le contr&#244;le" style="stroke:#181818;stroke-width:1;"/><polygon fill="#181818" points="1787.42,166.63,1779.3308,161.0117,1782.5089,165.6914,1777.8291,168.8695,1787.42,166.63" style="stroke:#181818;stroke-width:1;"/></g><!--link Utilisateur to Basculer entre modes--><g class="link" data-entity-1="Utilisateur" data-entity-2="Basculer entre modes" data-source-line="4" data-uid="lnk6" id="link_Utilisateur_Basculer entre modes"><path d="M1185.38,48.4 C1303.15,60.87 1685.8,103.21 1999.17,158.79 C2014.16,161.45 2024.3691,163.4754 2039.3791,166.7654" fill="none" id="Utilisateur-to-Basculer entre modes" style="stroke:#181818;stroke-width:1;"/><polygon fill="#181818" points="2045.24,168.05,2037.3051,162.2158,2040.3559,166.9795,2035.5923,170.0303,2045.24,168.05" style="stroke:#181818;stroke-width:1;"/></g><!--link Utilisateur to Calibrer le syst?me--><g class="link" data-entity-1="Utilisateur" data-entity-2="Calibrer le syst&#232;me" data-source-line="5" data-uid="lnk8" id="link_Utilisateur_Calibrer le syst&#232;me"><path d="M1113.01,46.15 C1004.27,51.03 671,68.71 398.17,111.79 C306.3,126.3 206.8728,150.7944 145.6728,166.8844" fill="none" id="Utilisateur-to-Calibrer le syst&#232;me" style="stroke:#181818;stroke-width:1;"/><polygon fill="#181818" points="139.87,168.41,149.5913,169.9901,144.7057,167.1387,147.5571,162.2531,139.87,168.41" style="stroke:#181818;stroke-width:1;"/></g><!--link Utilisateur to Contr?ler le curseur--><g class="link" data-entity-1="Utilisateur" data-entity-2="Contr&#244;ler le curseur" data-source-line="6" data-uid="lnk10" id="link_Utilisateur_Contr&#244;ler le curseur"><path d="M1112.75,45.73 C986.15,49.86 566.2,66.73 440.17,111.79 C407.49,123.48 379.7414,143.7875 359.7714,160.5875" fill="none" id="Utilisateur-to-Contr&#244;ler le curseur" style="stroke:#181818;stroke-width:1;"/><polygon fill="#181818" points="355.18,164.45,364.6421,161.7171,359.0061,161.2312,359.492,155.5953,355.18,164.45" style="stroke:#181818;stroke-width:1;"/></g><!--link Utilisateur to Ajuster les param?tres--><g class="link" data-entity-1="Utilisateur" data-entity-2="Ajuster les param&#232;tres" data-source-line="7" data-uid="lnk12" id="link_Utilisateur_Ajuster les param&#232;tres"><path d="M1185.65,47.1 C1321.81,56.58 1812.99,93.54 2213.17,158.79 C2228.5,161.29 2239.0509,163.2735 2254.4009,166.5335" fill="none" id="Utilisateur-to-Ajuster les param&#232;tres" style="stroke:#181818;stroke-width:1;"/><polygon fill="#181818" points="2260.27,167.78,2252.2973,161.9976,2255.3791,166.7413,2250.6354,169.823,2260.27,167.78" style="stroke:#181818;stroke-width:1;"/></g><!--link Utilisateur to Utiliser le chatbot--><g class="link" data-entity-1="Utilisateur" data-entity-2="Utiliser le chatbot" data-source-line="8" data-uid="lnk14" id="link_Utilisateur_Utiliser le chatbot"><path d="M1112.93,45.34 C976.04,48.36 496.04,62.4 451.17,111.79 C446.09,117.38 445.94,123.34 451.17,128.79 C479.99,158.78 1158,152.9 1199.17,158.79 C1215.16,161.08 1226.5482,163.4391 1241.8682,167.3691" fill="none" id="Utilisateur-to-Utiliser le chatbot" style="stroke:#181818;stroke-width:1;"/><polygon fill="#181818" points="1247.68,168.86,1239.9562,162.7491,1242.8368,167.6176,1237.9683,170.4982,1247.68,168.86" style="stroke:#181818;stroke-width:1;"/></g><!--link Contr?ler le curseur to D?placer le curseur--><g class="link" data-entity-1="Contr&#244;ler le curseur" data-entity-2="D&#233;placer le curseur" data-source-line="10" data-uid="lnk16" id="link_Contr&#244;ler le curseur_D&#233;placer le curseur"><path d="M374.24,166.1 C440.46,139.07 578.67,92.88 692.67,122.32 C724.52,130.54 752.043,146.7004 773.473,161.5004" fill="none" id="Contr&#244;ler le curseur-to-D&#233;placer le curseur" style="stroke:#181818;stroke-width:1;stroke-dasharray:7.0,7.0;"/><polygon fill="#181818" points="778.41,164.91,773.2775,156.5042,774.2958,162.0686,768.7313,163.0869,778.41,164.91" style="stroke:#181818;stroke-width:1;"/><text fill="#000000" font-family="sans-serif" font-size="13" lengthAdjust="spacing" textLength="47.0996" x="644.67" y="124.8569">include</text></g><!--link Contr?ler le curseur to Cliquer--><g class="link" data-entity-1="Contr&#244;ler le curseur" data-entity-2="Cliquer" data-source-line="11" data-uid="lnk18" id="link_Contr&#244;ler le curseur_Cliquer"><path d="M378.25,166.66 C445.14,141.78 570.37,100.32 609.67,122.32 C627.28,132.17 635.6159,148.3746 640.8359,163.1046" fill="none" id="Contr&#244;ler le curseur-to-Cliquer" style="stroke:#181818;stroke-width:1;stroke-dasharray:7.0,7.0;"/><polygon fill="#181818" points="642.84,168.76,643.604,158.9408,641.1699,164.0472,636.0635,161.613,642.84,168.76" style="stroke:#181818;stroke-width:1;"/><text fill="#000000" font-family="sans-serif" font-size="13" lengthAdjust="spacing" textLength="47.0996" x="561.67" y="124.8569">include</text></g><!--link Contr?ler le curseur to D?filer--><g class="link" data-entity-1="Contr&#244;ler le curseur" data-entity-2="D&#233;filer" data-source-line="12" data-uid="lnk20" id="link_Contr&#244;ler le curseur_D&#233;filer"><path d="M419.21,183.45 C448.11,183.45 472.97,183.45 496.01,183.45" fill="none" id="Contr&#244;ler le curseur-to-D&#233;filer" style="stroke:#181818;stroke-width:1;stroke-dasharray:7.0,7.0;"/><polygon fill="#181818" points="502.01,183.45,493.01,179.45,497.01,183.45,493.01,187.45,502.01,183.45" style="stroke:#181818;stroke-width:1;"/><text fill="#000000" font-family="sans-serif" font-size="13" lengthAdjust="spacing" textLength="47.0996" x="437.14" y="176.5169">include</text></g><!--link Contr?ler le curseur to Zoomer--><g class="link" data-entity-1="Contr&#244;ler le curseur" data-entity-2="Zoomer" data-source-line="13" data-uid="lnk22" id="link_Contr&#244;ler le curseur_Zoomer"><path d="M361.69,164.9 C384.59,150.09 419.17,130.51 452.67,122.32 C473.83,117.14 479.91,121.63 501.67,122.32 C759.61,130.43 829.87,100.13 1081.17,158.79 C1093.07,161.57 1100.1641,164.0354 1110.6341,168.7754" fill="none" id="Contr&#244;ler le curseur-to-Zoomer" style="stroke:#181818;stroke-width:1;stroke-dasharray:7.0,7.0;"/><polygon fill="#181818" points="1116.1,171.25,1109.5508,163.8942,1111.545,169.1879,1106.2514,171.1821,1116.1,171.25" style="stroke:#181818;stroke-width:1;"/><text fill="#000000" font-family="sans-serif" font-size="13" lengthAdjust="spacing" textLength="47.0996" x="453.67" y="124.8569">include</text></g><!--link Contr?ler le curseur to Glisser-d?poser--><g class="link" data-entity-1="Contr&#244;ler le curseur" data-entity-2="Glisser-d&#233;poser" data-source-line="14" data-uid="lnk24" id="link_Contr&#244;ler le curseur_Glisser-d&#233;poser"><path d="M372.65,165.87 C406.73,150.91 458.86,130.58 506.67,122.32 C669.49,94.17 859.4171,142.3424 944.0271,167.9424" fill="none" id="Contr&#244;ler le curseur-to-Glisser-d&#233;poser" style="stroke:#181818;stroke-width:1;stroke-dasharray:7.0,7.0;"/><polygon fill="#181818" points="949.77,169.68,942.3141,163.245,944.9843,168.232,939.9973,170.9022,949.77,169.68" style="stroke:#181818;stroke-width:1;"/><text fill="#000000" font-family="sans-serif" font-size="13" lengthAdjust="spacing" textLength="47.0996" x="507.67" y="124.8569">include</text></g><!--link Calibrer le syst?me to Contr?ler le curseur--><g class="link" data-entity-1="Calibrer le syst&#232;me" data-entity-2="Contr&#244;ler le curseur" data-source-line="16" data-uid="lnk25" id="link_Calibrer le syst&#232;me_Contr&#244;ler le curseur"><path d="M170.77,183.45 C196.57,183.45 219.06,183.45 244.98,183.45" fill="none" id="Calibrer le syst&#232;me-to-Contr&#244;ler le curseur" style="stroke:#181818;stroke-width:1;stroke-dasharray:7.0,7.0;"/><polygon fill="#181818" points="250.98,183.45,241.98,179.45,245.98,183.45,241.98,187.45,250.98,183.45" style="stroke:#181818;stroke-width:1;"/><text fill="#000000" font-family="sans-serif" font-size="13" lengthAdjust="spacing" textLength="45.2778" x="188.36" y="176.5169">extend</text></g><!--SRC=[ZPAzJWCn383tF8Lr4nqEzWvKvP1OMLZOqfnBWv9BiHq9tgWmymRtOhYa5NyfkYq_d_tPJgoJH70dFdYsWfcC-RQ1jhs4i-lnDLeYf8ibqVWcI10GN1g4nlU0ixyHLvPT3igXCWWnzSWLhBF1hwYaunUMSHThsRgZgNWpiLvLkELZvb8SmzQIZUDExJLnEJZasrXP9PaPSq84vsK6ss3Thviv-C65tEE_iLtmJnaduwfQ-p2TlqyfJgTlj77jlEsreSG_uqpzHKeJzPHpm6V1eJTcI890_c4ZaDOdHWnmYnHHe4VujEk2GOV3ujF0-gTYHAMQRhyOb3lC0XODfFnrxevrBXgZTjZBFm00]--></g></svg>